<?xml version="1.0" standalone="no"?>
<!DOCTYPE svg PUBLIC "-//W3C//DTD SVG 1.1//EN" "http://www.w3.org/Graphics/SVG/1.1/DTD/svg11.dtd" >
<svg xmlns="http://www.w3.org/2000/svg">
<metadata></metadata>
<defs>
<font id="pt_sansbold_italic" horiz-adv-x="545" >
<font-face units-per-em="1000" ascent="750" descent="-250" />
<missing-glyph horiz-adv-x="253" />
<glyph unicode="fi" horiz-adv-x="526" d="M180 0q-8 -51 -20.5 -90t-33 -65t-51 -39.5t-74.5 -13.5q-36 0 -70.5 5.5t-59.5 22.5l34 91q17 -7 34 -9t43 -2q32 0 49.5 25t25.5 75l60 397h-66l21 103h65l6 28q20 95 76 138.5t144 43.5q66 0 114.5 -11t75.5 -29l-50 -93q-22 14 -56.5 22.5t-77.5 8.5 q-28 0 -46.5 -7.5t-30.5 -22t-19.5 -34.5t-12.5 -44h253l-75 -500h-123l60 397h-135z" />
<glyph unicode="fl" horiz-adv-x="559" d="M118 397h-66l21 103h65l6 28q20 94 73 139.5t158 45.5q22 0 50 -2t55 -4.5t50.5 -5.5t36.5 -6l-90 -533q-2 -11 -3.5 -19.5t-1.5 -16.5q0 -35 27 -35q11 0 22.5 2t28.5 8l-4 -89q-9 -4 -22 -8.5t-29 -8t-33.5 -5.5t-33.5 -2q-44 0 -67 17t-23 57q0 19 4 38l84 502 q-11 3 -32 5.5t-41 2.5q-44 0 -63 -30.5t-29 -79.5h72l-20 -103h-72l-61 -397q-9 -51 -21.5 -90t-32.5 -65t-50.5 -39.5t-74.5 -13.5q-36 0 -70.5 5.5t-59.5 22.5l34 91q17 -7 34 -9t43 -2q32 0 49.5 25t25.5 75z" />
<glyph unicode="&#xd;" horiz-adv-x="253" />
<glyph unicode=" "  horiz-adv-x="253" />
<glyph unicode="&#x09;" horiz-adv-x="253" />
<glyph unicode="&#xa0;" horiz-adv-x="253" />
<glyph unicode="!" horiz-adv-x="283" d="M217 700h128l-70 -329l-59 -163h-78l9 163zM74 66q0 35 22 55.5t58 20.5q37 0 59 -20.5t22 -55.5t-22 -56t-59 -21q-36 0 -58 21t-22 56z" />
<glyph unicode="&#x22;" horiz-adv-x="354" d="M70 484zM116 700h108l-79 -216h-75zM256 700h108l-79 -216h-75z" />
<glyph unicode="#" d="M318 205h-89l-36 -154h-107l36 154h-74l22 97h75l25 106h-72l22 97h73l35 144h107l-35 -144h89l35 144h107l-35 -144h72l-25 -97h-70l-25 -106h69l-24 -97h-68l-36 -154h-107zM252 302h89l25 106h-89z" />
<glyph unicode="$" d="M192 -10q-52 7 -84 23t-49 30l47 97q14 -10 42.5 -23t66.5 -20l47 221q-23 15 -45 32.5t-39.5 40t-28 51t-10.5 66.5q0 48 16.5 84t45 61t65.5 39t79 19l20 89h99l-19 -90q38 -5 67 -14.5t50 -20.5l-50 -102q-14 8 -38 16t-53 13l-43 -203q23 -16 46 -34t41 -41.5t29 -53 t11 -67.5q0 -48 -16 -85.5t-44.5 -64.5t-68 -43t-86.5 -21l-18 -89h-99zM272 94q53 4 78 31t25 63q0 32 -18 54t-45 42zM364 606q-48 -2 -71.5 -25t-23.5 -57q0 -29 16.5 -49.5t42.5 -40.5z" />
<glyph unicode="%" horiz-adv-x="804" d="M55 0zM55 499q0 54 18.5 94t48.5 66.5t66.5 39.5t72.5 13q66 0 100.5 -30.5t34.5 -89.5q0 -57 -17 -98.5t-46 -68.5t-66.5 -40t-77.5 -13q-62 0 -98 34.5t-36 92.5zM165 505q-1 -22 10 -35.5t32 -13.5q33 0 56 34.5t23 88.5q0 49 -43 49q-17 0 -31 -10t-25 -26.5t-17 -39 t-5 -47.5zM420 128q0 54 18.5 94t48.5 66.5t66.5 39.5t72.5 13q66 0 100.5 -30.5t34.5 -89.5q0 -57 -17 -98.5t-46 -68.5t-66.5 -40t-77.5 -13q-62 0 -98 34.5t-36 92.5zM530 134q-1 -22 10 -35.5t32 -13.5q33 0 56 34.5t23 88.5q0 49 -43 49q-17 0 -31 -10t-25 -26.5 t-17 -39t-5 -47.5zM656 714l73 -66l-576 -662l-73 69z" />
<glyph unicode="&#x26;" horiz-adv-x="783" d="M73 162q0 46 18.5 87t49 75t69 61.5t79.5 47.5q-17 33 -21.5 60t-4.5 54q0 33 11 63t35 53t61 37t88 14q40 0 65.5 -10t40.5 -26.5t20.5 -37t5.5 -40.5q0 -51 -40.5 -97.5t-115.5 -87.5q22 -54 45.5 -99t55.5 -89q26 25 52 62.5t48 76.5l79 -50q-10 -18 -25 -39.5 t-31.5 -43.5t-33 -41.5t-29.5 -33.5q24 -29 52.5 -54.5t56.5 -37.5l-87 -96q-15 6 -31 17.5t-31.5 25t-29.5 28.5t-24 29q-43 -33 -99.5 -58.5t-131.5 -25.5q-46 0 -82.5 13.5t-62 37t-39 55.5t-13.5 70zM443 149q-37 53 -66 105.5t-48 99.5q-59 -40 -92.5 -80.5 t-33.5 -87.5q0 -42 27 -66t80 -24q38 0 74.5 16.5t58.5 36.5zM384 553q0 -22 3.5 -37.5t14.5 -39.5q42 25 65 49t23 51q0 19 -9 30t-34 11q-31 0 -47 -19t-16 -45z" />
<glyph unicode="'" horiz-adv-x="218" d="M137 700h108l-79 -216h-75z" />
<glyph unicode="(" horiz-adv-x="310" d="M157 -218q-29 38 -47 77.5t-29 78.5t-15 76.5t-4 72.5q0 96 23 186.5t61.5 171t89.5 148.5t107 119l64 -54q-47 -52 -87.5 -116.5t-70.5 -137.5t-47.5 -151.5t-17.5 -158.5q0 -63 9 -124.5t41 -133.5z" />
<glyph unicode=")" horiz-adv-x="310" d="M183 711q45 -60 65.5 -135.5t20.5 -166.5q0 -96 -22.5 -187t-61 -172t-89 -150t-106.5 -120l-67 55q45 50 86 115.5t71.5 139.5t48.5 152t18 153q0 83 -12 146.5t-39 113.5z" />
<glyph unicode="*" horiz-adv-x="356" d="M182 731l28 -46l15 -59l15 55l28 49l63 -35l-30 -52l-47 -43l64 16h57v-73h-54l-61 16l50 -47l25 -42l-64 -37l-27 46l-20 64l-13 -58l-29 -49l-65 37l30 49l45 37l-55 -16h-59v74h59l59 -17l-50 44l-28 50z" />
<glyph unicode="+" horiz-adv-x="505" d="M58 394h162v169h117v-169h163v-112h-163v-171h-117v171h-162v112z" />
<glyph unicode="," horiz-adv-x="216" d="M60 -5q-17 1 -32 17t-15 42q0 40 25.5 62t60.5 22t52.5 -23t16.5 -53q-1 -49 -20 -85.5t-45.5 -62t-55 -41t-47.5 -21.5l-26 54q29 11 53 36t33 53z" />
<glyph unicode="-" horiz-adv-x="343" d="M81 340h239l-25 -104h-239z" />
<glyph unicode="." horiz-adv-x="251" d="M33 66q0 35 22 55.5t58 20.5q37 0 59 -20.5t22 -55.5t-22 -56t-59 -21q-36 0 -58 21t-22 56z" />
<glyph unicode="/" horiz-adv-x="388" d="M432 712l86 -46l-510 -808l-85 48z" />
<glyph unicode="0" d="M55 229q0 104 23.5 192.5t65.5 153.5t99.5 102t125.5 37q39 0 73.5 -12t60.5 -40t41 -75t15 -116q0 -93 -21.5 -180.5t-62 -155t-99 -108.5t-131.5 -41q-49 0 -85 19t-59 51.5t-34.5 77t-11.5 95.5zM179 230q0 -41 7 -67t18.5 -41t27.5 -20.5t34 -5.5q35 0 65.5 33 t53.5 86t36.5 119.5t13.5 134.5q0 31 -3.5 56t-13 42.5t-25.5 27t-41 9.5q-33 0 -64 -31t-55.5 -82.5t-39 -119.5t-14.5 -141z" />
<glyph unicode="1" d="M81 110h132l85 395l28 68l-58 -59l-97 -62l-39 77l257 183h70l-128 -602h129l-23 -110h-379z" />
<glyph unicode="2" d="M540 560q0 -56 -26 -113.5t-66 -112.5t-88 -104t-91 -88l-59 -41v-5l70 14h179l-23 -110h-400l14 67q28 26 66 61.5t79 76t80.5 84t70.5 85.5t50.5 81t19.5 71q0 33 -17 54t-65 21q-31 0 -63.5 -14.5t-64.5 -37.5l-30 94q48 35 96.5 53t112.5 18q74 0 114.5 -42.5 t40.5 -111.5z" />
<glyph unicode="3" d="M193 389l147 165l64 45l-76 -9h-159l24 110h363l-15 -71l-171 -190l-48 -27v-5l40 6q20 -2 42.5 -12t41.5 -29.5t31.5 -50t12.5 -74.5q0 -57 -18.5 -105t-55.5 -82.5t-92 -54t-127 -19.5q-43 0 -87 8t-69 23l57 111q20 -13 49 -21t67 -8q39 0 67.5 11t47.5 29t28 41.5 t9 47.5q0 48 -25.5 70t-92.5 22h-70z" />
<glyph unicode="4" d="M535 195h-105l-41 -195h-115l41 195h-287l15 74l393 436h102l-86 -407h105zM370 452l26 84h-3l-48 -72l-126 -135l-55 -38l62 7h111z" />
<glyph unicode="5" d="M201 99q42 0 72 12t49.5 32t29 46t9.5 55q0 50 -30.5 71t-101.5 21l-77 -3l77 367h327l-25 -122h-220l-29 -138l37 4q40 0 70.5 -13t51.5 -36t32 -55t11 -69q0 -138 -78 -211.5t-224 -73.5q-20 0 -41 2.5t-40.5 6.5t-36 9.5t-28.5 11.5l56 106q20 -10 45.5 -16.5 t63.5 -6.5z" />
<glyph unicode="6" d="M516 255q0 -54 -16 -103t-48.5 -85.5t-81.5 -58.5t-114 -22q-32 0 -66.5 11.5t-63 38t-46.5 69.5t-18 106q0 102 38 190.5t100.5 155t142.5 107.5t165 50l7 -103q-50 -8 -98 -28.5t-89.5 -52t-73.5 -71.5t-49 -86q27 29 66.5 44t81.5 15q77 0 120 -48.5t43 -128.5z M394 232q0 40 -20.5 65t-68.5 25q-38 0 -71 -17t-50 -43q-2 -10 -3.5 -22.5t-1.5 -20.5q0 -54 22.5 -88.5t69.5 -34.5q57 0 90 38t33 98z" />
<glyph unicode="7" d="M62 0l329 539l51 49l-58 -10h-235l25 122h430l-8 -38l-405 -662h-129z" />
<glyph unicode="8" d="M54 153q0 38 13 70.5t35 59t51 46.5t61 32q-14 13 -26.5 26.5t-22 30.5t-15 39.5t-5.5 52.5q0 49 18.5 87.5t50.5 64t74 39t89 13.5q84 0 128 -43.5t44 -111.5q0 -35 -11.5 -63.5t-31 -52.5t-45 -43.5t-53.5 -34.5q45 -35 64.5 -74.5t19.5 -85.5q0 -51 -18.5 -91.5 t-51.5 -69t-79 -43.5t-101 -15q-39 0 -73.5 11t-60 32t-40 52t-14.5 72zM374 190q0 23 -7.5 41t-20 32.5t-29.5 27t-35 23.5q-51 -26 -81 -60.5t-30 -76.5q0 -35 21 -58t69 -23q22 0 42.5 6t36.5 17.5t25 29t9 41.5zM263 511q0 -35 22 -59.5t56 -44.5q18 13 34 28t28.5 31 t20 33t7.5 33q0 36 -18 54t-51 18q-42 0 -70.5 -24t-28.5 -69z" />
<glyph unicode="9" d="M99 456q0 60 20 108t55.5 81t83 51t103.5 18q42 0 78 -13t62.5 -40.5t42 -69t15.5 -98.5q0 -80 -20.5 -147.5t-55 -122.5t-80 -98t-95.5 -73t-101.5 -46.5t-97.5 -19.5l-6 102q55 10 103.5 31.5t87.5 51t67.5 66t44.5 75.5q-29 -23 -63 -34.5t-82 -11.5q-28 0 -57 10.5 t-52 33t-38 59t-15 87.5zM221 475q0 -29 7.5 -48t20.5 -31t28.5 -17t32.5 -5q38 0 71 12t52 32q3 11 5.5 31t2.5 29q0 57 -22.5 92.5t-73.5 35.5q-24 0 -46 -7.5t-39.5 -23.5t-28 -41t-10.5 -59z" />
<glyph unicode=":" horiz-adv-x="314" d="M165 428q0 35 22 55.5t58 20.5q37 0 59 -20.5t22 -55.5t-22 -56t-59 -21q-36 0 -58 21t-22 56zM90 78q0 35 22 55.5t58 20.5q37 0 59 -20.5t22 -55.5t-22 -56t-59 -21q-36 0 -58 21t-22 56z" />
<glyph unicode=";" horiz-adv-x="307" d="M138 -5q-17 1 -32 17t-15 42q0 40 25.5 62t60.5 22t52.5 -23t16.5 -53q-1 -49 -20 -85.5t-45.5 -62t-55 -41t-47.5 -21.5l-26 54q29 11 53 36t33 53zM158 428q0 35 22 55.5t58 20.5q37 0 59 -20.5t22 -55.5t-22 -56t-59 -21q-36 0 -58 21t-22 56z" />
<glyph unicode="&#x3c;" horiz-adv-x="505" d="M51 285v70l386 231l57 -90l-224 -139l-91 -35l90 -31l230 -137l-57 -90z" />
<glyph unicode="=" horiz-adv-x="505" d="M58 187zM58 490h442v-112h-442v112zM58 299h442v-112h-442v112z" />
<glyph unicode="&#x3e;" horiz-adv-x="505" d="M508 365v-70l-387 -231l-56 91l223 138l91 36l-90 30l-229 138l56 89z" />
<glyph unicode="?" horiz-adv-x="430" d="M127 208q6 54 24.5 92.5t43 67t52 50t50 41.5t37.5 41t15 49q0 27 -15.5 42t-55.5 15q-31 0 -68 -13.5t-65 -32.5l-31 94q41 25 89 42.5t117 17.5q84 0 123 -35.5t39 -95.5q0 -53 -16 -89.5t-41 -64t-55 -49t-57.5 -45.5t-49.5 -54t-30 -73h-106zM82 66q0 35 22 55.5 t58 20.5q37 0 59 -20.5t22 -55.5t-22 -56t-59 -21q-36 0 -58 21t-22 56z" />
<glyph unicode="@" horiz-adv-x="1059" d="M706 484h70l-49 -271q-2 -12 -3 -22.5t-1 -18.5q0 -48 37 -48q26 0 51.5 12t45.5 37t32 63t12 90q0 75 -25 128.5t-68.5 88t-102.5 50.5t-126 16q-78 0 -145.5 -28t-117 -77.5t-77.5 -117t-28 -146.5q0 -78 23.5 -140t69 -106t112 -67.5t152.5 -23.5q29 0 66 7.5t67 21.5 l31 -96q-42 -20 -84 -28t-97 -8q-98 0 -180.5 28t-142.5 83t-94 136.5t-34 188.5q0 109 39 197t105 150t153 95.5t184 33.5q92 0 171 -26.5t137 -76t91 -121t33 -162.5q0 -64 -23 -120t-62 -97t-91.5 -65t-112.5 -24q-25 0 -46.5 5.5t-36.5 18.5t-22 34t-4 52h-4 q-15 -21 -32 -41t-38 -35.5t-46 -24.5t-55 -9q-25 0 -46.5 10.5t-37.5 29.5t-25.5 46t-9.5 60q0 62 20 120.5t54 103.5t79.5 72.5t96.5 27.5q35 0 59 -10.5t45 -27.5zM643 363q-14 11 -28 17.5t-34 6.5q-30 0 -55.5 -17.5t-44 -44.5t-29 -60.5t-10.5 -65.5q0 -33 14 -54.5 t47 -21.5q14 0 30 8.5t31 23t28.5 32.5t24.5 38z" />
<glyph unicode="A" horiz-adv-x="582" d="M387 155h-204l-83 -155h-138l389 705h96l91 -705h-131zM240 265h142l-16 156l1 110h-5l-40 -111z" />
<glyph unicode="B" horiz-adv-x="568" d="M166 695q19 3 43 6t51 5t55.5 3t55.5 1q46 0 85.5 -9.5t68 -29.5t45 -51.5t16.5 -75.5q0 -33 -11 -63.5t-31.5 -54.5t-49 -40t-64.5 -21v-5q19 -4 38 -14.5t34 -27t24 -39t9 -50.5q0 -64 -25 -109.5t-67 -74t-98 -42t-118 -13.5h-41.5t-54.5 1.5t-58 4.5t-53 9zM167 109 q4 -2 14.5 -3t23 -1.5t25.5 -1t22 -0.5q25 0 51.5 6t48 20t35.5 36t14 54q0 25 -11 41t-29 25.5t-41.5 13t-48.5 3.5h-64zM230 406h43q14 0 33 0.5t32 2.5q18 3 38.5 10t37 20t27.5 33t11 50q0 43 -28.5 59t-72.5 16q-26 0 -48 -1t-34 -3z" />
<glyph unicode="C" horiz-adv-x="537" d="M483 29q-67 -43 -164 -43q-66 0 -115 22t-81.5 61t-48.5 91t-16 112q0 118 33 201.5t87 137t123.5 78.5t142.5 25q57 0 97.5 -8.5t63.5 -19.5l-51 -116q-20 11 -48 16.5t-71 5.5q-51 0 -95 -21t-76 -60t-50.5 -95t-18.5 -127q0 -85 42.5 -133t113.5 -48q45 0 74.5 9.5 t55.5 23.5z" />
<glyph unicode="D" horiz-adv-x="620" d="M168 700q21 3 46 5t46.5 3t37.5 1q9 0 25.5 0.5t36.5 0.5q61 0 111 -15.5t85.5 -47.5t55 -82t19.5 -119q0 -44 -7.5 -94.5t-25.5 -101.5t-49.5 -98t-79 -83t-114 -58t-154.5 -22q-15 0 -30 0.5t-21 0.5q-20 1 -44.5 2.5l-49 3t-36.5 3.5zM174 114q4 -1 12.5 -1.5t18.5 -1 t19 -0.5h14q70 0 119 31.5t79.5 79t44 103t13.5 103.5q0 80 -33.5 120t-111.5 40q-20 0 -42 -1t-34 -3z" />
<glyph unicode="E" horiz-adv-x="503" d="M168 700h130h264l-26 -122h-264l-35 -163h241l-27 -122h-239l-37 -171h269l-25 -122h-269h-130z" />
<glyph unicode="F" horiz-adv-x="489" d="M168 700h130h264l-26 -122h-264l-37 -173h243l-25 -122h-243l-60 -283h-130z" />
<glyph unicode="G" horiz-adv-x="585" d="M369 365h210l-66 -312q-45 -35 -94.5 -51t-106.5 -16q-55 0 -101.5 19t-80.5 55t-53 89t-19 121q0 115 31.5 199t85.5 138.5t126 80.5t152 26q57 0 101.5 -9.5t67.5 -19.5l-52 -115q-21 10 -52.5 16t-76.5 6q-53 0 -98 -20t-78 -59t-51.5 -96.5t-18.5 -131.5 q0 -83 39 -130t105 -47q49 0 86 25l28 133l-102 16z" />
<glyph unicode="H" horiz-adv-x="624" d="M455 293h-243l-62 -293h-130l148 700h130l-60 -285h243l60 285h130l-148 -700h-130z" />
<glyph unicode="I" horiz-adv-x="278" d="M183 700h129l-148 -700h-129z" />
<glyph unicode="J" horiz-adv-x="324" d="M239 700h130l-109 -512q-9 -42 -23 -78.5t-37 -63.5t-57.5 -42.5t-83.5 -15.5q-28 0 -59 6t-51 17l50 112q23 -13 54 -13q21 0 35 8.5t23.5 23.5t15.5 35.5t12 45.5z" />
<glyph unicode="K" horiz-adv-x="593" d="M260 299h-47l-63 -299h-130l148 700h130l-66 -310l31 11l237 299h156l-252 -297l-60 -35l44 -39l152 -329h-145z" />
<glyph unicode="L" horiz-adv-x="495" d="M441 0h-291h-130l148 700h130l-123 -578h291z" />
<glyph unicode="M" horiz-adv-x="767" d="M613 363l44 138h-6l-66 -113l-197 -259h-41l-94 262l-18 110h-5l-10 -137l-77 -364h-123l148 700h115l105 -320l13 -80h5l46 82l236 318h125l-148 -700h-129z" />
<glyph unicode="N" horiz-adv-x="631" d="M267 366l-33 112h-5l-9 -112l-77 -366h-123l150 705h90l172 -374l31 -109h6l7 109l79 369h123l-150 -705h-90z" />
<glyph unicode="O" horiz-adv-x="644" d="M58 262q0 93 25.5 175.5t72.5 144t113.5 97t148.5 35.5q54 0 97.5 -16t74 -49.5t47.5 -84.5t17 -121q0 -94 -25.5 -177t-72 -145.5t-111 -98.5t-142.5 -36q-118 0 -181 69.5t-64 206.5zM195 266q0 -72 27.5 -115t90.5 -43q46 0 83.5 27.5t64.5 74t41.5 106.5t14.5 125 q0 79 -31 115t-85 36q-45 0 -82.5 -26t-65 -70.5t-43 -104t-15.5 -125.5z" />
<glyph unicode="P" horiz-adv-x="550" d="M167 693q42 8 89.5 12.5t95.5 4.5q51 0 94.5 -11.5t76 -35.5t50.5 -61.5t18 -89.5q0 -78 -27 -130.5t-71.5 -85t-101.5 -46t-116 -13.5h-15.5t-22 0.5t-22 1.5t-15.5 2l-50 -241h-130zM226 359q4 -1 11 -2t15.5 -1.5t16 -0.5h11.5q34 0 65.5 7.5t55.5 24t38.5 43.5 t14.5 66q0 29 -9.5 48t-25.5 29.5t-37.5 14.5t-45.5 4q-18 0 -34.5 -1.5t-27.5 -3.5z" />
<glyph unicode="Q" horiz-adv-x="644" d="M58 262q0 93 25.5 175.5t72.5 144t113.5 97t148.5 35.5q54 0 97.5 -16t74 -49.5t47.5 -84.5t17 -121q0 -94 -25.5 -177t-72 -145.5t-111 -98.5t-142.5 -36q-118 0 -181 69.5t-64 206.5zM195 266q0 -72 27.5 -115t90.5 -43q46 0 83.5 27.5t64.5 74t41.5 106.5t14.5 125 q0 79 -31 115t-85 36q-45 0 -82.5 -26t-65 -70.5t-43 -104t-15.5 -125.5zM627 -202q-48 -13 -95 -13q-48 0 -92 10.5t-84.5 22.5t-77.5 22.5t-73 10.5q-23 0 -45 -6l25 118q28 6 56 6q40 0 77.5 -10t76 -21.5t79.5 -21.5t88 -10q21 0 43.5 2.5t46.5 8.5z" />
<glyph unicode="R" horiz-adv-x="584" d="M167 693q48 9 97 13t88 4q46 0 87 -11t71 -33.5t47.5 -58t17.5 -83.5q0 -55 -16.5 -95.5t-43.5 -68t-61.5 -43t-70.5 -20.5l39 -31l97 -266h-144l-96 274l-69 13l-60 -287h-130zM230 380h53q29 0 57 5.5t49.5 20t35 38.5t13.5 61q0 34 -23 58.5t-74 24.5 q-20 0 -37.5 -1.5t-29.5 -3.5z" />
<glyph unicode="S" horiz-adv-x="510" d="M502 559q-19 12 -56 24.5t-82 12.5q-23 0 -45 -4.5t-39 -14.5t-27 -26t-10 -38q0 -29 18 -49t45.5 -37.5t59 -35.5t59 -42t45.5 -57.5t18 -82.5q0 -59 -20.5 -101.5t-58 -69.5t-90 -39.5t-116.5 -12.5q-35 0 -66.5 4t-58.5 10t-47.5 13.5t-32.5 14.5l67 116q10 -6 26 -13 t36.5 -13t44.5 -10t48 -4q28 0 53 4.5t43.5 15t29 26.5t10.5 40q0 27 -18 46t-45.5 36t-59 35.5t-59 43.5t-45.5 60.5t-18 86.5q0 58 20.5 99t55.5 67t82 38t101 12q29 0 58 -3t55 -8.5t48 -13t37 -16.5z" />
<glyph unicode="T" horiz-adv-x="547" d="M614 578h-194l-123 -578h-129l122 578h-194l26 122h517z" />
<glyph unicode="U" horiz-adv-x="602" d="M531 700h122l-95 -452q-15 -72 -39 -121.5t-58 -80.5t-80 -44.5t-106 -13.5q-58 0 -98 13.5t-65.5 38.5t-37 59t-11.5 75q0 20 2.5 41t7.5 44l94 441h129l-92 -440q-8 -38 -8 -62q0 -48 25 -68t73 -20q60 0 93 35t50 113z" />
<glyph unicode="V" horiz-adv-x="579" d="M288 290l-7 -119h4l44 119l216 410h146l-395 -705h-94l-101 705h142z" />
<glyph unicode="W" horiz-adv-x="826" d="M249 310l-14 -124h5l39 126l198 388h88l29 -390l-13 -124h5l40 126l164 388h140l-333 -705h-91l-37 389l8 107h-6l-38 -108l-199 -388h-91l-34 705h137z" />
<glyph unicode="X" horiz-adv-x="608" d="M256 357l-113 343h141l60 -202l10 -71l37 71l149 202h156l-263 -338l125 -362h-139l-72 216l-12 74l-40 -74l-161 -216h-158z" />
<glyph unicode="Y" horiz-adv-x="569" d="M231 260l-125 440h144l65 -263l-2 -74h4l31 76l175 261h149l-311 -439l-55 -261h-129z" />
<glyph unicode="Z" horiz-adv-x="518" d="M15 122l360 416l58 40h-321l25 122h461l-25 -122l-362 -419l-56 -37h321l-26 -122h-461z" />
<glyph unicode="[" horiz-adv-x="314" d="M198 700h223l-22 -109h-105l-151 -711h105l-24 -110h-222z" />
<glyph unicode="\" horiz-adv-x="424" d="M472 -95l-101 -45l-335 808l103 43z" />
<glyph unicode="]" horiz-adv-x="313" d="M145 -230h-223l24 110h105l150 711h-105l22 109h224z" />
<glyph unicode="^" horiz-adv-x="505" d="M266 705h70l185 -292h-131l-71 122l-22 70l-25 -71l-77 -121h-125z" />
<glyph unicode="_" horiz-adv-x="444" d="M-46 -117h444v-107h-444v107z" />
<glyph unicode="`" horiz-adv-x="238" d="M430 566h-69l-91 124l7 30h129z" />
<glyph unicode="a" horiz-adv-x="503" d="M444 200q-8 -38 -11.5 -77t-3.5 -74q0 -14 0.5 -26.5t1.5 -23.5h-91l-14 86h-4q-11 -18 -28.5 -35.5t-38.5 -32t-44.5 -23t-48.5 -8.5q-66 0 -97.5 43t-31.5 115q0 73 18.5 140t57.5 118t98.5 81.5t141.5 30.5q35 0 76.5 -6.5t80.5 -17.5zM209 89q18 0 34 7.5t29.5 19.5 t24 26t18.5 26l50 233q-11 5 -25.5 7.5t-28.5 2.5q-36 0 -64 -21.5t-47.5 -56t-29.5 -78t-10 -87.5q0 -32 10.5 -55.5t38.5 -23.5z" />
<glyph unicode="b" horiz-adv-x="512" d="M164 700h123l-62 -288h4q13 18 30 35.5t37.5 32t44.5 23.5t53 9q54 0 81 -38t27 -101q0 -95 -26.5 -167t-69.5 -120.5t-97 -73t-109 -24.5q-61 0 -107.5 11.5t-70.5 28.5zM160 105q11 -8 27 -11t35 -3q25 0 52 16.5t49.5 48.5t37 78.5t14.5 105.5q0 69 -40 69 q-20 0 -39.5 -11t-37.5 -27.5t-32.5 -35.5t-23.5 -36z" />
<glyph unicode="c" horiz-adv-x="412" d="M393 387q-19 11 -39.5 15t-44.5 4q-27 0 -52.5 -17.5t-46 -46t-32.5 -66.5t-12 -78q0 -51 22 -77.5t58 -26.5q30 0 55.5 9.5t45.5 21.5l23 -84q-32 -24 -74.5 -39.5t-84.5 -15.5q-48 0 -81.5 14t-54.5 38t-31 55t-10 65q0 84 24 150t63.5 111.5t90 70t103.5 24.5 q47 0 74.5 -9t49.5 -20z" />
<glyph unicode="d" horiz-adv-x="507" d="M442 176q-9 -42 -13 -78t-4 -68v-15.5t1 -15.5h-84l-14 86h-4q-11 -18 -28.5 -35.5t-38.5 -32t-44.5 -23t-46.5 -8.5q-62 0 -95.5 44t-33.5 121q0 70 19 135t53.5 115.5t84 80.5t109.5 30q29 0 48 -3.5t36 -11.5l43 203h123zM365 394q-12 8 -27.5 11.5t-41.5 3.5 q-30 0 -54.5 -20.5t-41.5 -55t-26.5 -79.5t-9.5 -94q0 -29 13 -50t37 -21q15 0 30.5 7.5t29 19.5t25 26t18.5 26z" />
<glyph unicode="e" horiz-adv-x="466" d="M402 48q-31 -26 -80 -44t-114 -18q-81 0 -127.5 47.5t-46.5 132.5q0 80 25 144.5t65.5 109.5t91.5 69.5t102 24.5q41 0 70.5 -10.5t48.5 -29t28 -42.5t9 -51q0 -41 -21 -72t-58.5 -51.5t-90.5 -31t-116 -10.5q-8 0 -15 0.5t-15 0.5q-2 -12 -3 -21.5t-1 -17.5 q0 -45 23.5 -67t66.5 -22q44 0 79 13t53 26zM176 295q28 0 59.5 2t58.5 9.5t45 22t18 39.5q0 15 -11 30.5t-46 15.5q-44 0 -76.5 -34t-47.5 -85z" />
<glyph unicode="f" horiz-adv-x="294" d="M246 397l-74 -431q-6 -37 -17 -68.5t-30.5 -55t-49.5 -37t-74 -13.5q-36 0 -70.5 5.5t-59.5 22.5l34 91q17 -7 34 -9t43 -2q32 0 49.5 25.5t26.5 82.5l63 389h-70l22 103h64l13 67q7 37 18 64.5t29.5 46t45 27.5t65.5 9q16 0 36.5 -1.5t40.5 -5t39 -8.5t34 -12l-29 -91 q-23 9 -47 12t-47 3q-32 0 -46.5 -19t-20.5 -59l-6 -33h100l-20 -103h-96z" />
<glyph unicode="g" horiz-adv-x="505" d="M407 0q-13 -59 -35 -99.5t-52.5 -65.5t-70 -36t-87.5 -11q-35 0 -62.5 5t-48.5 12t-36.5 14.5t-24.5 13.5l46 91q9 -4 21 -9.5t27.5 -11t36 -9t47.5 -3.5q50 0 79.5 31t42.5 85l19 78h-4q-23 -36 -62.5 -64.5t-89.5 -28.5q-54 0 -87.5 40.5t-33.5 108.5q0 77 22 144.5 t61.5 118t93.5 79.5t119 29q61 0 106.5 -10.5t73.5 -23.5zM371 399q-11 6 -28 8t-34 2q-32 0 -59.5 -19t-47.5 -52t-31.5 -77.5t-11.5 -95.5q0 -32 13.5 -51t35.5 -19q17 0 35 10.5t34.5 26.5t29.5 35.5t21 36.5z" />
<glyph unicode="h" horiz-adv-x="528" d="M309 0l60 284q10 44 10 73q0 26 -10 37.5t-31 11.5q-19 0 -40 -12t-40 -30t-34.5 -38.5t-23.5 -37.5l-59 -288h-123l148 700h123l-63 -288h4q13 16 31.5 34t41 33t49 25t57.5 10q48 0 74.5 -24t26.5 -85q0 -37 -12 -94l-66 -311h-123z" />
<glyph unicode="i" horiz-adv-x="256" d="M27 0zM133 500h123l-106 -500h-123zM152 642q0 33 21.5 51t54.5 18q32 0 54.5 -18t22.5 -51q0 -32 -22.5 -50.5t-54.5 -18.5q-33 0 -54.5 18.5t-21.5 50.5z" />
<glyph unicode="j" horiz-adv-x="244" d="M0 0zM123 500h124l-111 -521q-19 -90 -64 -137.5t-122 -47.5q-31 0 -62 7l24 106q25 -2 43 4.5t30.5 20.5t21 35.5t14.5 48.5zM141 642q0 33 21.5 51t54.5 18q32 0 54.5 -18t22.5 -51q0 -32 -22.5 -50.5t-54.5 -18.5q-33 0 -54.5 18.5t-21.5 50.5z" />
<glyph unicode="k" horiz-adv-x="465" d="M224 207h-40l-43 -207h-123l148 700h123l-88 -413l37 13l141 200h137l-149 -201l-60 -38l45 -38l76 -223h-132z" />
<glyph unicode="l" horiz-adv-x="272" d="M168 148q-6 -29 0.5 -43t21.5 -14q28 0 53 11l-3 -89q-18 -11 -52 -18t-67 -7q-43 0 -65.5 16.5t-22.5 61.5q0 23 6 53l123 581h123z" />
<glyph unicode="m" horiz-adv-x="767" d="M283 0l57 272q6 28 9.5 49.5t3.5 38.5q0 46 -35 46q-17 0 -34 -9t-31.5 -23t-27 -30.5t-20.5 -31.5l-64 -312h-123l106 500h96l-6 -88h4q15 16 32.5 34t39.5 33t49 25t59 10q40 0 60.5 -29t18.5 -77q15 19 34.5 38t42 34t48 24.5t52.5 9.5q46 0 70.5 -21.5t24.5 -80.5 q0 -43 -15 -112l-63 -300h-123l59 281q5 23 8 43t3 35q0 23 -8.5 35t-28.5 12q-16 0 -32.5 -9.5t-31.5 -24t-27.5 -31.5t-19.5 -32l-64 -309h-123z" />
<glyph unicode="n" horiz-adv-x="521" d="M299 0l66 310q6 28 6 49q0 22 -9 34.5t-33 12.5q-18 0 -36 -9t-34 -24t-30 -33.5t-24 -37.5l-64 -302h-123l106 500h93l-5 -88h4q13 16 30.5 34t40.5 33t51.5 25t64.5 10q45 0 72 -24.5t27 -81.5q0 -15 -1.5 -32t-6.5 -37l-72 -339h-123z" />
<glyph unicode="o" horiz-adv-x="496" d="M34 162q0 79 22.5 144t60 111t87 71.5t103.5 25.5q48 0 81 -15t53.5 -40t29.5 -57t9 -66q0 -78 -22 -142.5t-59 -110.5t-86 -71.5t-103 -25.5q-47 0 -80 15.5t-54.5 40.5t-31.5 56.5t-10 63.5zM161 179q0 -90 65 -90q24 0 47 21t41 55t28.5 77t10.5 86q0 40 -13.5 61.5 t-50.5 21.5q-24 0 -47 -20t-41 -52.5t-29 -74.5t-11 -85z" />
<glyph unicode="p" horiz-adv-x="506" d="M122 500h91l-5 -88h4q14 19 32 37.5t40 32.5t47 23t54 9q51 0 82 -35t31 -110q0 -85 -22.5 -155.5t-60 -121t-88 -78.5t-105.5 -28q-26 0 -49 5t-34 13l-43 -204h-122zM160 106q25 -17 56 -17t59 21t49.5 56t34 81.5t12.5 97.5q0 29 -13.5 47.5t-36.5 18.5q-18 0 -35 -9 t-32 -22.5t-27 -30.5t-21 -33z" />
<glyph unicode="q" horiz-adv-x="501" d="M356 -200h-120l61 278h-4q-10 -17 -24.5 -33t-33 -29.5t-40.5 -21.5t-47 -8q-33 0 -55.5 12.5t-36.5 34t-20.5 49t-6.5 57.5q0 76 24.5 144t67 119t99 80.5t119.5 29.5q48 0 93.5 -10.5t70.5 -24.5zM364 399q-14 6 -29 8t-30 2q-30 0 -57.5 -21.5t-47.5 -57t-32 -81.5 t-12 -94q0 -31 11.5 -48.5t31.5 -17.5q19 0 38 11.5t35.5 29t30 38t21.5 38.5z" />
<glyph unicode="r" horiz-adv-x="343" d="M215 500l1 -88h4q22 40 53.5 68t79.5 28q21 0 50 -8l-31 -107q-10 3 -19 5t-19 2q-41 0 -75.5 -26.5t-52.5 -61.5l-65 -312h-123l106 500h91z" />
<glyph unicode="s" horiz-adv-x="396" d="M38 117q20 -11 51.5 -19.5t66.5 -8.5t53.5 13.5t19.5 41.5q0 20 -12 34.5t-30.5 27.5t-39.5 26.5t-39.5 31t-30.5 41.5t-12 58q0 33 13 61t36.5 48t57 31t75.5 11q58 0 96 -8.5t60 -21.5l-34 -94q-20 9 -48.5 15t-59.5 6q-32 0 -50.5 -11t-18.5 -35q0 -16 12 -28.5 t30.5 -25.5t39.5 -26.5t39.5 -32.5t30.5 -43.5t12 -58.5q0 -83 -54 -123.5t-144 -40.5q-51 0 -93.5 9.5t-65.5 23.5z" />
<glyph unicode="t" horiz-adv-x="320" d="M64 500h65l20 94l131 37l-28 -131h117l-23 -103h-116l-49 -226q-6 -27 -6 -44q0 -22 10 -30t30 -8q19 0 34.5 4t32.5 13v-92q-11 -6 -26.5 -11.5t-33.5 -9t-37 -5.5t-35 -2q-51 0 -78.5 23.5t-27.5 71.5q0 10 1.5 21t3.5 23l58 272h-67z" />
<glyph unicode="u" horiz-adv-x="512" d="M241 500l-65 -309q-6 -30 -6 -50t8 -31t28 -11q17 0 34.5 8.5t33.5 22t29.5 30t22.5 32.5l64 308h123l-63 -300q-5 -20 -8.5 -47t-6.5 -55.5t-4 -54.5t0 -43h-99l-5 90h-4q-14 -19 -32.5 -37.5t-41 -33.5t-49 -24t-56.5 -9q-47 0 -76 23.5t-29 86.5q0 37 10 81l69 323 h123z" />
<glyph unicode="v" horiz-adv-x="448" d="M209 238l2 -77h3l30 79l137 260h139l-306 -505h-76l-98 505h136z" />
<glyph unicode="w" horiz-adv-x="678" d="M445 500l32 -256l-1 -83h5l30 84l116 255h120l-255 -505h-91l-35 280v63h-4l-26 -64l-150 -279h-94l-46 505h126l16 -251l-6 -89h5l34 90l132 250h92z" />
<glyph unicode="x" horiz-adv-x="496" d="M166 256l-90 244h139l38 -107l13 -70l44 70l87 107h143l-195 -240l100 -260h-136l-48 120l-15 74l-45 -74l-99 -120h-143z" />
<glyph unicode="y" horiz-adv-x="452" d="M216 219l1 -78h6l27 79l136 280h131l-240 -449q-30 -56 -56.5 -103t-53.5 -81t-56 -53t-62 -19q-44 0 -66 15l33 98q6 -3 12.5 -4t12.5 -1q24 0 49 23t50 74l-94 500h141z" />
<glyph unicode="z" horiz-adv-x="435" d="M9 108l225 239l71 45h-236l24 108h372l-23 -108l-230 -243l-64 -41h234l-23 -108h-372z" />
<glyph unicode="{" horiz-adv-x="356" d="M122 96q11 51 -4.5 70t-52.5 19l22 100q36 0 60 20.5t33 64.5l44 209q11 54 42 88t85 34h114l-23 -110h-48q-26 0 -40.5 -14t-21.5 -46l-41 -195q-9 -44 -34 -66.5t-52 -27.5l-2 -10q25 -4 39.5 -30t5.5 -68l-41 -194q-7 -32 2 -46t36 -14h47l-24 -110h-114 q-50 0 -69 31.5t-6 89.5z" />
<glyph unicode="|" horiz-adv-x="232" d="M94 700h106v-830h-106v830z" />
<glyph unicode="}" horiz-adv-x="359" d="M267 375q-11 -51 5 -70t53 -19l-21 -100q-76 0 -94 -85l-45 -209q-11 -54 -43.5 -88t-86.5 -34h-110l24 110h48q25 0 39 13.5t21 46.5l42 195q9 44 33.5 66.5t52.5 27.5l3 10q-26 4 -41 30t-6 68l41 194q7 31 -1.5 45.5t-35.5 14.5h-46l22 110h113q50 0 69.5 -31.5 t7.5 -89.5z" />
<glyph unicode="~" horiz-adv-x="505" d="M45 378q47 38 84.5 52.5t69.5 14.5q29 0 54 -8.5t48 -18t45.5 -18t45.5 -8.5q18 0 37 6t40 23l47 -103q-36 -27 -66 -38t-56 -11q-28 0 -52 9t-46.5 20t-45.5 20t-49 9q-24 0 -51.5 -10.5t-60.5 -38.5z" />
<glyph unicode="&#xa1;" horiz-adv-x="283" d="M0 0zM118.014 -199.957h-127.992l69.9951 328.979l58.9971 162.99h77.9951l-9 -162.99zM261.005 434.004q0 -34.998 -21.999 -55.4961q-21.999 -20.499 -57.9961 -20.499q-36.998 0 -58.9971 20.499q-21.998 20.498 -21.998 55.4961t21.998 55.9971 q21.999 20.998 58.9971 20.998q35.9971 0 57.9961 -20.998q21.999 -20.999 21.999 -55.9971z" />
<glyph unicode="&#xa2;" d="M447 41q-21 -17 -51.5 -29.5t-62.5 -18.5l-19 -93h-115l19 91q-33 7 -57 23t-39 38.5t-22 49.5t-7 56q0 75 19 135.5t51.5 105.5t75.5 73t90 37l19 91h115l-20 -92q46 -9 72 -23l-45 -98q-11 6 -25.5 10t-30.5 6l-65 -305q22 5 41.5 12t32.5 15zM327 398 q-22 -9 -42.5 -27t-36 -44t-25 -58.5t-9.5 -70.5q0 -42 14 -65t36 -32z" />
<glyph unicode="&#xa3;" d="M113 399h70q-5 20 -9 43.5t-4 55.5q0 56 21.5 97t57.5 67.5t82 39t95 12.5q45 0 85.5 -9.5t63.5 -25.5l-42 -97q-17 9 -46.5 16.5t-69.5 7.5q-24 0 -46.5 -8.5t-39 -24.5t-26.5 -38t-10 -50q0 -29 4 -48.5t10 -37.5h140l-23 -103h-95q0 -4 0.5 -6.5t0.5 -6.5 q0 -50 -21 -91t-46 -63l-47 -30l-1 -6l67 15h218l-24 -108h-448l24 109h2q30 1 57.5 14t48.5 35.5t33.5 52.5t12.5 65v10t-1 10h-117z" />
<glyph unicode="&#xa4;" d="M115 622l78 -77l19 -37q20 15 47.5 22.5t57.5 7.5q29 0 57.5 -7.5t47.5 -21.5l20 36l78 77l77 -80l-77 -78l-37 -16q14 -21 20 -47.5t6 -55.5q0 -30 -6.5 -56.5t-19.5 -44.5l37 -16l77 -78l-77 -80l-78 77l-18 37q-19 -14 -48.5 -22t-58.5 -8q-30 0 -57.5 7.5t-47.5 21.5 l-19 -36l-78 -77l-76 80l77 78l36 17q-12 21 -19 45.5t-7 54.5q0 29 7.5 54t20.5 48l-38 17l-77 78zM235 346q0 -38 23 -62t60 -24t59.5 24t22.5 62q0 36 -22.5 61t-59.5 25t-60 -25t-23 -61z" />
<glyph unicode="&#xa5;" d="M112 337h85l-103 363h152l67 -263l-3 -74h5l30 76l173 261h142l-257 -363h87l-17 -80h-125l-12 -57h125l-17 -80h-125l-25 -120h-130l25 120h-124l17 80h124l12 57h-123z" />
<glyph unicode="&#xa6;" horiz-adv-x="227" d="M60 213h107v-343h-107v343zM167 357h-107v343h107v-343z" />
<glyph unicode="&#xa7;" horiz-adv-x="505" d="M85 123q20 -11 50.5 -22.5t71.5 -11.5q35 0 56 13.5t21 37.5q0 16 -15.5 27t-38.5 21t-50.5 21.5t-50.5 27.5t-38.5 39.5t-15.5 58.5q0 45 24 76.5t56 54.5l48 16q-22 16 -33 38.5t-12 47.5q0 30 14.5 57t40.5 46.5t62.5 31t79.5 11.5q56 0 93 -11.5t63 -25.5l-37 -95 q-20 11 -53.5 20t-66.5 9q-35 0 -54 -14.5t-19 -37.5q0 -17 15.5 -27.5t38.5 -19t50 -17.5t50 -24t38.5 -38.5t15.5 -59.5q0 -48 -24.5 -82.5t-54.5 -55.5l-51 -16q23 -16 34 -36.5t10 -52.5q-1 -69 -55 -106.5t-143 -37.5q-55 0 -97 13.5t-66 30.5zM297 270q23 12 44 32 t21 48q0 17 -6 28t-18 20t-31 16.5t-44 16.5q-22 -12 -41.5 -32t-19.5 -48q0 -31 22.5 -48t72.5 -33z" />
<glyph unicode="&#xa8;" horiz-adv-x="245" d="M180 651q0 33 18.5 51.5t47.5 18.5t47.5 -18.5t18.5 -51.5q0 -32 -18.5 -50t-47.5 -18t-47.5 18t-18.5 50zM388 652q0 32 18.5 50.5t47.5 18.5t47.5 -18.5t18.5 -50.5t-18.5 -50.5t-47.5 -18.5t-47.5 18.5t-18.5 50.5z" />
<glyph unicode="&#xa9;" horiz-adv-x="836" d="M80 290q0 83 28 149.5t76.5 113.5t114.5 72.5t142 25.5t141.5 -25.5t114.5 -72.5t77 -113.5t28 -149.5t-28 -149.5t-77 -113.5t-114.5 -72.5t-141.5 -25.5q-83 0 -150 25.5t-114 72.5t-72 113.5t-25 149.5zM178 290q0 -62 19.5 -112t55 -84.5t83.5 -53t105 -18.5 t105.5 18.5t84 53t55 84.5t19.5 112t-19.5 112t-55 84.5t-84 53t-105.5 18.5t-105 -18.5t-83.5 -53t-55 -84.5t-19.5 -112zM566 131q-22 -14 -55.5 -22.5t-71.5 -8.5q-81 0 -123.5 51t-42.5 139q0 91 45.5 140.5t120.5 49.5q37 0 65.5 -8.5t54.5 -23.5l-32 -87 q-18 9 -32.5 12t-28.5 3q-29 0 -46 -19t-17 -67q0 -86 70 -86q19 0 34 3.5t30 11.5z" />
<glyph unicode="&#xaa;" horiz-adv-x="401" d="M121 674q28 14 72 24t101 10q60 0 84.5 -25t24.5 -62q0 -25 -7 -56.5t-15.5 -64.5t-15 -64.5t-6.5 -55.5h-90l-3 46h-3q-14 -17 -41 -33.5t-69 -16.5q-23 0 -40.5 7t-29 19t-17.5 27.5t-6 31.5q0 34 15 56.5t40 36.5t58 20t69 6q12 0 24 -0.5t24 -1.5q8 25 -1 40.5 t-42 15.5q-38 0 -64.5 -7t-47.5 -15zM277 524q-8 1 -16.5 1.5t-16.5 0.5q-30 0 -51 -9t-21 -33q0 -13 7.5 -21.5t21.5 -8.5q30 0 44.5 11.5t24.5 23.5z" />
<glyph unicode="&#xab;" horiz-adv-x="465" d="M30 259l200 230l60 -64l-106 -126l-55 -39l36 -37l60 -123l-84 -62zM216 259l200 230l60 -64l-106 -126l-55 -39l36 -37l60 -123l-84 -62z" />
<glyph unicode="&#xac;" horiz-adv-x="527" d="M66 412h442v-226h-120v114h-322v112z" />
<glyph unicode="&#xad;" horiz-adv-x="343" d="M81 340h239l-25 -104h-239z" />
<glyph unicode="&#xae;" horiz-adv-x="693" d="M117 451q0 67 22.5 119.5t61.5 88.5t90.5 55t108.5 19q59 0 110.5 -19t89.5 -55t60 -88.5t22 -119.5q0 -68 -22.5 -120.5t-61 -88.5t-90 -54.5t-108.5 -18.5q-59 0 -110.5 18.5t-90 54.5t-60.5 88.5t-22 120.5zM211 451q0 -48 15.5 -84.5t41.5 -60.5t60 -36t72 -12 q40 0 74.5 11.5t59.5 35.5t39.5 60.5t14.5 85.5q0 48 -15 84t-40.5 60t-60 36t-72.5 12q-42 0 -77 -13t-60 -38t-38.5 -60.5t-13.5 -80.5zM297 581q16 5 45 7.5t55 2.5q42 0 72 -17.5t30 -60.5q0 -32 -20.5 -49t-50.5 -19l28 -14l65 -109h-61l-63 104l-48 15v-119h-52v259z M386 546q-11 0 -21 -0.5t-16 -3.5v-71h34q29 0 45 9t16 31q0 35 -58 35z" />
<glyph unicode="&#xaf;" horiz-adv-x="313" d="M313 658h308l-19 -92h-308z" />
<glyph unicode="&#xb0;" horiz-adv-x="438" d="M121 548q0 37 13 67.5t35.5 52.5t52 34t63.5 12t64.5 -11t53.5 -32.5t36 -52.5t13 -70t-13 -69.5t-36 -51.5t-53.5 -32t-64.5 -11t-63.5 11t-52 32t-35.5 51.5t-13 69.5zM221 548q0 -32 19 -50.5t46 -18.5t47 18.5t20 50.5t-20 51.5t-47 19.5t-46 -19.5t-19 -51.5z" />
<glyph unicode="&#xb1;" horiz-adv-x="505" d="M58 517h162v165h117v-165h162v-112h-162v-106h-117v106h-162v112zM58 253h441v-112h-441v112z" />
<glyph unicode="&#xb2;" horiz-adv-x="402" d="M96 380zM446 707q0 -60 -38 -110t-102 -98l-49 -25v-4l57 11h101l-22 -101h-297l15 71q29 18 67 44t72 55t57.5 59.5t23.5 57.5q0 17 -9.5 27t-35.5 10t-51 -8.5t-44 -19.5l-14 91q37 21 76.5 30.5t73.5 9.5q57 0 88 -26t31 -74z" />
<glyph unicode="&#xb3;" horiz-adv-x="402" d="M104 373zM227 468q50 0 70 18.5t20 41.5q0 20 -14.5 30t-62.5 10h-41l8 38l86 81l45 24l-56 -6h-108l21 95h269l-14 -62l-102 -93l-35 -17v-5l28 3q35 -1 60 -25t24 -64q0 -42 -15.5 -73t-42.5 -51t-64 -30t-80 -10q-36 0 -67.5 6.5t-51.5 17.5l40 90q40 -19 83 -19z" />
<glyph unicode="&#xb4;" horiz-adv-x="238" d="M405 720h125l-6 -30l-133 -124h-69z" />
<glyph unicode="&#xb6;" horiz-adv-x="538" d="M398 700h107v-830h-107v830zM214 294q-33 0 -61 16.5t-48.5 45t-31.5 65t-11 77.5q0 40 13 76.5t37 64.5t58 44.5t76 16.5h74v-830h-106v424z" />
<glyph unicode="&#xb7;" horiz-adv-x="253" d="M73 239zM73 316q0 35 22 55.5t58 20.5q37 0 59 -20.5t22 -55.5t-22 -56t-59 -21q-36 0 -58 21t-22 56z" />
<glyph unicode="&#xb8;" horiz-adv-x="363" d="M388 -43q34 -2 52 -21t18 -48q0 -26 -11.5 -45t-31 -31.5t-46 -18.5t-56.5 -6q-38 0 -77 9l20 48q51 -5 70 6t19 25q0 32 -78 30l75 95h79z" />
<glyph unicode="&#xb9;" horiz-adv-x="402" d="M119 380zM140 480h93l36 164l19 46l-36 -32l-63 -37l-34 73l176 113h81l-70 -327h83l-21 -100h-285z" />
<glyph unicode="&#xba;" horiz-adv-x="399" d="M60 499q0 54 18.5 94t48.5 66.5t66.5 39.5t72.5 13q66 0 100.5 -30.5t34.5 -89.5q0 -57 -17 -98.5t-46 -68.5t-66.5 -40t-77.5 -13q-62 0 -98 34.5t-36 92.5zM170 505q-1 -22 10 -35.5t32 -13.5q33 0 56 34.5t23 88.5q0 49 -43 49q-17 0 -31 -10t-25 -26.5t-17 -39 t-5 -47.5z" />
<glyph unicode="&#xbb;" horiz-adv-x="465" d="M281 268l-200 -230l-62 61l108 127l55 41l-35 39l-62 124l86 59zM465 268l-200 -230l-62 61l108 127l55 41l-35 39l-62 124l86 59z" />
<glyph unicode="&#xbc;" horiz-adv-x="840" d="M121 0zM618 715l85 -50l-430 -679l-86 53zM771 78h-72l-17 -78h-96l17 78h-196l14 67l265 283h87l-55 -261h72zM640 253l18 53h-5l-32 -49l-60 -66l-41 -32l53 8h50zM236 544l20 46l-35 -32l-63 -36l-37 75l178 110h82l-91 -427h-110z" />
<glyph unicode="&#xbd;" horiz-adv-x="862" d="M121 0zM619 715l85 -50l-430 -679l-86 53zM830 327q0 -60 -38 -110t-102 -98l-49 -25v-4l57 11h101l-22 -101h-297l15 71q29 18 67 44t72 55t57.5 59.5t23.5 57.5q0 17 -9.5 27t-35.5 10t-51 -8.5t-44 -19.5l-14 91q37 21 76.5 30.5t73.5 9.5q57 0 88 -26t31 -74z M236 544l20 46l-35 -32l-63 -36l-37 75l178 110h82l-91 -427h-110z" />
<glyph unicode="&#xbe;" horiz-adv-x="864" d="M69 0zM643 715l85 -50l-430 -679l-86 53zM796 78h-72l-17 -78h-96l17 78h-196l14 67l265 283h87l-55 -261h72zM665 253l18 53h-5l-32 -49l-60 -66l-41 -32l53 8h50zM192 368q50 0 70 18.5t20 41.5q0 20 -14.5 30t-62.5 10h-41l8 38l86 81l45 24l-56 -6h-108l21 95h269 l-14 -62l-102 -93l-35 -17v-5l28 3q35 -1 60 -25t24 -64q0 -42 -15.5 -73t-42.5 -51t-64 -30t-80 -10q-36 0 -67.5 6.5t-51.5 17.5l40 90q40 -19 83 -19z" />
<glyph unicode="&#xbf;" horiz-adv-x="430" d="M0 0zM332.008 294.013q-6 -53.9971 -24.499 -92.4941q-18.498 -38.498 -42.9971 -66.9961q-24.498 -28.498 -51.9971 -49.9971q-27.498 -21.499 -49.9961 -41.4971q-22.499 -19.999 -37.498 -40.998q-14.999 -20.998 -14.999 -48.9971q0 -26.998 15.499 -41.9971 t55.4961 -14.999q30.998 0 67.9961 13.499t64.9961 32.498l30.998 -93.9941q-40.9971 -24.999 -88.9941 -42.4971q-47.9971 -17.499 -116.993 -17.499q-83.9951 0 -122.992 35.4971q-38.998 35.498 -38.998 95.4941q0 52.9971 15.999 89.4951t40.998 63.9961 q24.998 27.498 54.9961 48.9971q29.998 21.498 57.4971 45.4971q27.498 23.998 49.4961 53.9971q21.999 29.998 29.999 72.9951h105.993zM377.005 436.004q0 -34.998 -21.999 -55.4961q-21.998 -20.499 -57.9961 -20.499q-36.998 0 -58.9961 20.499 q-21.999 20.498 -21.999 55.4961t21.999 55.9971q21.998 20.998 58.9961 20.998q35.998 0 57.9961 -20.998q21.999 -20.999 21.999 -55.9971z" />
<glyph unicode="&#xc0;" horiz-adv-x="582" d="M0 0zM387 155h-204l-83 -155h-138l389 705h96l91 -705h-131zM240 265h142l-16 156l1 110h-5l-40 -111zM492 752h-90l-131 88l6 30h140z" />
<glyph unicode="&#xc1;" horiz-adv-x="582" d="M0 0zM387 155h-204l-83 -155h-138l389 705h96l91 -705h-131zM240 265h142l-16 156l1 110h-5l-40 -111zM441 870h157l-6 -30l-172 -88h-104z" />
<glyph unicode="&#xc2;" horiz-adv-x="582" d="M0 0zM387 155h-204l-83 -155h-138l389 705h96l91 -705h-131zM240 265h142l-16 156l1 110h-5l-40 -111zM389 870h87l101 -93l-8 -39h-88l-45 41l-13 34l-27 -33l-67 -42h-94l9 40z" />
<glyph unicode="&#xc3;" horiz-adv-x="582" d="M0 0zM387 155h-204l-83 -155h-138l389 705h96l91 -705h-131zM240 265h142l-16 156l1 110h-5l-40 -111zM241 800q38 35 69 48t58 13q21 0 40.5 -5.5t38 -12t36 -12t35.5 -5.5q15 0 30 5t31 19l10 -67q-33 -27 -60 -37t-51 -10q-21 0 -39.5 5.5t-36.5 11.5t-35.5 11.5 t-36.5 5.5q-18 0 -37.5 -7t-42.5 -26z" />
<glyph unicode="&#xc4;" horiz-adv-x="582" d="M0 0zM387 155h-204l-83 -155h-138l389 705h96l91 -705h-131zM240 265h142l-16 156l1 110h-5l-40 -111zM246 798q0 29 20 43.5t52 14.5t52 -14.5t20 -43.5t-20 -43t-52 -14t-52 14t-20 43zM450 798q0 29 20 43.5t52 14.5t52 -14.5t20 -43.5t-20 -43t-52 -14t-52 14t-20 43 z" />
<glyph unicode="&#xc5;" horiz-adv-x="582" d="M286 771q0 18 6 34.5t20.5 29t39 19.5t62.5 7q70 0 99 -24t29 -66q0 -32 -20.5 -55.5t-72.5 -29.5l89 -686h-131l-20 155h-204l-83 -155h-138l382 693q-32 11 -45 31t-13 47zM382 265l-16 156l1 110h-5l-40 -111l-82 -155h142zM370 771q0 -31 44 -31q25 0 35 8t10 23 q0 33 -45 33q-44 0 -44 -33z" />
<glyph unicode="&#xc6;" horiz-adv-x="826" d="M449 530l-44 -94l-116 -155h114l52 249h-6zM379 170h-171l-128 -170h-146l547 700h133h271l-26 -122h-264l-35 -163h241l-26 -122h-240l-36 -171h269l-26 -122h-261h-138z" />
<glyph unicode="&#xc7;" horiz-adv-x="537" d="M483 29q-65 -42 -157 -43l-22 -29q34 -2 52 -20.5t18 -47.5q0 -26 -11.5 -45t-31 -31.5t-46 -18.5t-56.5 -6q-38 0 -77 9l20 48q51 -5 70 6t19 25q0 17 -20 23.5t-58 5.5l69 88q-49 10 -85.5 35.5t-60.5 62.5t-36 83t-12 98q0 118 33 201.5t87 137t123.5 78.5t142.5 25 q57 0 97.5 -8.5t63.5 -19.5l-51 -116q-20 11 -48 16.5t-71 5.5q-51 0 -95 -21t-76 -60t-50.5 -95t-18.5 -127q0 -85 42.5 -133t113.5 -48q45 0 74.5 9.5t55.5 23.5z" />
<glyph unicode="&#xc8;" horiz-adv-x="503" d="M20 0zM168 700h130h264l-26 -122h-264l-35 -163h241l-27 -122h-239l-37 -171h269l-25 -122h-269h-130zM453 752h-90l-131 88l6 30h140z" />
<glyph unicode="&#xc9;" horiz-adv-x="503" d="M20 0zM168 700h130h264l-26 -122h-264l-35 -163h241l-27 -122h-239l-37 -171h269l-25 -122h-269h-130zM424 870h157l-6 -30l-172 -88h-104z" />
<glyph unicode="&#xca;" horiz-adv-x="503" d="M20 0zM168 700h130h264l-26 -122h-264l-35 -163h241l-27 -122h-239l-37 -171h269l-25 -122h-269h-130zM360 870h87l101 -93l-8 -39h-88l-45 41l-13 34l-27 -33l-67 -42h-94l9 40z" />
<glyph unicode="&#xcb;" horiz-adv-x="503" d="M20 0zM168 700h130h264l-26 -122h-264l-35 -163h241l-27 -122h-239l-37 -171h269l-25 -122h-269h-130zM210 798q0 29 20 43.5t52 14.5t52 -14.5t20 -43.5t-20 -43t-52 -14t-52 14t-20 43zM414 798q0 29 20 43.5t52 14.5t52 -14.5t20 -43.5t-20 -43t-52 -14t-52 14t-20 43 z" />
<glyph unicode="&#xcc;" horiz-adv-x="278" d="M35 0zM183 700h129l-148 -700h-129zM334 752h-90l-131 88l6 30h140z" />
<glyph unicode="&#xcd;" horiz-adv-x="278" d="M35 0zM183 700h129l-148 -700h-129zM304 870h157l-6 -30l-172 -88h-104z" />
<glyph unicode="&#xce;" horiz-adv-x="278" d="M35 0zM183 700h129l-148 -700h-129zM241 870h87l101 -93l-8 -39h-88l-45 41l-13 34l-27 -33l-67 -42h-94l9 40z" />
<glyph unicode="&#xcf;" horiz-adv-x="278" d="M35 0zM183 700h129l-148 -700h-129zM92 798q0 29 20 43.5t52 14.5t52 -14.5t20 -43.5t-20 -43t-52 -14t-52 14t-20 43zM296 798q0 29 20 43.5t52 14.5t52 -14.5t20 -43.5t-20 -43t-52 -14t-52 14t-20 43z" />
<glyph unicode="&#xd0;" horiz-adv-x="640" d="M40 401h85l63 299q21 3 46 5t47.5 3t36.5 1q10 0 26 0.5t35 0.5q62 0 112 -15.5t85.5 -47.5t55 -82t19.5 -119q0 -44 -7.5 -94.5t-25.5 -101.5t-49.5 -98t-79 -83t-114 -58t-154.5 -22q-15 0 -29 0.5t-22 0.5q-18 1 -43.5 2.5t-50 3t-36.5 3.5l68 322h-85zM254 401h132 l-17 -80h-132l-43 -206q4 -1 12.5 -1.5t18.5 -1t19 -0.5h14q70 -1 119 30.5t79.5 79t44 103t13.5 103.5q0 80 -33.5 120t-112.5 40q-19 0 -41 -1t-34 -3z" />
<glyph unicode="&#xd1;" horiz-adv-x="631" d="M20 0zM267 366l-33 112h-5l-9 -112l-77 -366h-123l150 705h90l172 -374l31 -109h6l7 109l79 369h123l-150 -705h-90zM259 800q38 35 69 48t58 13q21 0 40.5 -5.5t38 -12t36 -12t35.5 -5.5q15 0 30 5t31 19l10 -67q-33 -27 -60 -37t-51 -10q-21 0 -39.5 5.5t-36.5 11.5 t-35.5 11.5t-36.5 5.5q-18 0 -37.5 -7t-42.5 -26z" />
<glyph unicode="&#xd2;" horiz-adv-x="644" d="M58 0zM58 262q0 93 25.5 175.5t72.5 144t113.5 97t148.5 35.5q54 0 97.5 -16t74 -49.5t47.5 -84.5t17 -121q0 -94 -25.5 -177t-72 -145.5t-111 -98.5t-142.5 -36q-118 0 -181 69.5t-64 206.5zM195 266q0 -72 27.5 -115t90.5 -43q46 0 83.5 27.5t64.5 74t41.5 106.5 t14.5 125q0 79 -31 115t-85 36q-45 0 -82.5 -26t-65 -70.5t-43 -104t-15.5 -125.5zM511 752h-90l-131 88l6 30h140z" />
<glyph unicode="&#xd3;" horiz-adv-x="644" d="M58 0zM58 262q0 93 25.5 175.5t72.5 144t113.5 97t148.5 35.5q54 0 97.5 -16t74 -49.5t47.5 -84.5t17 -121q0 -94 -25.5 -177t-72 -145.5t-111 -98.5t-142.5 -36q-118 0 -181 69.5t-64 206.5zM195 266q0 -72 27.5 -115t90.5 -43q46 0 83.5 27.5t64.5 74t41.5 106.5 t14.5 125q0 79 -31 115t-85 36q-45 0 -82.5 -26t-65 -70.5t-43 -104t-15.5 -125.5zM491 870h157l-6 -30l-172 -88h-104z" />
<glyph unicode="&#xd4;" horiz-adv-x="644" d="M58 0zM58 262q0 93 25.5 175.5t72.5 144t113.5 97t148.5 35.5q54 0 97.5 -16t74 -49.5t47.5 -84.5t17 -121q0 -94 -25.5 -177t-72 -145.5t-111 -98.5t-142.5 -36q-118 0 -181 69.5t-64 206.5zM195 266q0 -72 27.5 -115t90.5 -43q46 0 83.5 27.5t64.5 74t41.5 106.5 t14.5 125q0 79 -31 115t-85 36q-45 0 -82.5 -26t-65 -70.5t-43 -104t-15.5 -125.5zM424 870h87l101 -93l-8 -39h-88l-45 41l-13 34l-27 -33l-67 -42h-94l9 40z" />
<glyph unicode="&#xd5;" horiz-adv-x="644" d="M58 0zM58 262q0 93 25.5 175.5t72.5 144t113.5 97t148.5 35.5q54 0 97.5 -16t74 -49.5t47.5 -84.5t17 -121q0 -94 -25.5 -177t-72 -145.5t-111 -98.5t-142.5 -36q-118 0 -181 69.5t-64 206.5zM195 266q0 -72 27.5 -115t90.5 -43q46 0 83.5 27.5t64.5 74t41.5 106.5 t14.5 125q0 79 -31 115t-85 36q-45 0 -82.5 -26t-65 -70.5t-43 -104t-15.5 -125.5zM268 800q38 35 69 48t58 13q21 0 40.5 -5.5t38 -12t36 -12t35.5 -5.5q15 0 30 5t31 19l10 -67q-33 -27 -60 -37t-51 -10q-21 0 -39.5 5.5t-36.5 11.5t-35.5 11.5t-36.5 5.5q-18 0 -37.5 -7 t-42.5 -26z" />
<glyph unicode="&#xd6;" horiz-adv-x="644" d="M58 0zM58 262q0 93 25.5 175.5t72.5 144t113.5 97t148.5 35.5q54 0 97.5 -16t74 -49.5t47.5 -84.5t17 -121q0 -94 -25.5 -177t-72 -145.5t-111 -98.5t-142.5 -36q-118 0 -181 69.5t-64 206.5zM195 266q0 -72 27.5 -115t90.5 -43q46 0 83.5 27.5t64.5 74t41.5 106.5 t14.5 125q0 79 -31 115t-85 36q-45 0 -82.5 -26t-65 -70.5t-43 -104t-15.5 -125.5zM270 798q0 29 20 43.5t52 14.5t52 -14.5t20 -43.5t-20 -43t-52 -14t-52 14t-20 43zM474 798q0 29 20 43.5t52 14.5t52 -14.5t20 -43.5t-20 -43t-52 -14t-52 14t-20 43z" />
<glyph unicode="&#xd7;" horiz-adv-x="505" d="M146 547l131 -130l130 130l79 -81l-130 -127l130 -129l-79 -82l-130 131l-132 -132l-79 81l131 131l-129 127z" />
<glyph unicode="&#xd8;" horiz-adv-x="644" d="M58 262q0 93 25.5 175.5t72.5 144t113.5 97t148.5 35.5q86 0 142 -40l27 32l72 -62l-37 -45q15 -30 23.5 -69t8.5 -87q0 -94 -25.5 -177t-72 -145.5t-111 -98.5t-142.5 -36q-90 0 -149 41l-27 -32l-70 64l34 42q-16 32 -24.5 72t-8.5 89zM474 568q-29 24 -73 24 q-45 0 -82.5 -26t-65 -70.5t-43 -104t-15.5 -125.5v-19t2 -18zM239 132q28 -24 74 -24t83.5 27.5t64.5 74t41.5 106.5t14.5 125v14.5t-1 13.5z" />
<glyph unicode="&#xd9;" horiz-adv-x="602" d="M63 0zM531 700h122l-95 -452q-15 -72 -39 -121.5t-58 -80.5t-80 -44.5t-106 -13.5q-58 0 -98 13.5t-65.5 38.5t-37 59t-11.5 75q0 20 2.5 41t7.5 44l94 441h129l-92 -440q-8 -38 -8 -62q0 -48 25 -68t73 -20q60 0 93 35t50 113zM490 752h-90l-131 88l6 30h140z" />
<glyph unicode="&#xda;" horiz-adv-x="602" d="M63 0zM531 700h122l-95 -452q-15 -72 -39 -121.5t-58 -80.5t-80 -44.5t-106 -13.5q-58 0 -98 13.5t-65.5 38.5t-37 59t-11.5 75q0 20 2.5 41t7.5 44l94 441h129l-92 -440q-8 -38 -8 -62q0 -48 25 -68t73 -20q60 0 93 35t50 113zM487 870h157l-6 -30l-172 -88h-104z" />
<glyph unicode="&#xdb;" horiz-adv-x="602" d="M63 0zM531 700h122l-95 -452q-15 -72 -39 -121.5t-58 -80.5t-80 -44.5t-106 -13.5q-58 0 -98 13.5t-65.5 38.5t-37 59t-11.5 75q0 20 2.5 41t7.5 44l94 441h129l-92 -440q-8 -38 -8 -62q0 -48 25 -68t73 -20q60 0 93 35t50 113zM410 870h87l101 -93l-8 -39h-88l-45 41 l-13 34l-27 -33l-67 -42h-94l9 40z" />
<glyph unicode="&#xdc;" horiz-adv-x="602" d="M63 0zM531 700h122l-95 -452q-15 -72 -39 -121.5t-58 -80.5t-80 -44.5t-106 -13.5q-58 0 -98 13.5t-65.5 38.5t-37 59t-11.5 75q0 20 2.5 41t7.5 44l94 441h129l-92 -440q-8 -38 -8 -62q0 -48 25 -68t73 -20q60 0 93 35t50 113zM256 798q0 29 20 43.5t52 14.5t52 -14.5 t20 -43.5t-20 -43t-52 -14t-52 14t-20 43zM460 798q0 29 20 43.5t52 14.5t52 -14.5t20 -43.5t-20 -43t-52 -14t-52 14t-20 43z" />
<glyph unicode="&#xdd;" horiz-adv-x="569" d="M106 0zM231 260l-125 440h144l65 -263l-2 -74h4l31 76l175 261h149l-311 -439l-55 -261h-129zM451 870h157l-6 -30l-172 -88h-104z" />
<glyph unicode="&#xde;" horiz-adv-x="550" d="M169 700h129l-15 -71q13 1 26 1h26q51 0 94.5 -11.5t76 -35.5t50.5 -61.5t18 -89.5q0 -78 -27 -130.5t-71.5 -85t-101.5 -46t-116 -13.5h-15.5t-22 0.5t-22 1t-15.5 1.5l-33 -160h-130zM257 506q-12 -57 -24 -113t-24 -113q4 -1 11 -2t15.5 -1.5t16 -1t11.5 -0.5 q34 0 65.5 7t55.5 23.5t38.5 43.5t14.5 66q0 30 -9.5 48.5t-25.5 29t-37.5 14.5t-45.5 4q-18 0 -34.5 -1.5t-27.5 -3.5z" />
<glyph unicode="&#xdf;" horiz-adv-x="608" d="M153 528q12 57 35 92t55 54.5t72 26.5t87 7q51 0 86 -11t57 -29.5t32 -43t10 -52.5q0 -35 -11.5 -60t-28.5 -43t-37.5 -31t-37.5 -25t-28.5 -25t-11.5 -30t11.5 -28t28.5 -20t37.5 -19t37.5 -25.5t28.5 -39t11.5 -59.5q0 -39 -17.5 -72.5t-48 -57.5t-72 -37.5 t-89.5 -13.5q-41 0 -81 11.5t-65 28.5l56 97q21 -13 44.5 -23t57.5 -10q15 0 30 5t27 14t19.5 22.5t7.5 30.5q0 19 -11.5 31.5t-29 22.5t-38 20.5t-38 25t-29 35.5t-11.5 53q0 29 11.5 50.5t29 37.5t37.5 28.5t37.5 24.5t29 25.5t11.5 31.5q0 23 -18 37t-52 14 q-48 0 -77 -26t-40 -85l-89 -488q-9 -51 -21 -90t-32.5 -65t-50.5 -39.5t-74 -13.5q-36 0 -70.5 5.5t-59.5 22.5l34 91q17 -7 34 -9t43 -2q32 0 49.5 25t25.5 75l71 398h-82l20 102h81l6 28v0z" />
<glyph unicode="&#xe0;" horiz-adv-x="503" d="M33 0zM444 200q-8 -38 -11.5 -77t-3.5 -74q0 -14 0.5 -26.5t1.5 -23.5h-91l-14 86h-4q-11 -18 -28.5 -35.5t-38.5 -32t-44.5 -23t-48.5 -8.5q-66 0 -97.5 43t-31.5 115q0 73 18.5 140t57.5 118t98.5 81.5t141.5 30.5q35 0 76.5 -6.5t80.5 -17.5zM209 89q18 0 34 7.5 t29.5 19.5t24 26t18.5 26l50 233q-11 5 -25.5 7.5t-28.5 2.5q-36 0 -64 -21.5t-47.5 -56t-29.5 -78t-10 -87.5q0 -32 10.5 -55.5t38.5 -23.5zM388 566h-69l-91 124l7 30h129z" />
<glyph unicode="&#xe1;" horiz-adv-x="503" d="M33 0zM444 200q-8 -38 -11.5 -77t-3.5 -74q0 -14 0.5 -26.5t1.5 -23.5h-91l-14 86h-4q-11 -18 -28.5 -35.5t-38.5 -32t-44.5 -23t-48.5 -8.5q-66 0 -97.5 43t-31.5 115q0 73 18.5 140t57.5 118t98.5 81.5t141.5 30.5q35 0 76.5 -6.5t80.5 -17.5zM209 89q18 0 34 7.5 t29.5 19.5t24 26t18.5 26l50 233q-11 5 -25.5 7.5t-28.5 2.5q-36 0 -64 -21.5t-47.5 -56t-29.5 -78t-10 -87.5q0 -32 10.5 -55.5t38.5 -23.5zM382 720h125l-6 -30l-133 -124h-69z" />
<glyph unicode="&#xe2;" horiz-adv-x="503" d="M33 0zM444 200q-8 -38 -11.5 -77t-3.5 -74q0 -14 0.5 -26.5t1.5 -23.5h-91l-14 86h-4q-11 -18 -28.5 -35.5t-38.5 -32t-44.5 -23t-48.5 -8.5q-66 0 -97.5 43t-31.5 115q0 73 18.5 140t57.5 118t98.5 81.5t141.5 30.5q35 0 76.5 -6.5t80.5 -17.5zM209 89q18 0 34 7.5 t29.5 19.5t24 26t18.5 26l50 233q-11 5 -25.5 7.5t-28.5 2.5q-36 0 -64 -21.5t-47.5 -56t-29.5 -78t-10 -87.5q0 -32 10.5 -55.5t38.5 -23.5zM346 732h82l67 -182h-96l-24 66l-4 49l-27 -49l-57 -66h-97z" />
<glyph unicode="&#xe3;" horiz-adv-x="503" d="M33 0zM444 200q-8 -38 -11.5 -77t-3.5 -74q0 -14 0.5 -26.5t1.5 -23.5h-91l-14 86h-4q-11 -18 -28.5 -35.5t-38.5 -32t-44.5 -23t-48.5 -8.5q-66 0 -97.5 43t-31.5 115q0 73 18.5 140t57.5 118t98.5 81.5t141.5 30.5q35 0 76.5 -6.5t80.5 -17.5zM209 89q18 0 34 7.5 t29.5 19.5t24 26t18.5 26l50 233q-11 5 -25.5 7.5t-28.5 2.5q-36 0 -64 -21.5t-47.5 -56t-29.5 -78t-10 -87.5q0 -32 10.5 -55.5t38.5 -23.5zM197 658q35 37 61.5 51t48.5 14q18 0 33.5 -7t31 -15t31 -15t33.5 -7q14 0 30.5 6t36.5 21l4 -70q-32 -32 -57 -44.5t-46 -12.5 q-18 0 -34 6.5t-32 14.5t-32 14.5t-34 6.5q-15 0 -33 -6t-38 -22z" />
<glyph unicode="&#xe4;" horiz-adv-x="503" d="M33 0zM444 200q-8 -38 -11.5 -77t-3.5 -74q0 -14 0.5 -26.5t1.5 -23.5h-91l-14 86h-4q-11 -18 -28.5 -35.5t-38.5 -32t-44.5 -23t-48.5 -8.5q-66 0 -97.5 43t-31.5 115q0 73 18.5 140t57.5 118t98.5 81.5t141.5 30.5q35 0 76.5 -6.5t80.5 -17.5zM209 89q18 0 34 7.5 t29.5 19.5t24 26t18.5 26l50 233q-11 5 -25.5 7.5t-28.5 2.5q-36 0 -64 -21.5t-47.5 -56t-29.5 -78t-10 -87.5q0 -32 10.5 -55.5t38.5 -23.5zM171 651q0 33 18.5 51.5t47.5 18.5t47.5 -18.5t18.5 -51.5q0 -32 -18.5 -50t-47.5 -18t-47.5 18t-18.5 50zM379 652 q0 32 18.5 50.5t47.5 18.5t47.5 -18.5t18.5 -50.5t-18.5 -50.5t-47.5 -18.5t-47.5 18.5t-18.5 50.5z" />
<glyph unicode="&#xe5;" horiz-adv-x="503" d="M33 0zM444 200q-8 -38 -11.5 -77t-3.5 -74q0 -14 0.5 -26.5t1.5 -23.5h-91l-14 86h-4q-11 -18 -28.5 -35.5t-38.5 -32t-44.5 -23t-48.5 -8.5q-66 0 -97.5 43t-31.5 115q0 73 18.5 140t57.5 118t98.5 81.5t141.5 30.5q35 0 76.5 -6.5t80.5 -17.5zM209 89q18 0 34 7.5 t29.5 19.5t24 26t18.5 26l50 233q-11 5 -25.5 7.5t-28.5 2.5q-36 0 -64 -21.5t-47.5 -56t-29.5 -78t-10 -87.5q0 -32 10.5 -55.5t38.5 -23.5zM255 647q0 42 28.5 69t82.5 27q51 0 81 -24.5t30 -71.5q0 -39 -29.5 -66.5t-81.5 -27.5q-53 0 -82 25.5t-29 68.5zM327 647 q0 -16 11.5 -24.5t27.5 -8.5q17 0 28 8t11 25t-11.5 25.5t-27.5 8.5t-27.5 -8t-11.5 -26z" />
<glyph unicode="&#xe6;" horiz-adv-x="744" d="M312 223q-8 1 -16.5 1h-16.5q-57 0 -96 -18.5t-39 -57.5q0 -27 14 -39t37 -12q18 0 34.5 7.5t30.5 18t25 22t18 20.5zM315 77q-32 -36 -74 -60.5t-99 -24.5q-33 0 -56.5 10.5t-38.5 28t-22.5 40.5t-7.5 47q0 49 22 84t60 57t88 32.5t107 10.5h16.5t16.5 -1q11 38 11 59 q0 24 -15 35.5t-51 11.5q-33 0 -70 -8t-69 -21l-18 93q41 20 94.5 29.5t103.5 9.5q46 0 78 -14.5t45 -45.5q29 31 72.5 47.5t88.5 16.5q42 0 71.5 -9.5t48 -26.5t27 -39.5t8.5 -49.5q0 -56 -26.5 -90t-71.5 -53.5t-104 -26.5t-123 -7q-1 -8 -1.5 -15.5t-0.5 -14.5 q0 -45 23 -69t76 -24q38 0 71.5 10.5t53.5 22.5l23 -86q-34 -24 -85.5 -37t-102.5 -13q-66 0 -106.5 24t-57.5 67h-5zM447 292q32 0 65 1.5t60 9t44 23t17 42.5q0 17 -12 31.5t-45 14.5q-53 0 -83.5 -35.5t-45.5 -86.5z" />
<glyph unicode="&#xe7;" horiz-adv-x="412" d="M370 41q-26 -19 -58 -33t-66 -19l-24 -32q34 -2 52 -20.5t18 -47.5q0 -26 -11.5 -45t-31 -31.5t-46 -18.5t-56.5 -6q-38 0 -77 9l20 48q51 -5 70 6t19 25q0 17 -20 23.5t-58 5.5l66 85q-36 6 -61 21.5t-41 38t-23.5 50.5t-7.5 58q0 84 24 150t63.5 111.5t90 70 t103.5 24.5q47 0 74.5 -9t49.5 -20l-46 -98q-19 11 -39.5 15t-44.5 4q-27 0 -52.5 -17.5t-46 -46t-32.5 -66.5t-12 -78q0 -51 22 -77.5t58 -26.5q30 0 55.5 9.5t45.5 21.5z" />
<glyph unicode="&#xe8;" horiz-adv-x="466" d="M34 0zM402 48q-31 -26 -80 -44t-114 -18q-81 0 -127.5 47.5t-46.5 132.5q0 80 25 144.5t65.5 109.5t91.5 69.5t102 24.5q41 0 70.5 -10.5t48.5 -29t28 -42.5t9 -51q0 -41 -21 -72t-58.5 -51.5t-90.5 -31t-116 -10.5q-8 0 -15 0.5t-15 0.5q-2 -12 -3 -21.5t-1 -17.5 q0 -45 23.5 -67t66.5 -22q44 0 79 13t53 26zM176 295q28 0 59.5 2t58.5 9.5t45 22t18 39.5q0 15 -11 30.5t-46 15.5q-44 0 -76.5 -34t-47.5 -85zM368 566h-69l-91 124l7 30h129z" />
<glyph unicode="&#xe9;" horiz-adv-x="466" d="M34 0zM402 48q-31 -26 -80 -44t-114 -18q-81 0 -127.5 47.5t-46.5 132.5q0 80 25 144.5t65.5 109.5t91.5 69.5t102 24.5q41 0 70.5 -10.5t48.5 -29t28 -42.5t9 -51q0 -41 -21 -72t-58.5 -51.5t-90.5 -31t-116 -10.5q-8 0 -15 0.5t-15 0.5q-2 -12 -3 -21.5t-1 -17.5 q0 -45 23.5 -67t66.5 -22q44 0 79 13t53 26zM176 295q28 0 59.5 2t58.5 9.5t45 22t18 39.5q0 15 -11 30.5t-46 15.5q-44 0 -76.5 -34t-47.5 -85zM366 720h125l-6 -30l-133 -124h-69z" />
<glyph unicode="&#xea;" horiz-adv-x="466" d="M34 0zM402 48q-31 -26 -80 -44t-114 -18q-81 0 -127.5 47.5t-46.5 132.5q0 80 25 144.5t65.5 109.5t91.5 69.5t102 24.5q41 0 70.5 -10.5t48.5 -29t28 -42.5t9 -51q0 -41 -21 -72t-58.5 -51.5t-90.5 -31t-116 -10.5q-8 0 -15 0.5t-15 0.5q-2 -12 -3 -21.5t-1 -17.5 q0 -45 23.5 -67t66.5 -22q44 0 79 13t53 26zM176 295q28 0 59.5 2t58.5 9.5t45 22t18 39.5q0 15 -11 30.5t-46 15.5q-44 0 -76.5 -34t-47.5 -85zM323 732h82l67 -182h-96l-24 66l-4 49l-27 -49l-57 -66h-97z" />
<glyph unicode="&#xeb;" horiz-adv-x="466" d="M34 0zM402 48q-31 -26 -80 -44t-114 -18q-81 0 -127.5 47.5t-46.5 132.5q0 80 25 144.5t65.5 109.5t91.5 69.5t102 24.5q41 0 70.5 -10.5t48.5 -29t28 -42.5t9 -51q0 -41 -21 -72t-58.5 -51.5t-90.5 -31t-116 -10.5q-8 0 -15 0.5t-15 0.5q-2 -12 -3 -21.5t-1 -17.5 q0 -45 23.5 -67t66.5 -22q44 0 79 13t53 26zM176 295q28 0 59.5 2t58.5 9.5t45 22t18 39.5q0 15 -11 30.5t-46 15.5q-44 0 -76.5 -34t-47.5 -85zM164 651q0 33 18.5 51.5t47.5 18.5t47.5 -18.5t18.5 -51.5q0 -32 -18.5 -50t-47.5 -18t-47.5 18t-18.5 50zM372 652 q0 32 18.5 50.5t47.5 18.5t47.5 -18.5t18.5 -50.5t-18.5 -50.5t-47.5 -18.5t-47.5 18.5t-18.5 50.5z" />
<glyph unicode="&#xec;" horiz-adv-x="256" d="M27 0zM133 500h123l-106 -500h-123zM265 566h-69l-91 124l7 30h129z" />
<glyph unicode="&#xed;" horiz-adv-x="256" d="M27 0zM133 500h123l-106 -500h-123zM238 720h125l-6 -30l-133 -124h-69z" />
<glyph unicode="&#xee;" horiz-adv-x="256" d="M27 0zM133 500h123l-106 -500h-123zM204 732h82l67 -182h-96l-24 66l-4 49l-27 -49l-57 -66h-97z" />
<glyph unicode="&#xef;" horiz-adv-x="256" d="M27 0zM133 500h123l-106 -500h-123zM55 651q0 33 18.5 51.5t47.5 18.5t47.5 -18.5t18.5 -51.5q0 -32 -18.5 -50t-47.5 -18t-47.5 18t-18.5 50zM263 652q0 32 18.5 50.5t47.5 18.5t47.5 -18.5t18.5 -50.5t-18.5 -50.5t-47.5 -18.5t-47.5 18.5t-18.5 50.5z" />
<glyph unicode="&#xf0;" horiz-adv-x="508" d="M262 592l70 29q-18 18 -39.5 31t-44.5 21l97 41q45 -17 82 -54l73 30l28 -54l-64 -27q17 -31 27 -69t10 -83q0 -123 -23.5 -212t-63.5 -146.5t-92.5 -85t-110.5 -27.5q-80 0 -127 47.5t-47 138.5q0 70 20.5 130t55 104t80 68.5t96.5 24.5q69 0 101 -38q2 32 -4 58.5 t-17 49.5l-75 -31zM164 177q0 -42 16.5 -65t45.5 -23q39 0 66.5 28t44.5 68.5t25 86.5t7 81q-8 20 -26.5 32t-44.5 12q-30 0 -54.5 -19t-42 -50t-27.5 -70.5t-10 -80.5z" />
<glyph unicode="&#xf1;" horiz-adv-x="521" d="M14 0zM295 0l66 310q6 28 6 49q0 22 -9 34.5t-33 12.5q-18 0 -36 -9t-34 -24t-30 -33.5t-24 -37.5l-64 -302h-123l106 500h93l-5 -88h4q13 16 30.5 34t40.5 33t51.5 25t64.5 10q45 0 72 -24.5t27 -81.5q0 -15 -1.5 -32t-6.5 -37l-72 -339h-123zM203 658q35 37 61.5 51 t48.5 14q18 0 33.5 -7t31 -15t31 -15t33.5 -7q14 0 30.5 6t36.5 21l4 -70q-32 -32 -57 -44.5t-46 -12.5q-18 0 -34 6.5t-32 14.5t-32 14.5t-34 6.5q-15 0 -33 -6t-38 -22z" />
<glyph unicode="&#xf2;" horiz-adv-x="496" d="M34 0zM34 162q0 79 22.5 144t60 111t87 71.5t103.5 25.5q48 0 81 -15t53.5 -40t29.5 -57t9 -66q0 -78 -22 -142.5t-59 -110.5t-86 -71.5t-103 -25.5q-47 0 -80 15.5t-54.5 40.5t-31.5 56.5t-10 63.5zM161 179q0 -90 65 -90q24 0 47 21t41 55t28.5 77t10.5 86 q0 40 -13.5 61.5t-50.5 21.5q-24 0 -47 -20t-41 -52.5t-29 -74.5t-11 -85zM376 566h-69l-91 124l7 30h129z" />
<glyph unicode="&#xf3;" horiz-adv-x="496" d="M34 0zM34 162q0 79 22.5 144t60 111t87 71.5t103.5 25.5q48 0 81 -15t53.5 -40t29.5 -57t9 -66q0 -78 -22 -142.5t-59 -110.5t-86 -71.5t-103 -25.5q-47 0 -80 15.5t-54.5 40.5t-31.5 56.5t-10 63.5zM161 179q0 -90 65 -90q24 0 47 21t41 55t28.5 77t10.5 86 q0 40 -13.5 61.5t-50.5 21.5q-24 0 -47 -20t-41 -52.5t-29 -74.5t-11 -85zM364 720h125l-6 -30l-133 -124h-69z" />
<glyph unicode="&#xf4;" horiz-adv-x="496" d="M34 0zM34 162q0 79 22.5 144t60 111t87 71.5t103.5 25.5q48 0 81 -15t53.5 -40t29.5 -57t9 -66q0 -78 -22 -142.5t-59 -110.5t-86 -71.5t-103 -25.5q-47 0 -80 15.5t-54.5 40.5t-31.5 56.5t-10 63.5zM161 179q0 -90 65 -90q24 0 47 21t41 55t28.5 77t10.5 86 q0 40 -13.5 61.5t-50.5 21.5q-24 0 -47 -20t-41 -52.5t-29 -74.5t-11 -85zM320 732h82l67 -182h-96l-24 66l-4 49l-27 -49l-57 -66h-97z" />
<glyph unicode="&#xf5;" horiz-adv-x="496" d="M34 0zM34 162q0 79 22.5 144t60 111t87 71.5t103.5 25.5q48 0 81 -15t53.5 -40t29.5 -57t9 -66q0 -78 -22 -142.5t-59 -110.5t-86 -71.5t-103 -25.5q-47 0 -80 15.5t-54.5 40.5t-31.5 56.5t-10 63.5zM161 179q0 -90 65 -90q24 0 47 21t41 55t28.5 77t10.5 86 q0 40 -13.5 61.5t-50.5 21.5q-24 0 -47 -20t-41 -52.5t-29 -74.5t-11 -85zM179 658q35 37 61.5 51t48.5 14q18 0 33.5 -7t31 -15t31 -15t33.5 -7q14 0 30.5 6t36.5 21l4 -70q-32 -32 -57 -44.5t-46 -12.5q-18 0 -34 6.5t-32 14.5t-32 14.5t-34 6.5q-15 0 -33 -6t-38 -22z " />
<glyph unicode="&#xf6;" horiz-adv-x="496" d="M34 0zM34 162q0 79 22.5 144t60 111t87 71.5t103.5 25.5q48 0 81 -15t53.5 -40t29.5 -57t9 -66q0 -78 -22 -142.5t-59 -110.5t-86 -71.5t-103 -25.5q-47 0 -80 15.5t-54.5 40.5t-31.5 56.5t-10 63.5zM161 179q0 -90 65 -90q24 0 47 21t41 55t28.5 77t10.5 86 q0 40 -13.5 61.5t-50.5 21.5q-24 0 -47 -20t-41 -52.5t-29 -74.5t-11 -85zM165 651q0 33 18.5 51.5t47.5 18.5t47.5 -18.5t18.5 -51.5q0 -32 -18.5 -50t-47.5 -18t-47.5 18t-18.5 50zM373 652q0 32 18.5 50.5t47.5 18.5t47.5 -18.5t18.5 -50.5t-18.5 -50.5t-47.5 -18.5 t-47.5 18.5t-18.5 50.5z" />
<glyph unicode="&#xf7;" horiz-adv-x="505" d="M58 394h442v-112h-442v112zM198 532q0 35 22 55.5t58 20.5q37 0 59 -20.5t22 -55.5t-22 -56t-59 -21q-36 0 -58 21t-22 56zM198 145q0 35 22 55.5t58 20.5q37 0 59 -20.5t22 -55.5t-22 -56t-59 -21q-36 0 -58 21t-22 56z" />
<glyph unicode="&#xf8;" horiz-adv-x="496" d="M34 162q0 79 22.5 144t60 111t87 71.5t103.5 25.5q32 0 57 -7t44 -19l34 38l64 -59l-42 -47q16 -38 16 -84q0 -78 -22 -142.5t-59 -110.5t-86 -71.5t-103 -25.5q-34 0 -60.5 8.5t-46.5 22.5l-37 -41l-66 60l47 54q-13 33 -13 72zM176 114q16 -25 50 -25q23 0 45 19.5 t39.5 51t29 71.5t13.5 81zM337 392q-16 19 -48 19q-23 0 -45 -18.5t-39.5 -48.5t-29.5 -69t-14 -81z" />
<glyph unicode="&#xf9;" horiz-adv-x="512" d="M39 0zM241 500l-65 -309q-6 -30 -6 -50t8 -31t28 -11q17 0 34.5 8.5t33.5 22t29.5 30t22.5 32.5l64 308h123l-63 -300q-5 -20 -8.5 -47t-6.5 -55.5t-4 -54.5t0 -43h-99l-5 90h-4q-14 -19 -32.5 -37.5t-41 -33.5t-49 -24t-56.5 -9q-47 0 -76 23.5t-29 86.5q0 37 10 81 l69 323h123zM373 566h-69l-91 124l7 30h129z" />
<glyph unicode="&#xfa;" horiz-adv-x="512" d="M39 0zM241 500l-65 -309q-6 -30 -6 -50t8 -31t28 -11q17 0 34.5 8.5t33.5 22t29.5 30t22.5 32.5l64 308h123l-63 -300q-5 -20 -8.5 -47t-6.5 -55.5t-4 -54.5t0 -43h-99l-5 90h-4q-14 -19 -32.5 -37.5t-41 -33.5t-49 -24t-56.5 -9q-47 0 -76 23.5t-29 86.5q0 37 10 81 l69 323h123zM352 720h125l-6 -30l-133 -124h-69z" />
<glyph unicode="&#xfb;" horiz-adv-x="512" d="M39 0zM241 500l-65 -309q-6 -30 -6 -50t8 -31t28 -11q17 0 34.5 8.5t33.5 22t29.5 30t22.5 32.5l64 308h123l-63 -300q-5 -20 -8.5 -47t-6.5 -55.5t-4 -54.5t0 -43h-99l-5 90h-4q-14 -19 -32.5 -37.5t-41 -33.5t-49 -24t-56.5 -9q-47 0 -76 23.5t-29 86.5q0 37 10 81 l69 323h123zM326 732h82l67 -182h-96l-24 66l-4 49l-27 -49l-57 -66h-97z" />
<glyph unicode="&#xfc;" horiz-adv-x="512" d="M39 0zM241 500l-65 -309q-6 -30 -6 -50t8 -31t28 -11q17 0 34.5 8.5t33.5 22t29.5 30t22.5 32.5l64 308h123l-63 -300q-5 -20 -8.5 -47t-6.5 -55.5t-4 -54.5t0 -43h-99l-5 90h-4q-14 -19 -32.5 -37.5t-41 -33.5t-49 -24t-56.5 -9q-47 0 -76 23.5t-29 86.5q0 37 10 81 l69 323h123zM173 651q0 33 18.5 51.5t47.5 18.5t47.5 -18.5t18.5 -51.5q0 -32 -18.5 -50t-47.5 -18t-47.5 18t-18.5 50zM381 652q0 32 18.5 50.5t47.5 18.5t47.5 -18.5t18.5 -50.5t-18.5 -50.5t-47.5 -18.5t-47.5 18.5t-18.5 50.5z" />
<glyph unicode="&#xfd;" horiz-adv-x="452" d="M0 0zM216 219l1 -78h6l27 79l136 280h131l-240 -449q-30 -56 -56.5 -103t-53.5 -81t-56 -53t-62 -19q-44 0 -66 15l33 98q6 -3 12.5 -4t12.5 -1q24 0 49 23t50 74l-94 500h141zM331 720h125l-6 -30l-133 -124h-69z" />
<glyph unicode="&#xfe;" horiz-adv-x="506" d="M165 700h123l-62 -268h4q12 16 27 31t34 26t42 18t52 7q51 0 82 -35t31 -110q0 -85 -22.5 -155.5t-60 -121t-88 -78.5t-105.5 -28q-26 0 -49 5t-34 13l-43 -204h-122zM160 106q25 -17 56 -17t58.5 21t48 56t32.5 81.5t12 97.5q0 29 -11.5 47.5t-34.5 18.5q-18 0 -35 -9 t-32 -22.5t-27 -30.5t-21 -33z" />
<glyph unicode="&#xff;" horiz-adv-x="452" d="M0 0zM216 219l1 -78h6l27 79l136 280h131l-240 -449q-30 -56 -56.5 -103t-53.5 -81t-56 -53t-62 -19q-44 0 -66 15l33 98q6 -3 12.5 -4t12.5 -1q24 0 49 23t50 74l-94 500h141zM131 651q0 33 18.5 51.5t47.5 18.5t47.5 -18.5t18.5 -51.5q0 -32 -18.5 -50t-47.5 -18 t-47.5 18t-18.5 50zM339 652q0 32 18.5 50.5t47.5 18.5t47.5 -18.5t18.5 -50.5t-18.5 -50.5t-47.5 -18.5t-47.5 18.5t-18.5 50.5z" />
<glyph unicode="&#x100;" horiz-adv-x="582" d="M0 0zM387 155h-204l-83 -155h-138l389 705h96l91 -705h-131zM240 265h142l-16 156l1 110h-5l-40 -111zM262 856h327l-19 -89h-326z" />
<glyph unicode="&#x101;" horiz-adv-x="503" d="M33 0zM444 200q-8 -38 -11.5 -77t-3.5 -74q0 -14 0.5 -26.5t1.5 -23.5h-91l-14 86h-4q-11 -18 -28.5 -35.5t-38.5 -32t-44.5 -23t-48.5 -8.5q-66 0 -97.5 43t-31.5 115q0 73 18.5 140t57.5 118t98.5 81.5t141.5 30.5q35 0 76.5 -6.5t80.5 -17.5zM209 89q18 0 34 7.5 t29.5 19.5t24 26t18.5 26l50 233q-11 5 -25.5 7.5t-28.5 2.5q-36 0 -64 -21.5t-47.5 -56t-29.5 -78t-10 -87.5q0 -32 10.5 -55.5t38.5 -23.5zM201 658h308l-19 -92h-308z" />
<glyph unicode="&#x102;" horiz-adv-x="582" d="M0 0zM387 155h-204l-83 -155h-138l389 705h96l91 -705h-131zM240 265h142l-16 156l1 110h-5l-40 -111zM296 875q18 -26 44 -40t65 -14q55 0 92 15t65 39l49 -32q-17 -30 -40 -51.5t-50 -35t-57.5 -20t-61.5 -6.5q-26 0 -50.5 7.5t-45 22t-36 34.5t-22.5 44z" />
<glyph unicode="&#x103;" horiz-adv-x="503" d="M33 0zM444 200q-8 -38 -11.5 -77t-3.5 -74q0 -14 0.5 -26.5t1.5 -23.5h-91l-14 86h-4q-11 -18 -28.5 -35.5t-38.5 -32t-44.5 -23t-48.5 -8.5q-66 0 -97.5 43t-31.5 115q0 73 18.5 140t57.5 118t98.5 81.5t141.5 30.5q35 0 76.5 -6.5t80.5 -17.5zM209 89q18 0 34 7.5 t29.5 19.5t24 26t18.5 26l50 233q-11 5 -25.5 7.5t-28.5 2.5q-36 0 -64 -21.5t-47.5 -56t-29.5 -78t-10 -87.5q0 -32 10.5 -55.5t38.5 -23.5zM275 720q21 -59 84 -59q39 0 70.5 15.5t52.5 43.5l51 -27q-8 -24 -25.5 -47.5t-42 -41.5t-55.5 -29t-64 -11q-62 0 -99 33.5 t-39 90.5z" />
<glyph unicode="&#x104;" horiz-adv-x="582" d="M387 155h-204l-83 -155h-138l389 705h96l91 -705h-21q-32 -12 -53.5 -31.5t-21.5 -48.5q0 -34 38 -34q14 0 38 8l5 -62q-18 -13 -49.5 -23t-64.5 -10q-48 0 -71.5 22t-23.5 56q0 24 9 43.5t24 34.5t34.5 26t40.5 19h-15zM240 265h142l-16 156l1 110h-5l-40 -111z" />
<glyph unicode="&#x105;" horiz-adv-x="503" d="M444 200q-8 -38 -11.5 -77t-3.5 -74q0 -14 0.5 -26.5t1.5 -23.5h-21q-31 -12 -52 -31t-21 -50q0 -34 37 -34q16 0 39 9l6 -61q-19 -13 -50.5 -23.5t-64.5 -10.5q-48 0 -71.5 22t-23.5 56q0 26 11 47t29.5 37t42 27t47.5 18l-13 80h-4q-11 -18 -28.5 -35.5t-38.5 -32 t-44.5 -23t-48.5 -8.5q-66 0 -97.5 43t-31.5 115q0 73 18.5 140t57.5 118t98.5 81.5t141.5 30.5q35 0 76.5 -6.5t80.5 -17.5zM365 401q-11 5 -25.5 7.5t-28.5 2.5q-36 0 -64 -21.5t-47.5 -56t-29.5 -78t-10 -87.5q0 -32 10.5 -55.5t38.5 -23.5q18 0 34 7.5t29.5 19.5t24 26 t18.5 26z" />
<glyph unicode="&#x106;" horiz-adv-x="537" d="M58 0zM483 29q-67 -43 -164 -43q-66 0 -115 22t-81.5 61t-48.5 91t-16 112q0 118 33 201.5t87 137t123.5 78.5t142.5 25q57 0 97.5 -8.5t63.5 -19.5l-51 -116q-20 11 -48 16.5t-71 5.5q-51 0 -95 -21t-76 -60t-50.5 -95t-18.5 -127q0 -85 42.5 -133t113.5 -48 q45 0 74.5 9.5t55.5 23.5zM498 870h157l-6 -30l-172 -88h-104z" />
<glyph unicode="&#x107;" horiz-adv-x="412" d="M34 0zM393 387q-19 11 -39.5 15t-44.5 4q-27 0 -52.5 -17.5t-46 -46t-32.5 -66.5t-12 -78q0 -51 22 -77.5t58 -26.5q30 0 55.5 9.5t45.5 21.5l23 -84q-32 -24 -74.5 -39.5t-84.5 -15.5q-48 0 -81.5 14t-54.5 38t-31 55t-10 65q0 84 24 150t63.5 111.5t90 70t103.5 24.5 q47 0 74.5 -9t49.5 -20zM350 720h125l-6 -30l-133 -124h-69z" />
<glyph unicode="&#x108;" horiz-adv-x="537" d="M58 0zM483 29q-67 -43 -164 -43q-66 0 -115 22t-81.5 61t-48.5 91t-16 112q0 118 33 201.5t87 137t123.5 78.5t142.5 25q57 0 97.5 -8.5t63.5 -19.5l-51 -116q-20 11 -48 16.5t-71 5.5q-51 0 -95 -21t-76 -60t-50.5 -95t-18.5 -127q0 -85 42.5 -133t113.5 -48 q45 0 74.5 9.5t55.5 23.5zM425 870h87l101 -93l-8 -39h-88l-45 41l-13 34l-27 -33l-67 -42h-94l9 40z" />
<glyph unicode="&#x109;" horiz-adv-x="412" d="M34 0zM393 387q-19 11 -39.5 15t-44.5 4q-27 0 -52.5 -17.5t-46 -46t-32.5 -66.5t-12 -78q0 -51 22 -77.5t58 -26.5q30 0 55.5 9.5t45.5 21.5l23 -84q-32 -24 -74.5 -39.5t-84.5 -15.5q-48 0 -81.5 14t-54.5 38t-31 55t-10 65q0 84 24 150t63.5 111.5t90 70t103.5 24.5 q47 0 74.5 -9t49.5 -20zM307 732h82l67 -182h-96l-24 66l-4 49l-27 -49l-57 -66h-97z" />
<glyph unicode="&#x10c;" horiz-adv-x="537" d="M58 0zM483 29q-67 -43 -164 -43q-66 0 -115 22t-81.5 61t-48.5 91t-16 112q0 118 33 201.5t87 137t123.5 78.5t142.5 25q57 0 97.5 -8.5t63.5 -19.5l-51 -116q-20 11 -48 16.5t-71 5.5q-51 0 -95 -21t-76 -60t-50.5 -95t-18.5 -127q0 -85 42.5 -133t113.5 -48 q45 0 74.5 9.5t55.5 23.5zM484 737h-84l-101 94l8 39h92l41 -45l12 -30l25 29l64 46h98l-8 -40z" />
<glyph unicode="&#x10d;" horiz-adv-x="412" d="M34 0zM393 387q-19 11 -39.5 15t-44.5 4q-27 0 -52.5 -17.5t-46 -46t-32.5 -66.5t-12 -78q0 -51 22 -77.5t58 -26.5q30 0 55.5 9.5t45.5 21.5l23 -84q-32 -24 -74.5 -39.5t-84.5 -15.5q-48 0 -81.5 14t-54.5 38t-31 55t-10 65q0 84 24 150t63.5 111.5t90 70t103.5 24.5 q47 0 74.5 -9t49.5 -20zM347 550h-87l-70 182h103l23 -66l5 -49l28 49l56 66h98z" />
<glyph unicode="&#x10e;" horiz-adv-x="620" d="M20 0zM168 700q21 3 46 5t46.5 3t37.5 1q9 0 25.5 0.5t36.5 0.5q61 0 111 -15.5t85.5 -47.5t55 -82t19.5 -119q0 -44 -7.5 -94.5t-25.5 -101.5t-49.5 -98t-79 -83t-114 -58t-154.5 -22q-15 0 -30 0.5t-21 0.5q-20 1 -44.5 2.5l-49 3t-36.5 3.5zM174 114q4 -1 12.5 -1.5 t18.5 -1t19 -0.5h14q70 0 119 31.5t79.5 79t44 103t13.5 103.5q0 80 -33.5 120t-111.5 40q-20 0 -42 -1t-34 -3zM429 737h-84l-101 94l8 39h92l41 -45l12 -30l25 29l64 46h98l-8 -40z" />
<glyph unicode="&#x10f;" horiz-adv-x="507" d="M37 0zM442 176q-9 -42 -13 -78t-4 -68v-15.5t1 -15.5h-84l-14 86h-4q-11 -18 -28.5 -35.5t-38.5 -32t-44.5 -23t-46.5 -8.5q-62 0 -95.5 44t-33.5 121q0 70 19 135t53.5 115.5t84 80.5t109.5 30q29 0 48 -3.5t36 -11.5l43 203h123zM365 394q-12 8 -27.5 11.5t-41.5 3.5 q-30 0 -54.5 -20.5t-41.5 -55t-26.5 -79.5t-9.5 -94q0 -29 13 -50t37 -21q15 0 30.5 7.5t29 19.5t25 26t18.5 26zM717 700q-8 -29 -24 -60.5t-35 -60t-38.5 -51t-32.5 -32.5l-47 31q24 36 41.5 81.5t27.5 91.5h108z" />
<glyph unicode="&#x110;" horiz-adv-x="640" d="M23 0zM40 401h85l63 299q21 3 46 5t47.5 3t36.5 1q10 0 26 0.5t35 0.5q62 0 112 -15.5t85.5 -47.5t55 -82t19.5 -119q0 -44 -7.5 -94.5t-25.5 -101.5t-49.5 -98t-79 -83t-114 -58t-154.5 -22q-15 0 -29 0.5t-22 0.5q-18 1 -43.5 2.5t-50 3t-36.5 3.5l68 322h-85zM254 401 h132l-17 -80h-132l-43 -206q4 -1 12.5 -1.5t18.5 -1t19 -0.5h14q70 -1 119 30.5t79.5 79t44 103t13.5 103.5q0 80 -33.5 120t-112.5 40q-19 0 -41 -1t-34 -3z" />
<glyph unicode="&#x111;" horiz-adv-x="507" d="M540 641h103l-17 -80h-103l-81 -385q-9 -42 -13 -78t-4 -68v-15.5t1 -15.5h-84l-14 86h-4q-11 -18 -28.5 -35.5t-38.5 -32t-44.5 -23t-46.5 -8.5q-62 0 -95.5 44t-33.5 121q0 70 19 135t53.5 115.5t84 80.5t109.5 30q29 0 48 -3.5t36 -11.5l13 64h-109l17 80h109l13 59 h123zM365 394q-12 8 -27.5 11.5t-41.5 3.5q-30 0 -54.5 -20.5t-41.5 -55t-26.5 -79.5t-9.5 -94q0 -29 13 -50t37 -21q15 0 30.5 7.5t29 19.5t25 26t18.5 26z" />
<glyph unicode="&#x112;" horiz-adv-x="503" d="M20 0zM168 700h130h264l-26 -122h-264l-35 -163h241l-27 -122h-239l-37 -171h269l-25 -122h-269h-130zM227 856h327l-19 -89h-326z" />
<glyph unicode="&#x113;" horiz-adv-x="466" d="M34 0zM402 48q-31 -26 -80 -44t-114 -18q-81 0 -127.5 47.5t-46.5 132.5q0 80 25 144.5t65.5 109.5t91.5 69.5t102 24.5q41 0 70.5 -10.5t48.5 -29t28 -42.5t9 -51q0 -41 -21 -72t-58.5 -51.5t-90.5 -31t-116 -10.5q-8 0 -15 0.5t-15 0.5q-2 -12 -3 -21.5t-1 -17.5 q0 -45 23.5 -67t66.5 -22q44 0 79 13t53 26zM176 295q28 0 59.5 2t58.5 9.5t45 22t18 39.5q0 15 -11 30.5t-46 15.5q-44 0 -76.5 -34t-47.5 -85zM189 658h308l-19 -92h-308z" />
<glyph unicode="&#x116;" horiz-adv-x="503" d="M20 0zM168 700h130h264l-26 -122h-264l-35 -163h241l-27 -122h-239l-37 -171h269l-25 -122h-269h-130zM307 798q0 32 24 47t59 15q33 0 58 -15t25 -47t-25 -46.5t-58 -14.5q-35 0 -59 14.5t-24 46.5z" />
<glyph unicode="&#x117;" horiz-adv-x="466" d="M34 0zM402 48q-31 -26 -80 -44t-114 -18q-81 0 -127.5 47.5t-46.5 132.5q0 80 25 144.5t65.5 109.5t91.5 69.5t102 24.5q41 0 70.5 -10.5t48.5 -29t28 -42.5t9 -51q0 -41 -21 -72t-58.5 -51.5t-90.5 -31t-116 -10.5q-8 0 -15 0.5t-15 0.5q-2 -12 -3 -21.5t-1 -17.5 q0 -45 23.5 -67t66.5 -22q44 0 79 13t53 26zM176 295q28 0 59.5 2t58.5 9.5t45 22t18 39.5q0 15 -11 30.5t-46 15.5q-44 0 -76.5 -34t-47.5 -85zM271 642q0 33 21.5 51t54.5 18q32 0 54.5 -18t22.5 -51q0 -32 -22.5 -50.5t-54.5 -18.5q-33 0 -54.5 18.5t-21.5 50.5z" />
<glyph unicode="&#x118;" horiz-adv-x="503" d="M168 700h130h264l-26 -122h-264l-35 -163h241l-27 -122h-239l-37 -171h269l-25 -122h-20q-32 -12 -53.5 -31.5t-21.5 -48.5q0 -34 38 -34q14 0 38 8l5 -62q-18 -13 -49.5 -23t-64.5 -10q-48 0 -71.5 22t-23.5 56q0 24 9 43.5t24 34.5t34.5 26t40.5 19h-154h-130z" />
<glyph unicode="&#x119;" horiz-adv-x="466" d="M402 48q-32 -27 -78 -43q-26 -16 -43 -38t-17 -47q0 -11 4 -20t13 -13t23 -2.5t34 11.5l5 -62q-9 -6 -22 -12.5t-28.5 -11.5t-33 -8.5t-33.5 -3.5q-51 0 -71.5 22t-20.5 56t24 62t58 48h-8q-81 0 -127.5 47.5t-46.5 132.5q0 80 25 144.5t65.5 109.5t91.5 69.5t102 24.5 q41 0 70.5 -10.5t48.5 -29t28 -42.5t9 -51q0 -43 -23.5 -75t-65.5 -52.5t-100 -30t-127 -6.5q-2 -12 -3 -21.5t-1 -17.5q0 -45 23.5 -67t66.5 -22q44 0 79 13t53 26zM300 414q-44 0 -76.5 -34t-47.5 -85q28 0 59.5 2t58.5 9.5t45 22t18 39.5q0 15 -11 30.5t-46 15.5z" />
<glyph unicode="&#x11a;" horiz-adv-x="503" d="M20 0zM168 700h130h264l-26 -122h-264l-35 -163h241l-27 -122h-239l-37 -171h269l-25 -122h-269h-130zM408 737h-84l-101 94l8 39h92l41 -45l12 -30l25 29l64 46h98l-8 -40z" />
<glyph unicode="&#x11b;" horiz-adv-x="466" d="M34 0zM402 48q-31 -26 -80 -44t-114 -18q-81 0 -127.5 47.5t-46.5 132.5q0 80 25 144.5t65.5 109.5t91.5 69.5t102 24.5q41 0 70.5 -10.5t48.5 -29t28 -42.5t9 -51q0 -41 -21 -72t-58.5 -51.5t-90.5 -31t-116 -10.5q-8 0 -15 0.5t-15 0.5q-2 -12 -3 -21.5t-1 -17.5 q0 -45 23.5 -67t66.5 -22q44 0 79 13t53 26zM176 295q28 0 59.5 2t58.5 9.5t45 22t18 39.5q0 15 -11 30.5t-46 15.5q-44 0 -76.5 -34t-47.5 -85zM363 550h-87l-70 182h103l23 -66l5 -49l28 49l56 66h98z" />
<glyph unicode="&#x11c;" horiz-adv-x="585" d="M58 0zM369 365h210l-66 -312q-45 -35 -94.5 -51t-106.5 -16q-55 0 -101.5 19t-80.5 55t-53 89t-19 121q0 115 31.5 199t85.5 138.5t126 80.5t152 26q57 0 101.5 -9.5t67.5 -19.5l-52 -115q-21 10 -52.5 16t-76.5 6q-53 0 -98 -20t-78 -59t-51.5 -96.5t-18.5 -131.5 q0 -83 39 -130t105 -47q49 0 86 25l28 133l-102 16zM440 870h87l101 -93l-8 -39h-88l-45 41l-13 34l-27 -33l-67 -42h-94l9 40z" />
<glyph unicode="&#x11d;" horiz-adv-x="505" d="M0 0zM407 0q-13 -59 -35 -99.5t-52.5 -65.5t-70 -36t-87.5 -11q-35 0 -62.5 5t-48.5 12t-36.5 14.5t-24.5 13.5l46 91q9 -4 21 -9.5t27.5 -11t36 -9t47.5 -3.5q50 0 79.5 31t42.5 85l19 78h-4q-23 -36 -62.5 -64.5t-89.5 -28.5q-54 0 -87.5 40.5t-33.5 108.5 q0 77 22 144.5t61.5 118t93.5 79.5t119 29q61 0 106.5 -10.5t73.5 -23.5zM371 399q-11 6 -28 8t-34 2q-32 0 -59.5 -19t-47.5 -52t-31.5 -77.5t-11.5 -95.5q0 -32 13.5 -51t35.5 -19q17 0 35 10.5t34.5 26.5t29.5 35.5t21 36.5zM339 732h82l67 -182h-96l-24 66l-4 49 l-27 -49l-57 -66h-97z" />
<glyph unicode="&#x11e;" horiz-adv-x="585" d="M58 0zM369 365h210l-66 -312q-45 -35 -94.5 -51t-106.5 -16q-55 0 -101.5 19t-80.5 55t-53 89t-19 121q0 115 31.5 199t85.5 138.5t126 80.5t152 26q57 0 101.5 -9.5t67.5 -19.5l-52 -115q-21 10 -52.5 16t-76.5 6q-53 0 -98 -20t-78 -59t-51.5 -96.5t-18.5 -131.5 q0 -83 39 -130t105 -47q49 0 86 25l28 133l-102 16zM339 875q18 -26 44 -40t65 -14q55 0 92 15t65 39l49 -32q-17 -30 -40 -51.5t-50 -35t-57.5 -20t-61.5 -6.5q-26 0 -50.5 7.5t-45 22t-36 34.5t-22.5 44z" />
<glyph unicode="&#x11f;" horiz-adv-x="505" d="M0 0zM407 0q-13 -59 -35 -99.5t-52.5 -65.5t-70 -36t-87.5 -11q-35 0 -62.5 5t-48.5 12t-36.5 14.5t-24.5 13.5l46 91q9 -4 21 -9.5t27.5 -11t36 -9t47.5 -3.5q50 0 79.5 31t42.5 85l19 78h-4q-23 -36 -62.5 -64.5t-89.5 -28.5q-54 0 -87.5 40.5t-33.5 108.5 q0 77 22 144.5t61.5 118t93.5 79.5t119 29q61 0 106.5 -10.5t73.5 -23.5zM371 399q-11 6 -28 8t-34 2q-32 0 -59.5 -19t-47.5 -52t-31.5 -77.5t-11.5 -95.5q0 -32 13.5 -51t35.5 -19q17 0 35 10.5t34.5 26.5t29.5 35.5t21 36.5zM260 720q21 -59 84 -59q39 0 70.5 15.5 t52.5 43.5l51 -27q-8 -24 -25.5 -47.5t-42 -41.5t-55.5 -29t-64 -11q-62 0 -99 33.5t-39 90.5z" />
<glyph unicode="&#x122;" horiz-adv-x="585" d="M58 0zM369 365h210l-66 -312q-45 -35 -94.5 -51t-106.5 -16q-55 0 -101.5 19t-80.5 55t-53 89t-19 121q0 115 31.5 199t85.5 138.5t126 80.5t152 26q57 0 101.5 -9.5t67.5 -19.5l-52 -115q-21 10 -52.5 16t-76.5 6q-53 0 -98 -20t-78 -59t-51.5 -96.5t-18.5 -131.5 q0 -83 39 -130t105 -47q49 0 86 25l28 133l-102 16zM222 -113q0 17 6.5 30t17 22t23.5 14t26 5q38 0 50.5 -20.5t12.5 -49.5q0 -36 -14.5 -63.5t-34.5 -47.5t-42 -32.5t-38 -17.5l-21 54q15 7 31 19.5t24 32.5q-18 3 -29.5 15.5t-11.5 38.5z" />
<glyph unicode="&#x123;" horiz-adv-x="505" d="M407 0q-13 -59 -35 -99.5t-52.5 -65.5t-70 -36t-87.5 -11q-35 0 -62.5 5t-48.5 12t-36.5 14.5t-24.5 13.5l46 91q9 -4 21 -9.5t27.5 -11t36 -9t47.5 -3.5q50 0 79.5 31t42.5 85l19 78h-4q-23 -36 -62.5 -64.5t-89.5 -28.5q-54 0 -87.5 40.5t-33.5 108.5q0 77 22 144.5 t61.5 118t93.5 79.5t119 29q61 0 106.5 -10.5t73.5 -23.5zM371 399q-11 6 -28 8t-34 2q-32 0 -59.5 -19t-47.5 -52t-31.5 -77.5t-11.5 -95.5q0 -32 13.5 -51t35.5 -19q17 0 35 10.5t34.5 26.5t29.5 35.5t21 36.5zM425 622q0 -17 -6.5 -30t-17 -22t-23.5 -14t-26 -5 q-38 0 -50.5 20.5t-12.5 49.5q0 36 14.5 63.5t34.5 47.5t42 32.5t38 17.5l21 -54q-15 -7 -31 -19.5t-24 -32.5q18 -3 29.5 -15.5t11.5 -38.5z" />
<glyph unicode="&#x124;" horiz-adv-x="624" d="M20 0zM455 293h-243l-62 -293h-130l148 700h130l-60 -285h243l60 285h130l-148 -700h-130zM425 870h87l101 -93l-8 -39h-88l-45 41l-13 34l-27 -33l-67 -42h-94l9 40z" />
<glyph unicode="&#x125;" horiz-adv-x="528" d="M18 0zM309 0l60 284q10 44 10 73q0 26 -10 37.5t-31 11.5q-19 0 -40 -12t-40 -30t-34.5 -38.5t-23.5 -37.5l-59 -288h-123l148 700h123l-63 -288h4q13 16 31.5 34t41 33t49 25t57.5 10q48 0 74.5 -24t26.5 -85q0 -37 -12 -94l-66 -311h-123zM362 870h87l101 -93l-8 -39 h-88l-45 41l-13 34l-27 -33l-67 -42h-94l9 40z" />
<glyph unicode="&#x126;" horiz-adv-x="656" d="M92 598h70l22 102h130l-22 -102h243l22 102h130l-22 -102h72l-17 -82h-72l-109 -516h-130l62 293h-243l-62 -293h-130l109 516h-70zM497 415l21 101h-243l-21 -101h243z" />
<glyph unicode="&#x127;" horiz-adv-x="528" d="M84 641h69l13 59h123l-13 -59h155l-17 -80h-156l-32 -149h4q13 16 31.5 34t41 33t49 25t57.5 10q48 0 74.5 -24t26.5 -85q0 -37 -12 -94l-66 -311h-123l60 284q10 44 10 73q0 26 -10 37.5t-31 11.5q-19 0 -40 -12t-40 -30t-34.5 -38.5t-23.5 -37.5l-59 -288h-123l118 561 h-69z" />
<glyph unicode="&#x12a;" horiz-adv-x="278" d="M35 0zM183 700h129l-148 -700h-129zM112 856h327l-19 -89h-326z" />
<glyph unicode="&#x12b;" horiz-adv-x="256" d="M27 0zM133 500h123l-106 -500h-123zM75 658h308l-19 -92h-308z" />
<glyph unicode="&#x12e;" horiz-adv-x="278" d="M183 700h129l-148 -700h-14q-26 -13 -44.5 -32.5t-18.5 -46.5q0 -16 9.5 -25.5t27.5 -9.5q16 0 39 9l5 -62q-18 -13 -49.5 -23.5t-64.5 -10.5q-48 0 -71.5 22t-23.5 56q0 23 9 42t24 34.5t34 27t39 19.5h-30z" />
<glyph unicode="&#x12f;" horiz-adv-x="257" d="M133 500h123l-106 -500h-10q-26 -15 -44 -37.5t-18 -46.5q0 -20 16.5 -30t57.5 10l6 -62q-9 -6 -22 -12.5t-28.5 -11.5t-33 -8.5t-33.5 -3.5q-53 0 -72 20.5t-19 53.5q0 20 8.5 39t23.5 35.5t34.5 30.5t41.5 23h-31zM150 642q0 33 21.5 51t54.5 18q32 0 54.5 -18 t22.5 -51q0 -32 -22.5 -50.5t-54.5 -18.5q-33 0 -54.5 18.5t-21.5 50.5z" />
<glyph unicode="&#x130;" horiz-adv-x="278" d="M183 700h129l-148 -700h-129zM183 798q0 32 24 47t59 15q33 0 58 -15t25 -47t-25 -46.5t-58 -14.5q-35 0 -59 14.5t-24 46.5z" />
<glyph unicode="&#x131;" horiz-adv-x="256" d="M133 500h123l-106 -500h-123z" />
<glyph unicode="&#x134;" horiz-adv-x="324" d="M0 0zM239 700h130l-109 -512q-9 -42 -23 -78.5t-37 -63.5t-57.5 -42.5t-83.5 -15.5q-28 0 -59 6t-51 17l50 112q23 -13 54 -13q21 0 35 8.5t23.5 23.5t15.5 35.5t12 45.5zM296 870h87l101 -93l-8 -39h-88l-45 41l-13 34l-27 -33l-67 -42h-94l9 40z" />
<glyph unicode="&#x135;" horiz-adv-x="244" d="M0 0zM123 500h124l-111 -521q-19 -90 -64 -137.5t-122 -47.5q-31 0 -62 7l24 106q25 -2 43 4.5t30.5 20.5t21 35.5t14.5 48.5zM198 732h82l67 -182h-96l-24 66l-4 49l-27 -49l-57 -66h-97z" />
<glyph unicode="&#x136;" horiz-adv-x="593" d="M20 0zM260 299h-47l-63 -299h-130l148 700h130l-66 -310l31 11l237 299h156l-252 -297l-60 -35l44 -39l152 -329h-145zM152 -113q0 17 6.5 30t17 22t23.5 14t26 5q38 0 50.5 -20.5t12.5 -49.5q0 -36 -14.5 -63.5t-34.5 -47.5t-42 -32.5t-38 -17.5l-21 54q15 7 31 19.5 t24 32.5q-18 3 -29.5 15.5t-11.5 38.5z" />
<glyph unicode="&#x137;" horiz-adv-x="465" d="M18 0zM224 207h-40l-43 -207h-123l148 700h123l-88 -413l37 13l141 200h137l-149 -201l-60 -38l45 -38l76 -223h-132zM111 -113q0 17 6.5 30t17 22t23.5 14t26 5q38 0 50.5 -20.5t12.5 -49.5q0 -36 -14.5 -63.5t-34.5 -47.5t-42 -32.5t-38 -17.5l-21 54q15 7 31 19.5 t24 32.5q-18 3 -29.5 15.5t-11.5 38.5z" />
<glyph unicode="&#x139;" horiz-adv-x="495" d="M20 0zM441 0h-291h-130l148 700h130l-123 -578h291zM312 870h157l-6 -30l-172 -88h-104z" />
<glyph unicode="&#x13a;" horiz-adv-x="272" d="M33 0zM168 148q-6 -29 0.5 -43t21.5 -14q28 0 53 11l-3 -89q-18 -11 -52 -18t-67 -7q-43 0 -65.5 16.5t-22.5 61.5q0 23 6 53l123 581h123zM300 870h157l-6 -30l-172 -88h-104z" />
<glyph unicode="&#x13b;" horiz-adv-x="495" d="M20 0zM441 0h-291h-130l148 700h130l-123 -578h291zM128 -113q0 17 6.5 30t17 22t23.5 14t26 5q38 0 50.5 -20.5t12.5 -49.5q0 -36 -14.5 -63.5t-34.5 -47.5t-42 -32.5t-38 -17.5l-21 54q15 7 31 19.5t24 32.5q-18 3 -29.5 15.5t-11.5 38.5z" />
<glyph unicode="&#x13c;" horiz-adv-x="272" d="M15 0zM168 148q-6 -29 0.5 -43t21.5 -14q28 0 53 11l-3 -89q-18 -11 -52 -18t-67 -7q-43 0 -65.5 16.5t-22.5 61.5q0 23 6 53l123 581h123zM29 -113q0 17 6.5 30t17 22t23.5 14t26 5q38 0 50.5 -20.5t12.5 -49.5q0 -36 -14.5 -63.5t-34.5 -47.5t-42 -32.5t-38 -17.5 l-21 54q15 7 31 19.5t24 32.5q-18 3 -29.5 15.5t-11.5 38.5z" />
<glyph unicode="&#x13d;" horiz-adv-x="495" d="M20 0zM441 0h-291h-130l148 700h130l-123 -578h291zM551 700q-8 -29 -24 -60.5t-35 -60t-38.5 -51t-32.5 -32.5l-47 31q24 36 41.5 81.5t27.5 91.5h108z" />
<glyph unicode="&#x13e;" horiz-adv-x="272" d="M33 0zM168 148q-6 -29 0.5 -43t21.5 -14q28 0 53 11l-3 -89q-18 -11 -52 -18t-67 -7q-43 0 -65.5 16.5t-22.5 61.5q0 23 6 53l123 581h123zM453 700q-8 -29 -24 -60.5t-35 -60t-38.5 -51t-32.5 -32.5l-47 31q24 36 41.5 81.5t27.5 91.5h108z" />
<glyph unicode="&#x141;" horiz-adv-x="500" d="M29 318l72 44l72 338h130l-53 -246l112 68l-27 -125l-111 -67l-44 -208h291l-25 -122h-288h-133l51 241l-73 -44z" />
<glyph unicode="&#x142;" horiz-adv-x="272" d="M4 307l86 52l72 341h123l-54 -254l106 65l-27 -125l-105 -63l-37 -175q-6 -29 0.5 -43t21.5 -14q28 0 53 11l-3 -89q-18 -11 -52 -18t-67 -7q-43 0 -65.5 16.5t-22.5 61.5q0 23 6 53l25 119l-86 -52z" />
<glyph unicode="&#x143;" horiz-adv-x="631" d="M20 0zM267 366l-33 112h-5l-9 -112l-77 -366h-123l150 705h90l172 -374l31 -109h6l7 109l79 369h123l-150 -705h-90zM489 870h157l-6 -30l-172 -88h-104z" />
<glyph unicode="&#x144;" horiz-adv-x="521" d="M14 0zM295 0l66 310q6 28 6 49q0 22 -9 34.5t-33 12.5q-18 0 -36 -9t-34 -24t-30 -33.5t-24 -37.5l-64 -302h-123l106 500h93l-5 -88h4q13 16 30.5 34t40.5 33t51.5 25t64.5 10q45 0 72 -24.5t27 -81.5q0 -15 -1.5 -32t-6.5 -37l-72 -339h-123zM381 720h125l-6 -30 l-133 -124h-69z" />
<glyph unicode="&#x145;" horiz-adv-x="631" d="M20 0zM267 366l-33 112h-5l-9 -112l-77 -366h-123l150 705h90l172 -374l31 -109h6l7 109l79 369h123l-150 -705h-90zM182 -113q0 17 6.5 30t17 22t23.5 14t26 5q38 0 50.5 -20.5t12.5 -49.5q0 -36 -14.5 -63.5t-34.5 -47.5t-42 -32.5t-38 -17.5l-21 54q15 7 31 19.5 t24 32.5q-18 3 -29.5 15.5t-11.5 38.5z" />
<glyph unicode="&#x146;" horiz-adv-x="521" d="M14 0zM295 0l66 310q6 28 6 49q0 22 -9 34.5t-33 12.5q-18 0 -36 -9t-34 -24t-30 -33.5t-24 -37.5l-64 -302h-123l106 500h93l-5 -88h4q13 16 30.5 34t40.5 33t51.5 25t64.5 10q45 0 72 -24.5t27 -81.5q0 -15 -1.5 -32t-6.5 -37l-72 -339h-123zM130 -113q0 17 6.5 30 t17 22t23.5 14t26 5q38 0 50.5 -20.5t12.5 -49.5q0 -36 -14.5 -63.5t-34.5 -47.5t-42 -32.5t-38 -17.5l-21 54q15 7 31 19.5t24 32.5q-18 3 -29.5 15.5t-11.5 38.5z" />
<glyph unicode="&#x147;" horiz-adv-x="631" d="M20 0zM267 366l-33 112h-5l-9 -112l-77 -366h-123l150 705h90l172 -374l31 -109h6l7 109l79 369h123l-150 -705h-90zM470 737h-84l-101 94l8 39h92l41 -45l12 -30l25 29l64 46h98l-8 -40z" />
<glyph unicode="&#x148;" horiz-adv-x="521" d="M14 0zM295 0l66 310q6 28 6 49q0 22 -9 34.5t-33 12.5q-18 0 -36 -9t-34 -24t-30 -33.5t-24 -37.5l-64 -302h-123l106 500h93l-5 -88h4q13 16 30.5 34t40.5 33t51.5 25t64.5 10q45 0 72 -24.5t27 -81.5q0 -15 -1.5 -32t-6.5 -37l-72 -339h-123zM378 550h-87l-70 182h103 l23 -66l5 -49l28 49l56 66h98z" />
<glyph unicode="&#x14c;" horiz-adv-x="644" d="M58 0zM58 262q0 93 25.5 175.5t72.5 144t113.5 97t148.5 35.5q54 0 97.5 -16t74 -49.5t47.5 -84.5t17 -121q0 -94 -25.5 -177t-72 -145.5t-111 -98.5t-142.5 -36q-118 0 -181 69.5t-64 206.5zM195 266q0 -72 27.5 -115t90.5 -43q46 0 83.5 27.5t64.5 74t41.5 106.5 t14.5 125q0 79 -31 115t-85 36q-45 0 -82.5 -26t-65 -70.5t-43 -104t-15.5 -125.5zM295 856h327l-19 -89h-326z" />
<glyph unicode="&#x14d;" horiz-adv-x="496" d="M34 0zM34 162q0 79 22.5 144t60 111t87 71.5t103.5 25.5q48 0 81 -15t53.5 -40t29.5 -57t9 -66q0 -78 -22 -142.5t-59 -110.5t-86 -71.5t-103 -25.5q-47 0 -80 15.5t-54.5 40.5t-31.5 56.5t-10 63.5zM161 179q0 -90 65 -90q24 0 47 21t41 55t28.5 77t10.5 86 q0 40 -13.5 61.5t-50.5 21.5q-24 0 -47 -20t-41 -52.5t-29 -74.5t-11 -85zM191 658h308l-19 -92h-308z" />
<glyph unicode="&#x150;" horiz-adv-x="644" d="M58 0zM58 262q0 93 25.5 175.5t72.5 144t113.5 97t148.5 35.5q54 0 97.5 -16t74 -49.5t47.5 -84.5t17 -121q0 -94 -25.5 -177t-72 -145.5t-111 -98.5t-142.5 -36q-118 0 -181 69.5t-64 206.5zM195 266q0 -72 27.5 -115t90.5 -43q46 0 83.5 27.5t64.5 74t41.5 106.5 t14.5 125q0 79 -31 115t-85 36q-45 0 -82.5 -26t-65 -70.5t-43 -104t-15.5 -125.5zM379 850h126l-3 -16l-115 -93h-87zM567 850h132l-3 -16l-155 -93h-90z" />
<glyph unicode="&#x151;" horiz-adv-x="496" d="M34 0zM34 162q0 79 22.5 144t60 111t87 71.5t103.5 25.5q48 0 81 -15t53.5 -40t29.5 -57t9 -66q0 -78 -22 -142.5t-59 -110.5t-86 -71.5t-103 -25.5q-47 0 -80 15.5t-54.5 40.5t-31.5 56.5t-10 63.5zM161 179q0 -90 65 -90q24 0 47 21t41 55t28.5 77t10.5 86 q0 40 -13.5 61.5t-50.5 21.5q-24 0 -47 -20t-41 -52.5t-29 -74.5t-11 -85zM269 700h112l-3 -16l-95 -113h-74zM438 700h120l-3 -16l-136 -113h-78z" />
<glyph unicode="&#x152;" horiz-adv-x="877" d="M514 567q-18 12 -42.5 18.5t-64.5 6.5q-47 0 -85.5 -24t-67 -67t-44 -103t-15.5 -132q0 -26 5 -53.5t18.5 -51t38 -38.5t63.5 -15q28 0 49.5 3.5t51.5 15.5zM394 0q-20 -7 -46.5 -10.5t-54.5 -3.5q-43 0 -85 13t-75.5 44.5t-54 85t-20.5 133.5q0 105 27 189t76 142.5 t116 89.5t147 31q38 0 65.5 -4t52.5 -10h394l-26 -122h-264l-35 -163h241l-26 -122h-240l-36 -171h268l-25 -122h-399z" />
<glyph unicode="&#x153;" horiz-adv-x="769" d="M161 179q0 -90 65 -90q24 0 47 21t41 55t28.5 77t10.5 86q0 40 -13.5 61.5t-50.5 21.5q-24 0 -47 -20t-41 -52.5t-29 -74.5t-11 -85zM371 65q-25 -34 -68 -56.5t-94 -22.5q-47 0 -80 15.5t-54 40.5t-31 56.5t-10 63.5q0 79 22.5 144t60.5 111t87.5 71.5t103.5 25.5 t88.5 -22t53.5 -60q30 35 72.5 58.5t98.5 23.5q41 0 70.5 -10.5t48.5 -29t28 -42.5t9 -51q0 -41 -21 -72t-58.5 -51.5t-90.5 -31t-116 -10.5q-8 0 -15 0.5t-15 0.5q-2 -12 -3 -21.5t-1 -17.5q0 -45 23.5 -67t66.5 -22q44 0 79 13t53 26l26 -80q-31 -26 -80 -44t-114 -18 q-29 0 -52 6.5t-40 18t-29 25.5t-19 29zM479 295q28 0 59.5 2t58.5 9.5t45 22t18 39.5q0 15 -11 30.5t-46 15.5q-44 0 -76.5 -34t-47.5 -85z" />
<glyph unicode="&#x154;" horiz-adv-x="584" d="M20 0zM167 693q48 9 97 13t88 4q46 0 87 -11t71 -33.5t47.5 -58t17.5 -83.5q0 -55 -16.5 -95.5t-43.5 -68t-61.5 -43t-70.5 -20.5l39 -31l97 -266h-144l-96 274l-69 13l-60 -287h-130zM230 380h53q29 0 57 5.5t49.5 20t35 38.5t13.5 61q0 34 -23 58.5t-74 24.5 q-20 0 -37.5 -1.5t-29.5 -3.5zM420 870h157l-6 -30l-172 -88h-104z" />
<glyph unicode="&#x155;" horiz-adv-x="343" d="M18 0zM215 500l1 -88h4q22 40 53.5 68t79.5 28q21 0 50 -8l-31 -107q-10 3 -19 5t-19 2q-41 0 -75.5 -26.5t-52.5 -61.5l-65 -312h-123l106 500h91zM282 720h125l-6 -30l-133 -124h-69z" />
<glyph unicode="&#x156;" horiz-adv-x="584" d="M20 0zM167 693q48 9 97 13t88 4q46 0 87 -11t71 -33.5t47.5 -58t17.5 -83.5q0 -55 -16.5 -95.5t-43.5 -68t-61.5 -43t-70.5 -20.5l39 -31l97 -266h-144l-96 274l-69 13l-60 -287h-130zM230 380h53q29 0 57 5.5t49.5 20t35 38.5t13.5 61q0 34 -23 58.5t-74 24.5 q-20 0 -37.5 -1.5t-29.5 -3.5zM156 -113q0 17 6.5 30t17 22t23.5 14t26 5q38 0 50.5 -20.5t12.5 -49.5q0 -36 -14.5 -63.5t-34.5 -47.5t-42 -32.5t-38 -17.5l-21 54q15 7 31 19.5t24 32.5q-18 3 -29.5 15.5t-11.5 38.5z" />
<glyph unicode="&#x157;" horiz-adv-x="343" d="M8 0zM215 500l1 -88h4q22 40 53.5 68t79.5 28q21 0 50 -8l-31 -107q-10 3 -19 5t-19 2q-41 0 -75.5 -26.5t-52.5 -61.5l-65 -312h-123l106 500h91zM22 -113q0 17 6.5 30t17 22t23.5 14t26 5q38 0 50.5 -20.5t12.5 -49.5q0 -36 -14.5 -63.5t-34.5 -47.5t-42 -32.5 t-38 -17.5l-21 54q15 7 31 19.5t24 32.5q-18 3 -29.5 15.5t-11.5 38.5z" />
<glyph unicode="&#x158;" horiz-adv-x="584" d="M20 0zM167 693q48 9 97 13t88 4q46 0 87 -11t71 -33.5t47.5 -58t17.5 -83.5q0 -55 -16.5 -95.5t-43.5 -68t-61.5 -43t-70.5 -20.5l39 -31l97 -266h-144l-96 274l-69 13l-60 -287h-130zM230 380h53q29 0 57 5.5t49.5 20t35 38.5t13.5 61q0 34 -23 58.5t-74 24.5 q-20 0 -37.5 -1.5t-29.5 -3.5zM405 737h-84l-101 94l8 39h92l41 -45l12 -30l25 29l64 46h98l-8 -40z" />
<glyph unicode="&#x159;" horiz-adv-x="343" d="M18 0zM215 500l1 -88h4q22 40 53.5 68t79.5 28q21 0 50 -8l-31 -107q-10 3 -19 5t-19 2q-41 0 -75.5 -26.5t-52.5 -61.5l-65 -312h-123l106 500h91zM308 550h-87l-70 182h103l23 -66l5 -49l28 49l56 66h98z" />
<glyph unicode="&#x15a;" horiz-adv-x="510" d="M0 0zM502 559q-19 12 -56 24.5t-82 12.5q-23 0 -45 -4.5t-39 -14.5t-27 -26t-10 -38q0 -29 18 -49t45.5 -37.5t59 -35.5t59 -42t45.5 -57.5t18 -82.5q0 -59 -20.5 -101.5t-58 -69.5t-90 -39.5t-116.5 -12.5q-35 0 -66.5 4t-58.5 10t-47.5 13.5t-32.5 14.5l67 116 q10 -6 26 -13t36.5 -13t44.5 -10t48 -4q28 0 53 4.5t43.5 15t29 26.5t10.5 40q0 27 -18 46t-45.5 36t-59 35.5t-59 43.5t-45.5 60.5t-18 86.5q0 58 20.5 99t55.5 67t82 38t101 12q29 0 58 -3t55 -8.5t48 -13t37 -16.5zM429 870h157l-6 -30l-172 -88h-104z" />
<glyph unicode="&#x15b;" horiz-adv-x="396" d="M0 0zM38 117q20 -11 51.5 -19.5t66.5 -8.5t53.5 13.5t19.5 41.5q0 20 -12 34.5t-30.5 27.5t-39.5 26.5t-39.5 31t-30.5 41.5t-12 58q0 33 13 61t36.5 48t57 31t75.5 11q58 0 96 -8.5t60 -21.5l-34 -94q-20 9 -48.5 15t-59.5 6q-32 0 -50.5 -11t-18.5 -35q0 -16 12 -28.5 t30.5 -25.5t39.5 -26.5t39.5 -32.5t30.5 -43.5t12 -58.5q0 -83 -54 -123.5t-144 -40.5q-51 0 -93.5 9.5t-65.5 23.5zM303 720h125l-6 -30l-133 -124h-69z" />
<glyph unicode="&#x15c;" horiz-adv-x="510" d="M0 0zM502 559q-19 12 -56 24.5t-82 12.5q-23 0 -45 -4.5t-39 -14.5t-27 -26t-10 -38q0 -29 18 -49t45.5 -37.5t59 -35.5t59 -42t45.5 -57.5t18 -82.5q0 -59 -20.5 -101.5t-58 -69.5t-90 -39.5t-116.5 -12.5q-35 0 -66.5 4t-58.5 10t-47.5 13.5t-32.5 14.5l67 116 q10 -6 26 -13t36.5 -13t44.5 -10t48 -4q28 0 53 4.5t43.5 15t29 26.5t10.5 40q0 27 -18 46t-45.5 36t-59 35.5t-59 43.5t-45.5 60.5t-18 86.5q0 58 20.5 99t55.5 67t82 38t101 12q29 0 58 -3t55 -8.5t48 -13t37 -16.5zM370 870h87l101 -93l-8 -39h-88l-45 41l-13 34l-27 -33 l-67 -42h-94l9 40z" />
<glyph unicode="&#x15d;" horiz-adv-x="396" d="M0 0zM38 117q20 -11 51.5 -19.5t66.5 -8.5t53.5 13.5t19.5 41.5q0 20 -12 34.5t-30.5 27.5t-39.5 26.5t-39.5 31t-30.5 41.5t-12 58q0 33 13 61t36.5 48t57 31t75.5 11q58 0 96 -8.5t60 -21.5l-34 -94q-20 9 -48.5 15t-59.5 6q-32 0 -50.5 -11t-18.5 -35q0 -16 12 -28.5 t30.5 -25.5t39.5 -26.5t39.5 -32.5t30.5 -43.5t12 -58.5q0 -83 -54 -123.5t-144 -40.5q-51 0 -93.5 9.5t-65.5 23.5zM268 732h82l67 -182h-96l-24 66l-4 49l-27 -49l-57 -66h-97z" />
<glyph unicode="&#x15e;" horiz-adv-x="510" d="M521 559q-19 12 -56 24.5t-82 12.5q-23 0 -45 -4.5t-39 -14.5t-27 -26t-10 -38q0 -29 18 -49t45.5 -37.5t59 -35.5t59 -42t45.5 -57.5t18 -82.5q0 -54 -17 -93.5t-48 -66.5t-75 -42t-98 -19l-23 -31q34 -2 52 -20.5t18 -47.5q0 -26 -11.5 -45t-31 -31.5t-46 -18.5 t-56.5 -6q-38 0 -77 9l20 48q51 -5 70 6t19 25q0 17 -20 23.5t-58 5.5l64 82q-59 4 -105.5 16t-66.5 25l67 118q10 -6 26 -13t36.5 -13t44.5 -10t48 -4q28 0 53 4.5t43.5 14t29 25.5t10.5 40q0 27 -18 46t-45.5 36t-59 35.5t-59 43.5t-45.5 60.5t-18 86.5q0 58 20.5 99 t55.5 67t82 38t101 12q29 0 58 -3t55 -8.5t48 -13t37 -16.5z" />
<glyph unicode="&#x15f;" horiz-adv-x="396" d="M38 117q20 -11 51.5 -19.5t66.5 -8.5t53.5 13.5t19.5 41.5q0 20 -12 34.5t-30.5 27.5t-39.5 26.5t-39.5 31t-30.5 41.5t-12 58q0 33 13 61t36.5 48t57 31t75.5 11q58 0 96 -8.5t60 -21.5l-34 -94q-20 9 -48.5 15t-59.5 6q-32 0 -50.5 -11t-18.5 -35q0 -16 12 -28.5 t30.5 -25.5t39.5 -26.5t39.5 -32.5t30.5 -43.5t12 -58.5q0 -73 -42 -113t-114 -48l-24 -32q34 -2 52 -20.5t18 -47.5q0 -26 -11.5 -45t-31 -31.5t-46 -18.5t-56.5 -6q-38 0 -77 9l20 48q51 -5 70 6t19 25q0 17 -20 23.5t-58 5.5l65 83q-39 3 -70.5 11t-50.5 20z" />
<glyph unicode="&#x160;" horiz-adv-x="510" d="M0 0zM502 559q-19 12 -56 24.5t-82 12.5q-23 0 -45 -4.5t-39 -14.5t-27 -26t-10 -38q0 -29 18 -49t45.5 -37.5t59 -35.5t59 -42t45.5 -57.5t18 -82.5q0 -59 -20.5 -101.5t-58 -69.5t-90 -39.5t-116.5 -12.5q-35 0 -66.5 4t-58.5 10t-47.5 13.5t-32.5 14.5l67 116 q10 -6 26 -13t36.5 -13t44.5 -10t48 -4q28 0 53 4.5t43.5 15t29 26.5t10.5 40q0 27 -18 46t-45.5 36t-59 35.5t-59 43.5t-45.5 60.5t-18 86.5q0 58 20.5 99t55.5 67t82 38t101 12q29 0 58 -3t55 -8.5t48 -13t37 -16.5zM429 737h-84l-101 94l8 39h92l41 -45l12 -30l25 29 l64 46h98l-8 -40z" />
<glyph unicode="&#x161;" horiz-adv-x="396" d="M0 0zM38 117q20 -11 51.5 -19.5t66.5 -8.5t53.5 13.5t19.5 41.5q0 20 -12 34.5t-30.5 27.5t-39.5 26.5t-39.5 31t-30.5 41.5t-12 58q0 33 13 61t36.5 48t57 31t75.5 11q58 0 96 -8.5t60 -21.5l-34 -94q-20 9 -48.5 15t-59.5 6q-32 0 -50.5 -11t-18.5 -35q0 -16 12 -28.5 t30.5 -25.5t39.5 -26.5t39.5 -32.5t30.5 -43.5t12 -58.5q0 -83 -54 -123.5t-144 -40.5q-51 0 -93.5 9.5t-65.5 23.5zM308 550h-87l-70 182h103l23 -66l5 -49l28 49l56 66h98z" />
<glyph unicode="&#x162;" horiz-adv-x="547" d="M96 0zM614 578h-194l-123 -578h-129l122 578h-194l26 122h517zM133 -113q0 17 6.5 30t17 22t23.5 14t26 5q38 0 50.5 -20.5t12.5 -49.5q0 -36 -14.5 -63.5t-34.5 -47.5t-42 -32.5t-38 -17.5l-21 54q15 7 31 19.5t24 32.5q-18 3 -29.5 15.5t-11.5 38.5z" />
<glyph unicode="&#x163;" horiz-adv-x="320" d="M36 0zM64 500h65l20 94l131 37l-28 -131h117l-23 -103h-116l-49 -226q-6 -27 -6 -44q0 -22 10 -30t30 -8q19 0 34.5 4t32.5 13v-92q-11 -6 -26.5 -11.5t-33.5 -9t-37 -5.5t-35 -2q-51 0 -78.5 23.5t-27.5 71.5q0 10 1.5 21t3.5 23l58 272h-67zM50 -113q0 17 6.5 30t17 22 t23.5 14t26 5q38 0 50.5 -20.5t12.5 -49.5q0 -36 -14.5 -63.5t-34.5 -47.5t-42 -32.5t-38 -17.5l-21 54q15 7 31 19.5t24 32.5q-18 3 -29.5 15.5t-11.5 38.5z" />
<glyph unicode="&#x164;" horiz-adv-x="547" d="M96 0zM614 578h-194l-123 -578h-129l122 578h-194l26 122h517zM427 737h-84l-101 94l8 39h92l41 -45l12 -30l25 29l64 46h98l-8 -40z" />
<glyph unicode="&#x165;" horiz-adv-x="320" d="M40 0zM64 500h65l20 94l131 37l-28 -131h117l-23 -103h-116l-49 -226q-6 -27 -6 -44q0 -22 10 -30t30 -8q19 0 34.5 4t32.5 13v-92q-11 -6 -26.5 -11.5t-33.5 -9t-37 -5.5t-35 -2q-51 0 -78.5 23.5t-27.5 71.5q0 10 1.5 21t3.5 23l58 272h-67zM463 723q-8 -29 -24 -60.5 t-35 -60t-38.5 -51t-32.5 -32.5l-47 31q24 36 41.5 81.5t27.5 91.5h108z" />
<glyph unicode="&#x16a;" horiz-adv-x="602" d="M63 0zM531 700h122l-95 -452q-15 -72 -39 -121.5t-58 -80.5t-80 -44.5t-106 -13.5q-58 0 -98 13.5t-65.5 38.5t-37 59t-11.5 75q0 20 2.5 41t7.5 44l94 441h129l-92 -440q-8 -38 -8 -62q0 -48 25 -68t73 -20q60 0 93 35t50 113zM275 856h327l-19 -89h-326z" />
<glyph unicode="&#x16b;" horiz-adv-x="512" d="M39 0zM241 500l-65 -309q-6 -30 -6 -50t8 -31t28 -11q17 0 34.5 8.5t33.5 22t29.5 30t22.5 32.5l64 308h123l-63 -300q-5 -20 -8.5 -47t-6.5 -55.5t-4 -54.5t0 -43h-99l-5 90h-4q-14 -19 -32.5 -37.5t-41 -33.5t-49 -24t-56.5 -9q-47 0 -76 23.5t-29 86.5q0 37 10 81 l69 323h123zM192 658h308l-19 -92h-308z" />
<glyph unicode="&#x16c;" horiz-adv-x="602" d="M63 0zM531 700h122l-95 -452q-15 -72 -39 -121.5t-58 -80.5t-80 -44.5t-106 -13.5q-58 0 -98 13.5t-65.5 38.5t-37 59t-11.5 75q0 20 2.5 41t7.5 44l94 441h129l-92 -440q-8 -38 -8 -62q0 -48 25 -68t73 -20q60 0 93 35t50 113zM300 875q18 -26 44 -40t65 -14q55 0 92 15 t65 39l49 -32q-17 -30 -40 -51.5t-50 -35t-57.5 -20t-61.5 -6.5q-26 0 -50.5 7.5t-45 22t-36 34.5t-22.5 44z" />
<glyph unicode="&#x16d;" horiz-adv-x="512" d="M39 0zM241 500l-65 -309q-6 -30 -6 -50t8 -31t28 -11q17 0 34.5 8.5t33.5 22t29.5 30t22.5 32.5l64 308h123l-63 -300q-5 -20 -8.5 -47t-6.5 -55.5t-4 -54.5t0 -43h-99l-5 90h-4q-14 -19 -32.5 -37.5t-41 -33.5t-49 -24t-56.5 -9q-47 0 -76 23.5t-29 86.5q0 37 10 81 l69 323h123zM255 720q21 -59 84 -59q39 0 70.5 15.5t52.5 43.5l51 -27q-8 -24 -25.5 -47.5t-42 -41.5t-55.5 -29t-64 -11q-62 0 -99 33.5t-39 90.5z" />
<glyph unicode="&#x16e;" horiz-adv-x="602" d="M63 0zM531 700h122l-95 -452q-15 -72 -39 -121.5t-58 -80.5t-80 -44.5t-106 -13.5q-58 0 -98 13.5t-65.5 38.5t-37 59t-11.5 75q0 20 2.5 41t7.5 44l94 441h129l-92 -440q-8 -38 -8 -62q0 -48 25 -68t73 -20q60 0 93 35t50 113zM303 772q0 18 6 34.5t20.5 29t39 19.5 t62.5 7q70 0 99 -24t30 -66q-1 -18 -7.5 -34t-21.5 -27.5t-39.5 -18.5t-60.5 -8q-71 1 -99.5 25.5t-28.5 62.5zM387 772q0 -31 44 -31q25 0 35 8t10 23q0 33 -45 33q-44 0 -44 -33z" />
<glyph unicode="&#x16f;" horiz-adv-x="512" d="M39 0zM241 500l-65 -309q-6 -30 -6 -50t8 -31t28 -11q17 0 34.5 8.5t33.5 22t29.5 30t22.5 32.5l64 308h123l-63 -300q-5 -20 -8.5 -47t-6.5 -55.5t-4 -54.5t0 -43h-99l-5 90h-4q-14 -19 -32.5 -37.5t-41 -33.5t-49 -24t-56.5 -9q-47 0 -76 23.5t-29 86.5q0 37 10 81 l69 323h123zM219 647q0 42 28.5 69t82.5 27q51 0 81 -24.5t30 -71.5q0 -39 -29.5 -66.5t-81.5 -27.5q-53 0 -82 25.5t-29 68.5zM291 647q0 -16 11.5 -24.5t27.5 -8.5q17 0 28 8t11 25t-11.5 25.5t-27.5 8.5t-27.5 -8t-11.5 -26z" />
<glyph unicode="&#x170;" horiz-adv-x="602" d="M63 0zM531 700h122l-95 -452q-15 -72 -39 -121.5t-58 -80.5t-80 -44.5t-106 -13.5q-58 0 -98 13.5t-65.5 38.5t-37 59t-11.5 75q0 20 2.5 41t7.5 44l94 441h129l-92 -440q-8 -38 -8 -62q0 -48 25 -68t73 -20q60 0 93 35t50 113zM354 850h126l-3 -16l-115 -93h-87z M542 850h132l-3 -16l-155 -93h-90z" />
<glyph unicode="&#x171;" horiz-adv-x="512" d="M39 0zM241 500l-65 -309q-6 -30 -6 -50t8 -31t28 -11q17 0 34.5 8.5t33.5 22t29.5 30t22.5 32.5l64 308h123l-63 -300q-5 -20 -8.5 -47t-6.5 -55.5t-4 -54.5t0 -43h-99l-5 90h-4q-14 -19 -32.5 -37.5t-41 -33.5t-49 -24t-56.5 -9q-47 0 -76 23.5t-29 86.5q0 37 10 81 l69 323h123zM273 700h112l-3 -16l-95 -113h-74zM442 700h120l-3 -16l-136 -113h-78z" />
<glyph unicode="&#x172;" horiz-adv-x="602" d="M531 700h122l-95 -452q-23 -108 -64.5 -166t-110.5 -80q-23 -14 -39 -33t-16 -45q0 -17 10 -27.5t28 -10.5q16 0 38 8l6 -62q-19 -13 -50.5 -23.5t-64.5 -10.5q-48 0 -71.5 24.5t-23.5 58.5q0 35 20 61.5t49 45.5q-56 1 -95.5 15t-64 38.5t-35.5 58.5t-11 74q0 20 2.5 41 t7.5 44l94 441h129l-92 -440q-8 -38 -8 -62q0 -48 25 -68t73 -20q60 0 93 35t50 113z" />
<glyph unicode="&#x173;" horiz-adv-x="512" d="M241 500l-65 -309q-6 -30 -6 -50t8 -31t28 -11q17 0 34.5 8.5t33.5 22t29.5 30t22.5 32.5l64 308h123l-63 -300q-5 -20 -8.5 -47t-6.5 -55.5t-4 -54.5t0 -43h-17q-31 -12 -52 -34t-21 -48q0 -11 4 -19.5t12.5 -12.5t22.5 -2t35 12l5 -62q-9 -6 -22 -12.5t-28.5 -11.5 t-33 -8.5t-33.5 -3.5q-53 0 -72.5 20.5t-19.5 53.5q0 23 10 43.5t26.5 37t38.5 29.5t46 21l-5 87h-4q-14 -19 -32.5 -37.5t-41 -33.5t-49 -24t-56.5 -9q-47 0 -76 23.5t-29 86.5q0 37 10 81l69 323h123z" />
<glyph unicode="&#x178;" horiz-adv-x="569" d="M106 0zM231 260l-125 440h144l65 -263l-2 -74h4l31 76l175 261h149l-311 -439l-55 -261h-129zM240 798q0 29 20 43.5t52 14.5t52 -14.5t20 -43.5t-20 -43t-52 -14t-52 14t-20 43zM444 798q0 29 20 43.5t52 14.5t52 -14.5t20 -43.5t-20 -43t-52 -14t-52 14t-20 43z" />
<glyph unicode="&#x179;" horiz-adv-x="518" d="M0 0zM15 122l360 416l58 40h-321l25 122h461l-25 -122l-362 -419l-56 -37h321l-26 -122h-461zM425 870h157l-6 -30l-172 -88h-104z" />
<glyph unicode="&#x17a;" horiz-adv-x="435" d="M0 0zM9 108l225 239l71 45h-236l24 108h372l-23 -108l-230 -243l-64 -41h234l-23 -108h-372zM323 720h125l-6 -30l-133 -124h-69z" />
<glyph unicode="&#x17b;" horiz-adv-x="518" d="M0 0zM15 122l360 416l58 40h-321l25 122h461l-25 -122l-362 -419l-56 -37h321l-26 -122h-461zM307 798q0 32 24 47t59 15q33 0 58 -15t25 -47t-25 -46.5t-58 -14.5q-35 0 -59 14.5t-24 46.5z" />
<glyph unicode="&#x17c;" horiz-adv-x="435" d="M0 0zM9 108l225 239l71 45h-236l24 108h372l-23 -108l-230 -243l-64 -41h234l-23 -108h-372zM212 642q0 33 21.5 51t54.5 18q32 0 54.5 -18t22.5 -51q0 -32 -22.5 -50.5t-54.5 -18.5q-33 0 -54.5 18.5t-21.5 50.5z" />
<glyph unicode="&#x17d;" horiz-adv-x="518" d="M0 0zM15 122l360 416l58 40h-321l25 122h461l-25 -122l-362 -419l-56 -37h321l-26 -122h-461zM410 737h-84l-101 94l8 39h92l41 -45l12 -30l25 29l64 46h98l-8 -40z" />
<glyph unicode="&#x17e;" horiz-adv-x="435" d="M0 0zM9 108l225 239l71 45h-236l24 108h372l-23 -108l-230 -243l-64 -41h234l-23 -108h-372zM325 550h-87l-70 182h103l23 -66l5 -49l28 49l56 66h98z" />
<glyph unicode="&#x17f;" horiz-adv-x="286" d="M66 500h76l6 28q20 95 67 137.5t120 42.5q43 0 71 -6.5t51 -17.5l-45 -90q-20 8 -36 9.5t-31 1.5q-40 0 -55.5 -28.5t-24.5 -76.5l-86 -500q-9 -51 -21 -90t-32.5 -65t-50.5 -39.5t-74 -13.5q-36 0 -70.5 5.5t-59.5 22.5l34 91q17 -7 34 -9t43 -2q32 0 49.5 25t25.5 75 l66 397h-77z" />
<glyph unicode="&#x192;" d="M349 390l-71 -424q-6 -37 -17.5 -68.5t-32 -55t-51 -37t-74.5 -13.5q-14 0 -34.5 2t-41.5 5t-40.5 7.5t-31.5 9.5l21 105q23 -10 44 -14.5t49 -4.5q36 0 56 24.5t29 81.5l61 382h-78v110h96l11 67q6 37 16.5 64.5t29 46t47.5 27.5t72 9q16 0 36.5 -2.5t41.5 -7t41 -10 t35 -12.5l-32 -97q-49 19 -95 19q-32 0 -44.5 -15.5t-18.5 -55.5l-5 -33h119v-110h-138z" />
<glyph unicode="&#x1f4;" horiz-adv-x="585" d="M58 0zM369 365h210l-66 -312q-45 -35 -94.5 -51t-106.5 -16q-55 0 -101.5 19t-80.5 55t-53 89t-19 121q0 115 31.5 199t85.5 138.5t126 80.5t152 26q57 0 101.5 -9.5t67.5 -19.5l-52 -115q-21 10 -52.5 16t-76.5 6q-53 0 -98 -20t-78 -59t-51.5 -96.5t-18.5 -131.5 q0 -83 39 -130t105 -47q49 0 86 25l28 133l-102 16zM513 870h157l-6 -30l-172 -88h-104z" />
<glyph unicode="&#x1f5;" horiz-adv-x="505" d="M0 0zM407 0q-13 -59 -35 -99.5t-52.5 -65.5t-70 -36t-87.5 -11q-35 0 -62.5 5t-48.5 12t-36.5 14.5t-24.5 13.5l46 91q9 -4 21 -9.5t27.5 -11t36 -9t47.5 -3.5q50 0 79.5 31t42.5 85l19 78h-4q-23 -36 -62.5 -64.5t-89.5 -28.5q-54 0 -87.5 40.5t-33.5 108.5 q0 77 22 144.5t61.5 118t93.5 79.5t119 29q61 0 106.5 -10.5t73.5 -23.5zM371 399q-11 6 -28 8t-34 2q-32 0 -59.5 -19t-47.5 -52t-31.5 -77.5t-11.5 -95.5q0 -32 13.5 -51t35.5 -19q17 0 35 10.5t34.5 26.5t29.5 35.5t21 36.5zM370 720h125l-6 -30l-133 -124h-69z" />
<glyph unicode="&#x218;" horiz-adv-x="510" d="M17 0zM521 559q-19 12 -56 24.5t-82 12.5q-23 0 -45 -4.5t-39 -14.5t-27 -26t-10 -38q0 -29 18 -49t45.5 -37.5t59 -35.5t59 -42t45.5 -57.5t18 -82.5q0 -59 -20.5 -101.5t-58 -69.5t-90 -39.5t-116.5 -12.5q-35 0 -66.5 4t-58.5 10t-47.5 13.5t-32.5 14.5l67 116 q10 -6 26 -13t36.5 -13t44.5 -10t48 -4q28 0 53 4.5t43.5 15t29 26.5t10.5 40q0 27 -18 46t-45.5 36t-59 35.5t-59 43.5t-45.5 60.5t-18 86.5q0 58 20.5 99t55.5 67t82 38t101 12q29 0 58 -3t55 -8.5t48 -13t37 -16.5zM135 -113q0 17 6.5 30t17 22t23.5 14t26 5 q38 0 50.5 -20.5t12.5 -49.5q0 -36 -14.5 -63.5t-34.5 -47.5t-42 -32.5t-38 -17.5l-21 54q15 7 31 19.5t24 32.5q-18 3 -29.5 15.5t-11.5 38.5z" />
<glyph unicode="&#x219;" horiz-adv-x="396" d="M0 0zM38 117q20 -11 51.5 -19.5t66.5 -8.5t53.5 13.5t19.5 41.5q0 20 -12 34.5t-30.5 27.5t-39.5 26.5t-39.5 31t-30.5 41.5t-12 58q0 33 13 61t36.5 48t57 31t75.5 11q58 0 96 -8.5t60 -21.5l-34 -94q-20 9 -48.5 15t-59.5 6q-32 0 -50.5 -11t-18.5 -35q0 -16 12 -28.5 t30.5 -25.5t39.5 -26.5t39.5 -32.5t30.5 -43.5t12 -58.5q0 -83 -54 -123.5t-144 -40.5q-51 0 -93.5 9.5t-65.5 23.5zM62 -113q0 17 6.5 30t17 22t23.5 14t26 5q38 0 50.5 -20.5t12.5 -49.5q0 -36 -14.5 -63.5t-34.5 -47.5t-42 -32.5t-38 -17.5l-21 54q15 7 31 19.5t24 32.5 q-18 3 -29.5 15.5t-11.5 38.5z" />
<glyph unicode="&#x237;" horiz-adv-x="244" d="M123 500h124l-111 -521q-19 -90 -64 -137.5t-122 -47.5q-31 0 -62 7l24 106q25 -2 43 4.5t30.5 20.5t21 35.5t14.5 48.5z" />
<glyph unicode="&#x2bc;" horiz-adv-x="216" d="M99 463zM121 637q0 18 7.5 31.5t18.5 22.5t24 13.5t25 4.5q35 0 50 -18t15 -49q0 -41 -15.5 -72t-38 -53t-47 -35t-42.5 -19l-19 55q21 9 38.5 24t24.5 38q-18 2 -30 16.5t-11 40.5z" />
<glyph unicode="&#x2c6;" horiz-adv-x="431" d="M456 732h82l67 -182h-96l-24 66l-4 49l-27 -49l-57 -66h-97z" />
<glyph unicode="&#x2c7;" horiz-adv-x="431" d="M489 550h-87l-70 182h103l23 -66l5 -49l28 49l56 66h98z" />
<glyph unicode="&#x2d8;" horiz-adv-x="285" d="M323 720q21 -59 84 -59q39 0 70.5 15.5t52.5 43.5l51 -27q-8 -24 -25.5 -47.5t-42 -41.5t-55.5 -29t-64 -11q-62 0 -99 33.5t-39 90.5z" />
<glyph unicode="&#x2d9;" horiz-adv-x="266" d="M313 642q0 33 21.5 51t54.5 18q32 0 54.5 -18t22.5 -51q0 -32 -22.5 -50.5t-54.5 -18.5q-33 0 -54.5 18.5t-21.5 50.5z" />
<glyph unicode="&#x2da;" horiz-adv-x="401" d="M382 647q0 42 28.5 69t82.5 27q51 0 81 -24.5t30 -71.5q0 -39 -29.5 -66.5t-81.5 -27.5q-53 0 -82 25.5t-29 68.5zM454 647q0 -16 11.5 -24.5t27.5 -8.5q17 0 28 8t11 25t-11.5 25.5t-27.5 8.5t-27.5 -8t-11.5 -26z" />
<glyph unicode="&#x2db;" horiz-adv-x="382" d="M464 10q-37 -12 -64.5 -33t-27.5 -53q0 -34 38 -34q14 0 38 8l5 -62q-18 -13 -49.5 -23t-64.5 -10q-48 0 -71.5 22t-23.5 56q0 27 11 47.5t29 36.5t40.5 27t45.5 18h94z" />
<glyph unicode="&#x2dc;" horiz-adv-x="349" d="M306 658q35 37 61.5 51t48.5 14q18 0 33.5 -7t31 -15t31 -15t33.5 -7q14 0 30.5 6t36.5 21l4 -70q-32 -32 -57 -44.5t-46 -12.5q-18 0 -34 6.5t-32 14.5t-32 14.5t-34 6.5q-15 0 -33 -6t-38 -22z" />
<glyph unicode="&#x2dd;" horiz-adv-x="475" d="M381 700h112l-3 -16l-95 -113h-74zM550 700h120l-3 -16l-136 -113h-78z" />
<glyph unicode="&#x301;" horiz-adv-x="2" d="M0 566zM-86 720h125l-6 -30l-133 -124h-69z" />
<glyph unicode="&#x394;" horiz-adv-x="589" d="M1 0v71l241 634h79l243 -634v-71h-563zM147 116h270l-112 298l-23 100h-5l-24 -101z" />
<glyph unicode="&#x3a9;" horiz-adv-x="782" d="M73 110h105l85 -13v28l-46 9q-30 14 -56 37t-45.5 56t-30.5 75.5t-11 94.5q0 73 23.5 131.5t67 99.5t104.5 63.5t135 22.5q78 0 139.5 -23.5t103.5 -65.5t64.5 -101t22.5 -131q0 -52 -12 -93.5t-31.5 -73.5t-45 -54.5t-52.5 -36.5l-49 -10v-28l85 13h106v-110h-300v203 q26 4 53.5 17t50 35.5t37 56t14.5 80.5q0 37 -10 73t-32 64.5t-57.5 45.5t-87.5 17q-89 0 -137 -51t-48 -152q0 -45 14 -78.5t36 -56t49.5 -35t54.5 -16.5v-203h-299v110z" />
<glyph unicode="&#x3bc;" horiz-adv-x="542" d="M238 500l-59 -273q-7 -31 -7 -59q0 -35 16 -53.5t51 -18.5q45 0 76 24t51 65l68 315h123l-72 -337q-8 -41 -14.5 -82.5t-5.5 -80.5h-90l-17 74h-3q-24 -35 -60.5 -60.5t-86.5 -25.5q-38 0 -56 17t-26 43h-5l-4 -115l-28 -133h-123l148 700h124z" />
<glyph unicode="&#x3c0;" horiz-adv-x="666" d="M515 156q-5 -28 0.5 -39t19.5 -11q10 0 22 2t21 4l1 -90q-21 -9 -52.5 -18.5t-75.5 -9.5q-41 0 -57.5 18t-16.5 50q0 10 1.5 21t3.5 23l60 284h-133l-82 -390h-123l82 390h-13q-17 0 -32 -10t-32 -34l-62 48q29 51 70.5 78.5t92.5 27.5h458l-23 -110h-79z" />
<glyph unicode="&#x401;" horiz-adv-x="503" d="M20 0zM168 700h130h264l-26 -122h-264l-35 -163h241l-27 -122h-239l-37 -171h269l-25 -122h-269h-130zM206 798q0 29 20 43.5t52 14.5t52 -14.5t20 -43.5t-20 -43t-52 -14t-52 14t-20 43zM410 798q0 29 20 43.5t52 14.5t52 -14.5t20 -43.5t-20 -43t-52 -14t-52 14t-20 43 z" />
<glyph unicode="&#x402;" horiz-adv-x="709" d="M297 0h-129l122 578h-194l26 122h517l-25 -122h-194l-31 -143q17 6 45 14t79 8q48 0 81 -14.5t53.5 -40t29.5 -59t9 -70.5q0 -54 -16 -104.5t-50 -89.5t-87.5 -62.5t-128.5 -23.5q-53 0 -65 4l26 117q6 -1 20.5 -2t30.5 -1q31 0 56 11t42 30t26 44t9 53q0 49 -24 67.5 t-74 18.5q-22 0 -48 -6t-39 -12z" />
<glyph unicode="&#x403;" horiz-adv-x="436" d="M20 0zM528 578h-256l-122 -578h-130l148 700h386zM420 870h157l-6 -30l-172 -88h-104z" />
<glyph unicode="&#x404;" horiz-adv-x="559" d="M498 29q-35 -22 -82.5 -32.5t-96.5 -10.5q-66 0 -115 22t-81.5 61t-48.5 91t-16 112q0 118 33 201.5t87 137t123.5 78.5t142.5 25q28 0 54.5 -2.5t50 -6.5t41.5 -9t30 -10l-51 -116q-21 11 -56 16.5t-78 5.5q-77 0 -136 -46t-86 -130h271l-24 -113h-265v-15 q0 -85 42.5 -132.5t113.5 -47.5q45 0 82 9.5t62 23.5z" />
<glyph unicode="&#x405;" horiz-adv-x="510" d="M0 0zM502 559q-19 12 -56 24.5t-82 12.5q-23 0 -45 -4.5t-39 -14.5t-27 -26t-10 -38q0 -29 18 -49t45.5 -37.5t59 -35.5t59 -42t45.5 -57.5t18 -82.5q0 -59 -20.5 -101.5t-58 -69.5t-90 -39.5t-116.5 -12.5q-35 0 -66.5 4t-58.5 10t-47.5 13.5t-32.5 14.5l67 116 q10 -6 26 -13t36.5 -13t44.5 -10t48 -4q28 0 53 4.5t43.5 15t29 26.5t10.5 40q0 27 -18 46t-45.5 36t-59 35.5t-59 43.5t-45.5 60.5t-18 86.5q0 58 20.5 99t55.5 67t82 38t101 12q29 0 58 -3t55 -8.5t48 -13t37 -16.5z" />
<glyph unicode="&#x406;" horiz-adv-x="278" d="M35 0zM183 700h129l-148 -700h-129z" />
<glyph unicode="&#x407;" horiz-adv-x="278" d="M183 700h129l-148 -700h-129zM138 792q1 30 16 47t41 17q25 0 40.5 -17t15.5 -47q0 -29 -15.5 -45.5t-40.5 -16.5q-26 0 -41 16.5t-16 45.5zM272 792q0 30 15.5 47t40.5 17t41 -17t16 -47q0 -29 -16 -45.5t-41 -16.5t-40.5 16.5t-15.5 45.5z" />
<glyph unicode="&#x408;" horiz-adv-x="324" d="M0 0zM239 700h130l-109 -512q-9 -42 -23 -78.5t-37 -63.5t-57.5 -42.5t-83.5 -15.5q-28 0 -59 6t-51 17l50 112q23 -13 54 -13q21 0 35 8.5t23.5 23.5t15.5 35.5t12 45.5z" />
<glyph unicode="&#x409;" horiz-adv-x="890" d="M489 578h-139q-23 -95 -43.5 -173t-41 -140t-43.5 -110t-50 -84q-18 -24 -37.5 -39t-39 -23.5t-37.5 -12t-34 -3.5q-46 0 -72 14l39 118q5 -2 10.5 -3t10.5 -1q17 -1 34.5 8t32.5 29q18 22 38 64t41.5 108t45 157t49.5 213h123h139h130l-53 -251q12 2 37.5 5t47.5 3 q46 0 84 -12.5t66 -36.5t43.5 -59t15.5 -81q0 -75 -26 -128t-71 -86t-106 -48.5t-130 -15.5q-13 0 -35.5 0.5t-48.5 2.5t-53 5t-48 9zM521 118q11 -2 28 -4t36 -2q33 0 62.5 7.5t52 24t36 41.5t13.5 61q0 50 -32 69.5t-85 19.5q-6 0 -16 -1t-19.5 -2t-18 -2.5t-12.5 -2.5z " />
<glyph unicode="&#x40a;" horiz-adv-x="916" d="M458 305h-243l-65 -305h-130l148 700h130l-58 -273h243l58 273h130l-56 -266q6 1 16.5 2.5t23 3t26 2t24.5 0.5q94 0 150.5 -48t56.5 -140q0 -61 -20.5 -110t-61.5 -83t-103.5 -52.5t-147.5 -18.5q-13 0 -34 0.5t-49 2t-54.5 4t-47.5 6.5zM548 118q10 -3 28 -4.5t37 -1.5 q83 0 122.5 32t39.5 94q0 47 -30 64.5t-87 17.5q-7 0 -17 -1l-20 -2t-19 -3t-13 -3z" />
<glyph unicode="&#x40b;" horiz-adv-x="727" d="M297 0h-129l122 578h-194l26 122h517l-25 -122h-195l-37 -177q28 16 64.5 28.5t89.5 12.5q33 0 62 -8.5t50.5 -27.5t34.5 -48t13 -70q0 -14 -1.5 -30.5t-5.5 -33.5l-47 -224h-130l44 202q2 12 3.5 22.5t1.5 20.5q0 79 -82 79q-36 0 -65.5 -9.5t-54.5 -24.5z" />
<glyph unicode="&#x40c;" horiz-adv-x="593" d="M20 0zM260 299h-47l-63 -299h-130l148 700h130l-66 -310l31 11l237 299h156l-252 -297l-60 -35l44 -39l152 -329h-145zM444 870h157l-6 -30l-172 -88h-104z" />
<glyph unicode="&#x40e;" horiz-adv-x="546" d="M52 0zM315 391l1 -91h6l33 94l163 306h145l-280 -484q-33 -57 -59 -99t-51.5 -69.5t-54.5 -41t-68 -13.5q-61 0 -98 24l57 111q14 -8 26 -10.5t27 -2.5q21 0 41 21.5t39 55.5l-140 508h143zM335 874q-2 -28 13.5 -44t43.5 -16q65 0 85 59l114 -17q-21 -61 -74.5 -91 t-134.5 -30q-39 0 -68 9.5t-48 25.5t-28.5 37.5t-10.5 46.5z" />
<glyph unicode="&#x40f;" horiz-adv-x="614" d="M531 700h129l-148 -700h-133h-65l-26 -175h-116l45 175h-67h-130l148 700h130l-123 -578h233z" />
<glyph unicode="&#x410;" horiz-adv-x="582" d="M0 0zM387 155h-204l-83 -155h-138l389 705h96l91 -705h-131zM240 265h142l-16 156l1 110h-5l-40 -111z" />
<glyph unicode="&#x411;" horiz-adv-x="548" d="M167 700h130h278l-26 -122h-278l-31 -146q17 3 41 6t47 3q55 0 93.5 -15t63 -40t35.5 -58t11 -68q0 -63 -21.5 -113t-63 -85t-101.5 -53.5t-136 -18.5q-16 0 -37.5 1t-50.5 3t-55.5 5t-45.5 8zM171 108q10 -3 31 -4t41 -1q28 0 55 8.5t48.5 25t34.5 41.5t13 58 q0 52 -30.5 72t-85.5 20q-14 0 -34 -2.5t-28 -4.5z" />
<glyph unicode="&#x412;" horiz-adv-x="568" d="M20 0zM166 695q19 3 43 6t51 5t55.5 3t55.5 1q46 0 85.5 -9.5t68 -29.5t45 -51.5t16.5 -75.5q0 -33 -11 -63.5t-31.5 -54.5t-49 -40t-64.5 -21v-5q19 -4 38 -14.5t34 -27t24 -39t9 -50.5q0 -64 -25 -109.5t-67 -74t-98 -42t-118 -13.5h-41.5t-54.5 1.5t-58 4.5t-53 9z M167 109q4 -2 14.5 -3t23 -1.5t25.5 -1t22 -0.5q25 0 51.5 6t48 20t35.5 36t14 54q0 25 -11 41t-29 25.5t-41.5 13t-48.5 3.5h-64zM230 406h43q14 0 33 0.5t32 2.5q18 3 38.5 10t37 20t27.5 33t11 50q0 43 -28.5 59t-72.5 16q-26 0 -48 -1t-34 -3z" />
<glyph unicode="&#x413;" horiz-adv-x="436" d="M528 578h-256l-122 -578h-130l148 700h386z" />
<glyph unicode="&#x414;" horiz-adv-x="663" d="M575 -125h-91l12 125h-427l-41 -125h-92l52 247h70q9 11 33.5 48.5t54.5 107t62.5 173.5t58.5 249h117h152h130l-123 -578h85zM414 122l96 456h-146q-42 -180 -87 -293t-79 -163h216z" />
<glyph unicode="&#x415;" horiz-adv-x="503" d="M20 0zM168 700h130h264l-26 -122h-264l-35 -163h241l-27 -122h-239l-37 -171h269l-25 -122h-269h-130z" />
<glyph unicode="&#x416;" horiz-adv-x="803" d="M440 700h124l-66 -311l34 11l195 300h154l-219 -307l-53 -34l42 -42l112 -317h-144l-98 304h-41l-64 -304h-124l67 316l-33 -12l-213 -304h-159l236 307l61 39l-38 37l-98 317h140l82 -299h40z" />
<glyph unicode="&#x417;" horiz-adv-x="507" d="M141 309l23 108h23q9 0 21 0.5t24.5 1.5t24.5 2t20 2q20 3 40 9.5t35.5 18.5t25.5 29t10 41q0 32 -24.5 50.5t-72.5 18.5q-42 0 -80.5 -12t-63.5 -23l-9 116q12 6 32.5 13t46 13t55.5 10.5t60 4.5q42 0 77 -9.5t61 -28.5t40.5 -47.5t14.5 -65.5q0 -69 -37.5 -121 t-111.5 -69v-5q19 -6 37 -16.5t31.5 -27.5t22 -41t8.5 -57q0 -61 -24 -105.5t-65.5 -74t-97.5 -44t-119 -14.5t-112.5 11t-73.5 26l58 119q20 -11 58 -22.5t94 -11.5q24 0 50 6t47 19.5t34.5 35.5t13.5 54q0 49 -34.5 66.5t-98.5 19.5h-38h-26z" />
<glyph unicode="&#x418;" horiz-adv-x="638" d="M487 381l29 89h-6l-64 -96l-326 -374h-100l148 700h130l-79 -374l-30 -92h6l66 99l324 367h100l-148 -700h-130z" />
<glyph unicode="&#x419;" horiz-adv-x="638" d="M20 0zM487 381l29 89h-6l-64 -96l-326 -374h-100l148 700h130l-79 -374l-30 -92h6l66 99l324 367h100l-148 -700h-130zM398 874q-2 -28 13.5 -44t43.5 -16q65 0 85 59l114 -17q-21 -61 -74.5 -91t-134.5 -30q-39 0 -68 9.5t-48 25.5t-28.5 37.5t-10.5 46.5z" />
<glyph unicode="&#x41a;" horiz-adv-x="593" d="M20 0zM260 299h-47l-63 -299h-130l148 700h130l-66 -310l31 11l237 299h156l-252 -297l-60 -35l44 -39l152 -329h-145z" />
<glyph unicode="&#x41b;" horiz-adv-x="599" d="M490 578h-140q-23 -95 -43.5 -173t-41 -140t-43.5 -110t-50 -84q-18 -24 -37.5 -39t-39 -23.5t-37.5 -12t-34 -3.5q-46 0 -72 14l39 118q5 -2 10.5 -3t10.5 -1q17 -1 34.5 8t32.5 29q18 22 38 64t41.5 108t45 157t49.5 213h123h139h130l-148 -700h-129z" />
<glyph unicode="&#x41c;" horiz-adv-x="767" d="M20 0zM613 363l44 138h-6l-66 -113l-197 -259h-41l-94 262l-18 110h-5l-10 -137l-77 -364h-123l148 700h115l105 -320l13 -80h5l46 82l236 318h125l-148 -700h-129z" />
<glyph unicode="&#x41d;" horiz-adv-x="624" d="M20 0zM455 293h-243l-62 -293h-130l148 700h130l-60 -285h243l60 285h130l-148 -700h-130z" />
<glyph unicode="&#x41e;" horiz-adv-x="644" d="M58 0zM58 262q0 93 25.5 175.5t72.5 144t113.5 97t148.5 35.5q54 0 97.5 -16t74 -49.5t47.5 -84.5t17 -121q0 -94 -25.5 -177t-72 -145.5t-111 -98.5t-142.5 -36q-118 0 -181 69.5t-64 206.5zM195 266q0 -72 27.5 -115t90.5 -43q46 0 83.5 27.5t64.5 74t41.5 106.5 t14.5 125q0 79 -31 115t-85 36q-45 0 -82.5 -26t-65 -70.5t-43 -104t-15.5 -125.5z" />
<glyph unicode="&#x41f;" horiz-adv-x="613" d="M504 578h-232l-122 -578h-130l148 700h130h232h130l-148 -700h-130z" />
<glyph unicode="&#x420;" horiz-adv-x="550" d="M20 0zM167 693q42 8 89.5 12.5t95.5 4.5q51 0 94.5 -11.5t76 -35.5t50.5 -61.5t18 -89.5q0 -78 -27 -130.5t-71.5 -85t-101.5 -46t-116 -13.5h-15.5t-22 0.5t-22 1.5t-15.5 2l-50 -241h-130zM226 359q4 -1 11 -2t15.5 -1.5t16 -0.5h11.5q34 0 65.5 7.5t55.5 24t38.5 43.5 t14.5 66q0 29 -9.5 48t-25.5 29.5t-37.5 14.5t-45.5 4q-18 0 -34.5 -1.5t-27.5 -3.5z" />
<glyph unicode="&#x421;" horiz-adv-x="537" d="M58 0zM483 29q-67 -43 -164 -43q-66 0 -115 22t-81.5 61t-48.5 91t-16 112q0 118 33 201.5t87 137t123.5 78.5t142.5 25q57 0 97.5 -8.5t63.5 -19.5l-51 -116q-20 11 -48 16.5t-71 5.5q-51 0 -95 -21t-76 -60t-50.5 -95t-18.5 -127q0 -85 42.5 -133t113.5 -48 q45 0 74.5 9.5t55.5 23.5z" />
<glyph unicode="&#x422;" horiz-adv-x="547" d="M96 0zM614 578h-194l-123 -578h-129l122 578h-194l26 122h517z" />
<glyph unicode="&#x423;" horiz-adv-x="546" d="M315 391l1 -91h6l33 94l163 306h145l-280 -484q-33 -57 -59 -99t-51.5 -69.5t-54.5 -41t-68 -13.5q-61 0 -98 24l57 111q14 -8 26 -10.5t27 -2.5q21 0 41 21.5t39 55.5l-140 508h143z" />
<glyph unicode="&#x424;" horiz-adv-x="770" d="M297 78q-20 -4 -35 -5.5t-40 -1.5q-34 0 -65 12.5t-54.5 38t-37.5 64t-14 89.5q0 90 23.5 158.5t65 114t97 69t118.5 23.5q13 0 31 -1.5t29 -3.5l18 85h128l-18 -88q19 5 38.5 6.5t34.5 1.5q78 0 125 -51.5t47 -151.5q0 -80 -21.5 -147t-60.5 -116t-93.5 -76t-121.5 -27 q-17 0 -35 1.5t-31 5.5l-21 -98h-128zM442 183q8 -2 19.5 -2h23.5q36 0 67 16.5t54.5 47t37 74.5t13.5 99q0 112 -91 112q-11 0 -26 -1t-26 -4zM397 527q-10 2 -22.5 2.5t-23.5 0.5q-36 0 -66.5 -16t-53.5 -46.5t-36 -74t-13 -98.5q0 -31 7.5 -52.5t20 -35t29.5 -20t36 -6.5 q8 0 23 0.5t27 4.5z" />
<glyph unicode="&#x425;" horiz-adv-x="608" d="M0 0zM256 357l-113 343h141l60 -202l10 -71l37 71l149 202h156l-263 -338l125 -362h-139l-72 216l-12 74l-40 -74l-161 -216h-158z" />
<glyph unicode="&#x426;" horiz-adv-x="655" d="M566 -125h-91l12 125h-107h-230h-130l148 700h130l-123 -578h230l123 578h129l-122 -578h84z" />
<glyph unicode="&#x427;" horiz-adv-x="583" d="M284 700l-46 -217q-3 -13 -3.5 -24t-0.5 -22q0 -39 18.5 -58t60.5 -19q36 0 67.5 8t53.5 25l65 307h130l-148 -700h-130l60 282q-14 -7 -29 -14t-33 -13t-40.5 -9.5t-50.5 -3.5q-35 0 -64.5 9t-51 28t-33.5 48t-12 68q0 31 7 63l51 242h129z" />
<glyph unicode="&#x428;" horiz-adv-x="825" d="M437 0h-130h-157h-130l148 700h130l-123 -578h157l123 578h129l-122 -578h157l122 578h130l-148 -700h-129h-157z" />
<glyph unicode="&#x429;" horiz-adv-x="869" d="M150 0h-130l148 700h130l-123 -578h157l123 578h129l-122 -578h157l122 578h130l-123 -578h88l-52 -247h-91l12 125h-111h-157h-130h-157z" />
<glyph unicode="&#x42a;" horiz-adv-x="632" d="M232 578h-151l25 122h151h130l-53 -251q13 2 38.5 5t47.5 3q95 0 151.5 -50t56.5 -139q0 -64 -21 -115.5t-62 -87.5t-103.5 -55.5t-144.5 -19.5q-13 0 -34.5 0.5t-49 2.5t-54.5 5t-48 9zM264 118q10 -3 26.5 -4.5t35.5 -1.5q32 0 62 7.5t53 24t36.5 42t13.5 61.5 q0 26 -9 43t-24.5 27t-36.5 14t-45 4q-7 0 -17 -1l-20 -2t-18.5 -2.5t-12.5 -2.5z" />
<glyph unicode="&#x42b;" horiz-adv-x="765" d="M681 700h130l-148 -700h-130zM167 700h130l-53 -251q13 2 33 5t43 3q48 0 85.5 -13.5t63 -38t38.5 -58t13 -73.5q0 -66 -22 -118.5t-64 -89.5t-103 -56.5t-139 -19.5h-26t-16 1q-18 0 -39 2t-45.5 5t-45.5 9zM173 118q21 -6 54 -6t61.5 9t49.5 26.5t33 42.5t12 58 q0 87 -106 87q-13 0 -32 -2.5t-27 -5.5z" />
<glyph unicode="&#x42c;" horiz-adv-x="542" d="M167 700h130l-53 -251q12 2 37.5 5t47.5 3q46 0 84 -12.5t66 -36.5t43.5 -59t15.5 -81q0 -75 -26 -128t-71 -86t-106 -48.5t-130 -15.5q-13 0 -34 0.5t-48.5 2.5t-54.5 5t-48 9zM173 118q11 -2 28 -4t36 -2q33 0 62.5 7.5t52 24t36 41.5t13.5 61q0 50 -32 69.5t-85 19.5 q-6 0 -16 -1t-19.5 -2t-18 -2.5t-12.5 -2.5z" />
<glyph unicode="&#x42d;" horiz-adv-x="552" d="M176 410h251q3 38 -2 71.5t-21.5 58t-47 38.5t-78.5 14q-50 0 -85 -11.5t-61 -25.5l-4 116q38 18 82.5 30.5t95.5 12.5q70 0 119.5 -22t80 -59t44.5 -84.5t14 -99.5q0 -99 -24 -184t-73.5 -147t-125.5 -97t-180 -35q-26 0 -51.5 3t-48.5 7.5t-42 10.5t-31 12l60 119 q19 -11 54 -20.5t83 -9.5q44 0 83 14t69 39.5t50.5 61t28.5 77.5h-263z" />
<glyph unicode="&#x42e;" horiz-adv-x="864" d="M238 415h85q42 147 127.5 223t198.5 76q109 0 167.5 -66t58.5 -181q0 -97 -23.5 -184.5t-68.5 -153.5t-112 -104.5t-154 -38.5q-56 0 -96.5 19.5t-66.5 54t-38.5 80.5t-12.5 100q0 26 3 53h-94l-62 -293h-130l148 700h130zM435 249q0 -64 24 -102.5t82 -38.5 q45 0 81.5 29.5t62 78t39.5 112t14 131.5q0 63 -26 98t-80 35q-44 0 -80 -28.5t-62 -76t-40.5 -109.5t-14.5 -129z" />
<glyph unicode="&#x42f;" horiz-adv-x="557" d="M327 0l59 277l-70 -18l-195 -259h-151l184 235l66 44q-18 8 -37.5 22t-35.5 35t-26 50t-10 68q0 75 29 124t75.5 78.5t106 41.5t120.5 12q15 0 30 -1q1 0 14.5 -0.5t36 -2.5t43.5 -5t37 -8l-147 -693h-129zM451 583q-11 2 -23 3.5t-29 1.5q-27 0 -54 -5.5t-48.5 -19.5 t-35 -38.5t-13.5 -61.5q0 -48 29.5 -72.5t77.5 -24.5h49z" />
<glyph unicode="&#x430;" horiz-adv-x="503" d="M33 0zM444 200q-8 -38 -11.5 -77t-3.5 -74q0 -14 0.5 -26.5t1.5 -23.5h-91l-14 86h-4q-11 -18 -28.5 -35.5t-38.5 -32t-44.5 -23t-48.5 -8.5q-66 0 -97.5 43t-31.5 115q0 73 18.5 140t57.5 118t98.5 81.5t141.5 30.5q35 0 76.5 -6.5t80.5 -17.5zM209 89q18 0 34 7.5 t29.5 19.5t24 26t18.5 26l50 233q-11 5 -25.5 7.5t-28.5 2.5q-36 0 -64 -21.5t-47.5 -56t-29.5 -78t-10 -87.5q0 -32 10.5 -55.5t38.5 -23.5z" />
<glyph unicode="&#x431;" horiz-adv-x="505" d="M176 392q72 97 180 97q39 0 66 -11.5t44 -32t24.5 -49t7.5 -62.5q0 -80 -21.5 -144.5t-59 -109.5t-87 -69.5t-104.5 -24.5q-47 0 -81.5 14.5t-57 40t-34 61.5t-11.5 79q0 105 23 196t63 159t95 109t120 46q82 7 134 13t73 23l-13 -115q-20 -14 -59 -21.5t-108 -12.5 q-33 -3 -62 -10.5t-54 -27.5t-46 -55t-37 -93h5zM169 184q0 -19 3 -36.5t10.5 -30.5t21.5 -20.5t35 -7.5q24 0 47.5 16t42.5 44.5t30.5 68t11.5 87.5q0 15 -3.5 29.5t-11.5 26t-21 18.5t-32 7q-27 0 -51.5 -15.5t-42.5 -42.5t-29 -64t-11 -80z" />
<glyph unicode="&#x432;" horiz-adv-x="465" d="M54 288q11 48 33 88.5t54 70t73.5 45.5t90.5 16q44 0 74 -7t48.5 -20.5t26.5 -32.5t8 -44q0 -24 -9 -45.5t-24 -39.5t-36 -32t-45 -21l-1 -4q41 -5 63 -24.5t22 -61.5q0 -44 -18 -78t-49.5 -57.5t-74.5 -36t-93 -12.5q-36 0 -66 9t-52 28t-34 49t-12 73q0 20 3 41.5 t8 46.5zM154 197q-4 -19 -4 -38q0 -67 67 -67q38 0 64.5 20t26.5 57q0 22 -18 36.5t-64 10.5l-69 -5zM246 296q12 1 27.5 6t29 13.5t23 21t9.5 29.5q0 20 -9 31t-41 11q-81 0 -106 -92l-8 -28z" />
<glyph unicode="&#x433;" horiz-adv-x="410" d="M351 40q-32 -24 -76.5 -39t-86.5 -15q-48 0 -81 11.5t-54 31t-30.5 44t-9.5 50.5q0 47 19.5 77.5t48.5 50t62.5 31.5t62.5 23t48.5 24t19.5 35q0 23 -13 32.5t-42 9.5q-45 0 -74 -8.5t-50 -18.5l-15 93q16 9 37.5 15.5t45.5 11.5t48.5 7.5t45.5 2.5q40 0 67.5 -9 t44.5 -24.5t24.5 -36.5t7.5 -45q0 -49 -19.5 -79.5t-48.5 -50.5t-62.5 -32t-62.5 -23.5t-48.5 -26.5t-19.5 -39q0 -26 19 -40t48 -14q34 0 65.5 9t51.5 22z" />
<glyph unicode="&#x434;" horiz-adv-x="501" d="M293 500q27 0 43 -5t28 -13h5q-6 72 -56.5 107t-129.5 34l20 91q148 4 219 -72.5t71 -220.5q0 -110 -23 -191.5t-62 -135.5t-89 -81t-104 -27q-91 0 -134.5 54.5t-43.5 145.5q0 63 18.5 119.5t52.5 100t81 69t104 25.5zM366 373q-14 12 -29.5 18t-39.5 6q-26 0 -50 -14.5 t-42.5 -42t-29.5 -67t-11 -89.5q0 -38 15.5 -66.5t48.5 -28.5q37 0 63 27.5t42.5 69.5t24.5 92t8 95z" />
<glyph unicode="&#x435;" horiz-adv-x="466" d="M34 0zM402 48q-31 -26 -80 -44t-114 -18q-81 0 -127.5 47.5t-46.5 132.5q0 80 25 144.5t65.5 109.5t91.5 69.5t102 24.5q41 0 70.5 -10.5t48.5 -29t28 -42.5t9 -51q0 -41 -21 -72t-58.5 -51.5t-90.5 -31t-116 -10.5q-8 0 -15 0.5t-15 0.5q-2 -12 -3 -21.5t-1 -17.5 q0 -45 23.5 -67t66.5 -22q44 0 79 13t53 26zM176 295q28 0 59.5 2t58.5 9.5t45 22t18 39.5q0 15 -11 30.5t-46 15.5q-44 0 -76.5 -34t-47.5 -85z" />
<glyph unicode="&#x436;" horiz-adv-x="757" d="M249 206q-15 -57 -36.5 -97.5t-47 -65.5t-54 -36.5t-58.5 -11.5q-20 0 -39 5t-39 13l33 100q18 -5 32 -5q37 0 65 34t44 115q4 20 5 36t1 30q0 51 -20.5 67.5t-55.5 10.5l-12 89q45 12 80 12q60 0 91 -35t31 -110q0 -14 -1 -28.5t-3 -31.5h76l43 203h118l-44 -203h70 q14 58 34.5 97.5t45.5 64t53 35t56 10.5q31 0 65 -13l-26 -90q-11 3 -21 3q-31 0 -58 -29.5t-44 -106.5q-9 -39 -9 -72q0 -26 5 -46t15.5 -33t25.5 -17t35 3l12 -90q-47 -16 -82 -16q-34 0 -58 13.5t-39 36.5t-21.5 54.5t-6.5 66.5q0 10 0.5 19t1.5 19h-73l-43 -206h-118 l44 206h-73z" />
<glyph unicode="&#x437;" horiz-adv-x="407" d="M100 208l19 89h58q16 0 32.5 5t29 14t20.5 21t8 26q0 24 -15.5 34t-53.5 10q-33 0 -56 -6t-48 -17l-21 91q16 9 37 15t44.5 10.5t48 6.5t47.5 2q80 0 113.5 -28.5t33.5 -78.5q0 -24 -8 -45.5t-22 -38.5t-32.5 -30t-39.5 -20v-4q42 -10 57 -35.5t15 -56.5q0 -43 -18 -77 t-50 -57.5t-75.5 -36t-94.5 -12.5q-48 0 -87.5 12t-61.5 28l46 94q20 -13 49.5 -22.5t66.5 -9.5q47 0 73 21.5t26 54.5q0 22 -19 31.5t-76 9.5h-46z" />
<glyph unicode="&#x438;" horiz-adv-x="512" d="M39 0zM241 500l-65 -309q-6 -30 -6 -50t8 -31t28 -11q17 0 34.5 8.5t33.5 22t29.5 30t22.5 32.5l64 308h123l-63 -300q-5 -20 -8.5 -47t-6.5 -55.5t-4 -54.5t0 -43h-99l-5 90h-4q-14 -19 -32.5 -37.5t-41 -33.5t-49 -24t-56.5 -9q-47 0 -76 23.5t-29 86.5q0 37 10 81 l69 323h123z" />
<glyph unicode="&#x439;" horiz-adv-x="512" d="M39 0zM241 500l-65 -309q-6 -30 -6 -50t8 -31t28 -11q17 0 34.5 8.5t33.5 22t29.5 30t22.5 32.5l64 308h123l-63 -300q-5 -20 -8.5 -47t-6.5 -55.5t-4 -54.5t0 -43h-99l-5 90h-4q-14 -19 -32.5 -37.5t-41 -33.5t-49 -24t-56.5 -9q-47 0 -76 23.5t-29 86.5q0 37 10 81 l69 323h123zM293 704q-2 -39 10 -55t37 -16q26 0 45.5 16t33.5 54l88 -25q-25 -65 -76 -96.5t-112 -31.5q-29 0 -55 7t-44.5 22.5t-28.5 39.5t-8 59z" />
<glyph unicode="&#x43a;" horiz-adv-x="472" d="M225 207h-44l-43 -207h-123l106 500h123l-46 -213l36 13l139 200h135l-146 -190l-58 -38l46 -39l79 -233h-131z" />
<glyph unicode="&#x43b;" horiz-adv-x="502" d="M363 397h-92q-25 -93 -48.5 -167.5t-51.5 -127t-62.5 -80.5t-80.5 -28q-54 0 -75 15l38 108q17 -5 29 -5q20 1 37.5 18t36.5 60.5t40.5 118.5t49.5 191h323l-106 -500h-123z" />
<glyph unicode="&#x43c;" horiz-adv-x="641" d="M470 229l30 104h-5l-56 -86l-123 -155h-45l-64 155l-18 86h-6l-9 -103l-48 -230h-111l106 500h122l67 -188l15 -63h3l41 65l141 186h136l-106 -500h-118z" />
<glyph unicode="&#x43d;" horiz-adv-x="518" d="M335 195h-156l-41 -195h-123l106 500h123l-41 -187h156l40 187h124l-106 -500h-124z" />
<glyph unicode="&#x43e;" horiz-adv-x="496" d="M34 0zM34 162q0 79 22.5 144t60 111t87 71.5t103.5 25.5q48 0 81 -15t53.5 -40t29.5 -57t9 -66q0 -78 -22 -142.5t-59 -110.5t-86 -71.5t-103 -25.5q-47 0 -80 15.5t-54.5 40.5t-31.5 56.5t-10 63.5zM161 179q0 -90 65 -90q24 0 47 21t41 55t28.5 77t10.5 86 q0 40 -13.5 61.5t-50.5 21.5q-24 0 -47 -20t-41 -52.5t-29 -74.5t-11 -85z" />
<glyph unicode="&#x43f;" horiz-adv-x="521" d="M14 0zM295 0l66 310q6 28 6 49q0 22 -9 34.5t-33 12.5q-18 0 -36 -9t-34 -24t-30 -33.5t-24 -37.5l-64 -302h-123l106 500h93l-5 -88h4q13 16 30.5 34t40.5 33t51.5 25t64.5 10q45 0 72 -24.5t27 -81.5q0 -15 -1.5 -32t-6.5 -37l-72 -339h-123z" />
<glyph unicode="&#x440;" horiz-adv-x="506" d="M0 0zM122 500h91l-5 -88h4q14 19 32 37.5t40 32.5t47 23t54 9q51 0 82 -35t31 -110q0 -85 -22.5 -155.5t-60 -121t-88 -78.5t-105.5 -28q-26 0 -49 5t-34 13l-43 -204h-122zM160 106q25 -17 56 -17t59 21t49.5 56t34 81.5t12.5 97.5q0 29 -13.5 47.5t-36.5 18.5 q-18 0 -35 -9t-32 -22.5t-27 -30.5t-21 -33z" />
<glyph unicode="&#x441;" horiz-adv-x="412" d="M34 0zM393 387q-19 11 -39.5 15t-44.5 4q-27 0 -52.5 -17.5t-46 -46t-32.5 -66.5t-12 -78q0 -51 22 -77.5t58 -26.5q30 0 55.5 9.5t45.5 21.5l23 -84q-32 -24 -74.5 -39.5t-84.5 -15.5q-48 0 -81.5 14t-54.5 38t-31 55t-10 65q0 84 24 150t63.5 111.5t90 70t103.5 24.5 q47 0 74.5 -9t49.5 -20z" />
<glyph unicode="&#x442;" horiz-adv-x="767" d="M18 0zM283 0l57 272q6 28 9.5 49.5t3.5 38.5q0 46 -35 46q-17 0 -34 -9t-31.5 -23t-27 -30.5t-20.5 -31.5l-64 -312h-123l106 500h96l-6 -88h4q15 16 32.5 34t39.5 33t49 25t59 10q40 0 60.5 -29t18.5 -77q15 19 34.5 38t42 34t48 24.5t52.5 9.5q46 0 70.5 -21.5 t24.5 -80.5q0 -43 -15 -112l-63 -300h-123l59 281q5 23 8 43t3 35q0 23 -8.5 35t-28.5 12q-16 0 -32.5 -9.5t-31.5 -24t-27.5 -31.5t-19.5 -32l-64 -309h-123z" />
<glyph unicode="&#x443;" horiz-adv-x="452" d="M0 0zM216 219l1 -78h6l27 79l136 280h131l-240 -449q-30 -56 -56.5 -103t-53.5 -81t-56 -53t-62 -19q-44 0 -66 15l33 98q6 -3 12.5 -4t12.5 -1q24 0 49 23t50 74l-94 500h141z" />
<glyph unicode="&#x444;" horiz-adv-x="689" d="M237 -6q-16 -5 -30 -6.5t-26 -1.5q-77 0 -114.5 45t-37.5 118q0 89 23 156.5t61 113t87 68.5t101 23q26 0 45 -4l41 194h121l-41 -195q17 3 30.5 4t26.5 1q79 0 116.5 -43.5t37.5 -115.5q0 -93 -24 -162t-62.5 -114t-86.5 -67t-96 -22q-9 0 -25 1.5t-26 5.5l-41 -193 h-121zM374 90q7 -2 16 -3t19 -1q25 0 51 16.5t47 48t34 78t13 105.5q0 37 -18.5 56.5t-60.5 19.5q-10 0 -16.5 -1.5t-17.5 -4.5zM330 405q-9 2 -17.5 3.5t-19.5 1.5q-23 0 -47.5 -17t-45 -48.5t-34 -75t-13.5 -95.5q0 -42 18.5 -65t53.5 -23q10 0 18.5 1.5t19.5 4.5z" />
<glyph unicode="&#x445;" horiz-adv-x="496" d="M0 0zM166 256l-90 244h139l38 -107l13 -70l44 70l87 107h143l-195 -240l100 -260h-136l-48 120l-15 74l-45 -74l-99 -120h-143z" />
<glyph unicode="&#x446;" horiz-adv-x="536" d="M396 0q-43 0 -61.5 23.5t-10.5 66.5h-4q-11 -17 -28.5 -35.5t-40 -33.5t-50 -25t-57.5 -10q-47 0 -76 23.5t-29 86.5q0 37 10 81l69 323h123l-65 -308q-6 -30 -6 -51q0 -20 8 -31t28 -11q17 0 34.5 8.5t33.5 22t29.5 30t22.5 32.5l64 308h123l-68 -321q-6 -29 -6 -46 t7 -24t25 -7h50l-61 -216h-95z" />
<glyph unicode="&#x447;" horiz-adv-x="485" d="M219 500l-24 -114q-5 -21 -7.5 -38t-2.5 -31q0 -28 11.5 -42t38.5 -14q29 0 50.5 9t35.5 20l46 210h123l-106 -500h-123l41 196q-17 -11 -48.5 -24.5t-79.5 -13.5q-26 0 -48 5.5t-38.5 18.5t-25.5 34t-9 53q0 29 7 61l36 170h123z" />
<glyph unicode="&#x448;" horiz-adv-x="748" d="M495 500l-58 -272q-12 -56 -12 -85q0 -45 31 -45q13 0 28.5 8.5t30 21.5t27.5 29t21 31l64 312h123l-74 -349q-8 -38 -12.5 -76.5t-6.5 -74.5h-101l-3 85h-4q-15 -18 -32 -35.5t-37.5 -30.5t-45 -21t-54.5 -8q-36 0 -58.5 25t-20.5 74q-30 -39 -71.5 -69t-97.5 -30 q-45 0 -69 20.5t-24 77.5q0 43 15 112l63 300h123l-59 -281q-5 -24 -8 -43t-3 -34q0 -44 27 -44q17 0 34 9t31.5 23t26 30t18.5 31l64 309h124z" />
<glyph unicode="&#x449;" horiz-adv-x="771" d="M556 90q-30 -41 -73 -70.5t-103 -29.5q-36 0 -59 25t-21 74q-30 -39 -71.5 -69t-96.5 -30q-45 0 -69 20.5t-24 77.5q0 43 15 112l63 300h123l-59 -281q-5 -24 -8 -43t-3 -34q0 -44 27 -44q17 0 34 9t31.5 23t26 30t18.5 31l64 309h124l-58 -272q-12 -56 -12 -85 q0 -45 31 -45q13 0 28.5 8.5t30 21.5t27.5 29t21 31l64 312h123l-69 -321q-3 -14 -5 -25.5t-2 -20.5q0 -17 7.5 -24t25.5 -7h51l-62 -216h-94l30 114q-43 0 -61.5 23.5t-10.5 66.5h-4v0z" />
<glyph unicode="&#x44a;" horiz-adv-x="512" d="M213 154q-2 -7 -3 -12.5t-1 -10.5q0 -35 45 -35q22 0 42 7t35.5 19.5t24.5 29.5t9 37q0 24 -12 36.5t-46 12.5q-20 0 -41 -5t-35 -13zM249 314q24 8 52.5 11.5t52.5 3.5q71 0 104.5 -29t33.5 -83q0 -47 -21.5 -88t-59 -71t-87 -47.5t-106.5 -17.5q-38 0 -64 8t-42 22 t-23 33t-7 41q0 12 2 24t5 25l66 251h-114l22 103h237z" />
<glyph unicode="&#x44b;" horiz-adv-x="675" d="M166 142q-1 -4 -2 -7t-1 -7q0 -32 39 -32q21 0 40.5 7t34 19t23.5 28.5t9 36.5q0 28 -13.5 39.5t-47.5 11.5q-18 0 -33.5 -3.5t-29.5 -8.5zM204 316q20 5 48 9t49 4q74 0 104.5 -30t30.5 -78q0 -51 -21.5 -93t-57.5 -72t-84 -46.5t-101 -16.5q-71 0 -103.5 24.5 t-32.5 68.5q0 14 3 31l84 383h123zM557 500h123l-106 -500h-123z" />
<glyph unicode="&#x44c;" horiz-adv-x="464" d="M167 148q-1 -4 -2 -7t-1 -6q-2 -39 48 -39q21 0 40 7t33.5 20t23.5 30t9 38q0 26 -13.5 36.5t-47.5 10.5q-20 0 -38.5 -4.5t-32.5 -11.5zM204 314q22 6 49.5 10.5t59.5 4.5q41 0 67 -9.5t40.5 -25t19.5 -35t5 -39.5q0 -48 -19 -89.5t-54 -72t-83.5 -48t-108.5 -17.5 q-41 0 -68.5 8t-44 21.5t-23.5 31t-7 36.5v13.5t2 13.5l85 383h123z" />
<glyph unicode="&#x44d;" horiz-adv-x="433" d="M115 296h177q1 8 1.5 16t0.5 14q0 44 -21 64.5t-56 20.5q-46 0 -73.5 -8.5t-50.5 -19.5l-28 81q40 24 85.5 37t93.5 13q85 0 129 -45t44 -126q0 -94 -23.5 -161.5t-62.5 -111t-90 -64t-107 -20.5q-48 0 -91 11.5t-66 28.5l47 92q20 -13 49 -21t60 -8q118 0 145 122h-179z " />
<glyph unicode="&#x44e;" horiz-adv-x="699" d="M275 308q29 97 92 151.5t147 54.5q48 0 80 -15t51.5 -40t28 -57t8.5 -66q0 -76 -21 -140.5t-57 -111t-84 -72.5t-102 -26q-48 0 -79.5 15.5t-51 40.5t-27.5 56.5t-8 63.5q0 11 0.5 21.5t1.5 21.5h-73l-43 -205h-123l106 500h123l-41 -192h72zM374 179q0 -45 13 -67.5 t46 -22.5q23 0 45 21t39 55t27.5 77t10.5 86q0 40 -11.5 61.5t-48.5 21.5q-24 0 -46 -20t-38.5 -52.5t-26.5 -74.5t-10 -85z" />
<glyph unicode="&#x44f;" horiz-adv-x="481" d="M300 182l-63 -12l-122 -170h-147l120 159l57 35q-33 9 -57 37.5t-24 73.5q0 46 19.5 84.5t53.5 66t80 43t100 15.5q25 0 50.5 -3t48 -8t41 -10.5t29.5 -9.5l-102 -483h-123zM315 256l31 141q-5 2 -18.5 5.5t-33.5 3.5q-44 0 -73.5 -23t-29.5 -65q0 -32 19 -48t70 -16z " />
<glyph unicode="&#x451;" horiz-adv-x="466" d="M34 0zM402 48q-31 -26 -80 -44t-114 -18q-81 0 -127.5 47.5t-46.5 132.5q0 80 25 144.5t65.5 109.5t91.5 69.5t102 24.5q41 0 70.5 -10.5t48.5 -29t28 -42.5t9 -51q0 -41 -21 -72t-58.5 -51.5t-90.5 -31t-116 -10.5q-8 0 -15 0.5t-15 0.5q-2 -12 -3 -21.5t-1 -17.5 q0 -45 23.5 -67t66.5 -22q44 0 79 13t53 26zM176 295q28 0 59.5 2t58.5 9.5t45 22t18 39.5q0 15 -11 30.5t-46 15.5q-44 0 -76.5 -34t-47.5 -85zM171 632q0 33 18.5 51.5t47.5 18.5t47.5 -18.5t18.5 -51.5q0 -32 -18.5 -50t-47.5 -18t-47.5 18t-18.5 50zM379 633 q0 32 18.5 50.5t47.5 18.5t47.5 -18.5t18.5 -50.5t-18.5 -50.5t-47.5 -18.5t-47.5 18.5t-18.5 50.5z" />
<glyph unicode="&#x452;" horiz-adv-x="511" d="M64 500h70l42 200h123l-43 -200h155l-17 -80h-155l-30 -140h4q13 13 30 27t38.5 26t47.5 19.5t57 7.5q47 0 71.5 -24t24.5 -82q0 -40 -12 -97l-33 -157q-23 -106 -67.5 -157t-119.5 -51q-14 0 -28.5 1.5t-30.5 5.5l23 111q24 -2 41 2.5t28 16t18.5 29.5t12.5 42l30 141 q8 37 8 61q0 26 -10 40.5t-33 14.5q-17 0 -35.5 -8t-35 -21t-30.5 -29.5t-22 -34.5l-35 -164h-123l89 420h-70z" />
<glyph unicode="&#x453;" horiz-adv-x="410" d="M13 0zM351 40q-32 -24 -76.5 -39t-86.5 -15q-48 0 -81 11.5t-54 31t-30.5 44t-9.5 50.5q0 47 19.5 77.5t48.5 50t62.5 31.5t62.5 23t48.5 24t19.5 35q0 23 -13 32.5t-42 9.5q-45 0 -74 -8.5t-50 -18.5l-15 93q16 9 37.5 15.5t45.5 11.5t48.5 7.5t45.5 2.5q40 0 67.5 -9 t44.5 -24.5t24.5 -36.5t7.5 -45q0 -49 -19.5 -79.5t-48.5 -50.5t-62.5 -32t-62.5 -23.5t-48.5 -26.5t-19.5 -39q0 -26 19 -40t48 -14q34 0 65.5 9t51.5 22zM304 720h125l-6 -30l-133 -124h-69z" />
<glyph unicode="&#x454;" horiz-adv-x="430" d="M393 46q-35 -29 -83 -44.5t-96 -15.5q-41 0 -74 13t-56.5 37.5t-36.5 58.5t-13 76q0 85 25.5 149.5t67 107.5t94 64.5t106.5 21.5q52 0 79.5 -9t47.5 -20l-42 -91q-21 11 -41 14t-44 3q-42 0 -82.5 -28.5t-63.5 -82.5h188l-19 -86h-189v-20q0 -48 22 -76.5t76 -28.5 q33 0 60.5 11t47.5 24z" />
<glyph unicode="&#x455;" horiz-adv-x="396" d="M0 0zM38 117q20 -11 51.5 -19.5t66.5 -8.5t53.5 13.5t19.5 41.5q0 20 -12 34.5t-30.5 27.5t-39.5 26.5t-39.5 31t-30.5 41.5t-12 58q0 33 13 61t36.5 48t57 31t75.5 11q58 0 96 -8.5t60 -21.5l-34 -94q-20 9 -48.5 15t-59.5 6q-32 0 -50.5 -11t-18.5 -35q0 -16 12 -28.5 t30.5 -25.5t39.5 -26.5t39.5 -32.5t30.5 -43.5t12 -58.5q0 -83 -54 -123.5t-144 -40.5q-51 0 -93.5 9.5t-65.5 23.5z" />
<glyph unicode="&#x456;" horiz-adv-x="256" d="M27 0zM133 500h123l-106 -500h-123zM151 642q0 33 21.5 51t54.5 18q32 0 54.5 -18t22.5 -51q0 -32 -22.5 -50.5t-54.5 -18.5q-33 0 -54.5 18.5t-21.5 50.5z" />
<glyph unicode="&#x457;" horiz-adv-x="302" d="M144 500h123l-106 -500h-123zM102 632q0 32 16.5 49.5t44.5 17.5t44.5 -17.5t16.5 -49.5t-16.5 -49t-44.5 -17q-29 0 -45 17t-16 49zM246 632q0 32 16 49.5t45 17.5q28 0 44.5 -17.5t16.5 -49.5t-16.5 -49t-45.5 -17q-28 0 -44 17t-16 49z" />
<glyph unicode="&#x458;" horiz-adv-x="244" d="M0 0zM123 500h124l-111 -521q-19 -90 -64 -137.5t-122 -47.5q-31 0 -62 7l24 106q25 -2 43 4.5t30.5 20.5t21 35.5t14.5 48.5zM140 642q0 33 21.5 51t54.5 18q32 0 54.5 -18t22.5 -51q0 -32 -22.5 -50.5t-54.5 -18.5q-33 0 -54.5 18.5t-21.5 50.5z" />
<glyph unicode="&#x459;" horiz-adv-x="724" d="M427 149q-1 -5 -2 -9t-1 -8q0 -36 48 -36q21 0 40 7.5t33.5 20.5t23.5 30.5t9 38.5q0 26 -13.5 35.5t-47.5 9.5q-20 0 -39 -4t-33 -11zM505 500l-41 -186q22 6 49.5 10.5t59.5 4.5q41 0 67 -9.5t40.5 -25t19.5 -35t5 -39.5q0 -48 -19 -89.5t-54 -72t-83.5 -48 t-108.5 -17.5q-41 0 -68.5 8.5t-44 22t-23.5 31t-7 36.5v13.5t2 12.5l62 280h-90q-25 -93 -48.5 -167.5t-51.5 -127t-62.5 -80.5t-80.5 -28q-54 0 -75 15l38 107q27 -9 48 -1t42.5 48.5t45.5 120.5t57 216h321z" />
<glyph unicode="&#x45a;" horiz-adv-x="739" d="M477 313q23 6 51 11t60 5q41 0 66.5 -9.5t40 -25t19.5 -35t5 -39.5q0 -48 -19 -89.5t-53.5 -72t-83 -48t-108.5 -17.5q-41 0 -68 8t-44 21.5t-24.5 30.5t-7.5 36q0 16 3 31l18 85h-151l-43 -205h-123l106 500h123l-42 -192h152l41 192h123zM441 148q-1 -5 -2 -8.5 t-1 -7.5q0 -36 49 -36q21 0 40 7.5t33.5 20t23 30t8.5 38.5q0 26 -13.5 36t-47.5 10q-20 0 -38.5 -4t-32.5 -11z" />
<glyph unicode="&#x45b;" horiz-adv-x="505" d="M64 500h70l42 200h123l-43 -200h155l-17 -80h-155l-29 -135h4q34 31 75.5 53t95.5 22q41 0 66 -24t25 -86q0 -20 -2.5 -42.5t-8.5 -50.5l-33 -157h-123l30 144q5 20 7.5 36t2.5 30q0 23 -9 35t-32 12q-20 0 -38.5 -8.5t-34.5 -22t-29 -31t-22 -35.5l-33 -160h-123l89 420 h-70z" />
<glyph unicode="&#x45c;" horiz-adv-x="472" d="M15 0zM225 207h-44l-43 -207h-123l106 500h123l-46 -213l36 13l139 200h135l-146 -190l-58 -38l46 -39l79 -233h-131zM347 720h125l-6 -30l-133 -124h-69z" />
<glyph unicode="&#x45e;" horiz-adv-x="452" d="M0 0zM216 219l1 -78h6l27 79l136 280h131l-240 -449q-30 -56 -56.5 -103t-53.5 -81t-56 -53t-62 -19q-44 0 -66 15l33 98q6 -3 12.5 -4t12.5 -1q24 0 49 23t50 74l-94 500h141zM276 704q-2 -39 10 -55t37 -16q26 0 45.5 16t33.5 54l88 -25q-25 -65 -76 -96.5t-112 -31.5 q-29 0 -55 7t-44.5 22.5t-28.5 39.5t-8 59z" />
<glyph unicode="&#x45f;" horiz-adv-x="512" d="M241 500l-65 -309q-6 -30 -6 -50t8 -31t28 -11q17 0 34.5 8.5t33.5 22t29.5 30t22.5 32.5l64 308h123l-63 -300q-5 -20 -8.5 -47t-6.5 -55.5t-4 -54.5t0 -43h-99l-5 90h-4q-14 -19 -32.5 -37.5t-41 -33.5t-49 -24t-56.5 -9q-47 0 -76 23.5t-29 86.5q0 37 10 81l69 323 h123zM280 -35l-22 -165h-114l45 165h91z" />
<glyph unicode="&#x462;" horiz-adv-x="626" d="M101 646h135l17 79h130l-17 -79h191l-25 -111h-190l-20 -92q11 2 38 5t49 3q46 0 84 -12t65.5 -35t43 -57.5t15.5 -80.5q0 -72 -24.5 -124t-68.5 -85.5t-104.5 -50t-133.5 -16.5q-14 0 -36.5 0.5t-48.5 2.5t-53 5t-48 9l112 528h-135zM253 118q10 -3 27.5 -4.5t36.5 -1.5 q30 0 59.5 7t52.5 22.5t37 41t14 62.5q0 52 -32.5 71t-84.5 19q-6 0 -16 -1t-19.5 -2t-18 -2.5t-12.5 -2.5z" />
<glyph unicode="&#x463;" horiz-adv-x="706" d="M408 148q-11 -52 45 -52q21 0 40 7.5t34 20t23.5 30t8.5 38.5q0 26 -13.5 36t-47.5 10q-20 0 -38.5 -4t-32.5 -11zM323 310q9 39 9 61q0 35 -27 35q-14 0 -28 -9.5t-27 -24.5t-24.5 -33.5t-20.5 -36.5l-64 -302h-123l106 500h93l-5 -84h4q11 18 25 35.5t32.5 31.5 t43.5 22.5t57 8.5q41 0 64.5 -22.5t23.5 -74.5q0 -17 -3 -36t-8 -42l-6 -25q23 6 50 10.5t59 4.5q41 0 67 -9.5t40.5 -25t19.5 -35t5 -39.5q0 -48 -19 -89.5t-53.5 -72t-83 -48t-108.5 -17.5q-49 0 -79 11t-45.5 29t-19 40t1.5 44z" />
<glyph unicode="&#x472;" horiz-adv-x="644" d="M58 262q0 93 24.5 175.5t71 144t112 97t148.5 35.5q53 0 97.5 -16t76 -49.5t49 -84.5t17.5 -121q0 -94 -25 -177t-70.5 -145.5t-109 -98.5t-141.5 -36q-118 0 -183.5 69.5t-66.5 206.5zM196 296q-1 -8 -1 -15v-15q0 -72 29.5 -115t92.5 -43q32 0 60 14t51 39.5t40.5 59.5 t28.5 75h-301zM516 407q0 8 0.5 16.5t0.5 17.5q0 79 -33 115t-87 36q-32 0 -60.5 -13.5t-51.5 -38.5t-41 -59t-30 -74h302z" />
<glyph unicode="&#x473;" horiz-adv-x="496" d="M34 162q0 79 22.5 144t60.5 111t87.5 71.5t103.5 25.5q48 0 81 -15t53 -40t29 -57t9 -66q0 -78 -22 -142.5t-59.5 -110.5t-86.5 -71.5t-103 -25.5q-47 0 -80 15.5t-54 40.5t-31 56.5t-10 63.5zM350 289q3 19 3 39q0 40 -13.5 61.5t-50.5 21.5q-16 0 -32 -9.5t-30 -26 t-26.5 -38.5t-21.5 -48h171zM162 208q-1 -8 -1 -15v-14q0 -90 65 -90q32 0 60 34t46 85h-170z" />
<glyph unicode="&#x474;" horiz-adv-x="604" d="M296 -5h-94l-101 705h142l45 -411l-8 -118h4l43 119l113 229q28 58 53 95t50.5 58t53.5 29t62 8q35 0 59.5 -6.5t42.5 -16.5l-53 -114q-14 8 -26.5 11.5t-26.5 3.5q-23 0 -42.5 -18.5t-40.5 -58.5z" />
<glyph unicode="&#x475;" horiz-adv-x="463" d="M214 -5h-76l-98 505h135l33 -262v-77h4l30 79l38 71q28 54 52 92t48 61.5t49.5 34t56.5 10.5q23 0 42.5 -4.5t32.5 -12.5l-39 -104q-8 3 -15 5.5t-15 2.5q-17 0 -35 -14.5t-42 -52.5z" />
<glyph unicode="&#x48a;" horiz-adv-x="683" d="M487 381l29 89h-6l-64 -96l-326 -374h-100l148 700h130l-79 -374l-30 -92h6l66 99l324 367h100l-124 -582h111l-6 -31l-136 -217h-90l71 130h-104zM385 874q-2 -28 13.5 -44t43.5 -16q65 0 85 59l114 -17q-21 -61 -74.5 -91t-134.5 -30q-39 0 -68 9.5t-48 25.5 t-28.5 37.5t-10.5 46.5z" />
<glyph unicode="&#x48b;" horiz-adv-x="561" d="M241 500l-65 -309q-6 -30 -6 -50t8 -31t28 -11q17 0 34.5 8.5t33.5 22t29.5 30t22.5 32.5l64 308h123l-63 -300q-4 -17 -7.5 -37.5t-6.5 -44.5h116l-6 -31l-136 -217h-90l71 130h-59l-5 90h-4q-14 -19 -32.5 -37.5t-41 -33.5t-49 -24t-56.5 -9q-47 0 -76 23.5t-29 86.5 q0 37 10 81l69 323h123zM293 704q-2 -39 10 -55t37 -16q26 0 45.5 16t33.5 54l88 -25q-25 -65 -76 -96.5t-112 -31.5q-29 0 -55 7t-44.5 22.5t-28.5 39.5t-8 59z" />
<glyph unicode="&#x48c;" horiz-adv-x="578" d="M110 700h90l17 80h129l-17 -80h128l-20 -91h-127l-34 -160q11 2 37.5 5t48.5 3q34 0 70.5 -8.5t67 -30t50 -58t19.5 -91.5q0 -134 -85 -206.5t-246 -72.5q-14 0 -36.5 0.5t-48.5 2.5t-52.5 5t-47.5 9l127 602h-89zM205 118q10 -3 27.5 -4.5t35.5 -1.5q34 0 63.5 8.5 t52 25t35.5 41.5t13 58q0 52 -32 71t-84 19q-14 0 -36 -3t-30 -5z" />
<glyph unicode="&#x48d;" horiz-adv-x="464" d="M247 500h175l-20 -91h-176l-22 -95q22 6 49.5 10.5t59.5 4.5q41 0 67 -9.5t40.5 -25t19.5 -35t5 -39.5q0 -48 -19 -89.5t-54 -72t-83.5 -48t-108.5 -17.5q-48 0 -78 11t-45.5 29t-19 40t1.5 44l65 292h-82l20 91h83l45 200h123zM167 148q-5 -25 5.5 -39t39.5 -14 q21 0 40 7.5t33.5 20.5t23.5 30.5t9 38.5q0 26 -13.5 36t-47.5 10q-20 0 -38.5 -4t-32.5 -11z" />
<glyph unicode="&#x48e;" horiz-adv-x="550" d="M167 693q42 8 89.5 12.5t95.5 4.5q51 0 94.5 -11.5t76 -35.5t50.5 -61.5t18 -89.5q0 -92 -37 -149t-95 -87l41 -85l-89 -43l-47 97q-22 -5 -44 -6.5t-45 -1.5h-15.5t-22 0.5t-22 1.5t-15.5 2l-50 -241h-130zM226 359q4 -1 11 -2t15.5 -1.5t16 -0.5h11.5q14 0 27.5 1 t27.5 4l-40 87l56 27l42 -93q28 17 44.5 44.5t16.5 70.5q0 29 -9.5 48t-25.5 29.5t-37.5 14.5t-45.5 4q-18 0 -34.5 -1.5t-27.5 -3.5z" />
<glyph unicode="&#x48f;" horiz-adv-x="506" d="M122 500h91l-5 -88h4q14 19 32 37.5t40 32.5t47 23t54 9q51 0 82 -35t31 -110q0 -109 -35.5 -192.5t-92.5 -132.5l35 -62l-82 -60l-41 73q-30 -9 -60 -9q-26 0 -49 5t-34 13l-43 -204h-122zM268 183l29 -53q33 35 53.5 92t20.5 123q0 29 -13.5 47.5t-36.5 18.5 q-18 0 -35 -9t-32 -22.5t-27 -30.5t-21 -33l-46 -210q25 -17 56 -17q16 0 33 6l-30 54z" />
<glyph unicode="&#x490;" horiz-adv-x="436" d="M451 700l52 152h83l-58 -274h-256l-122 -578h-130l148 700h283z" />
<glyph unicode="&#x491;" horiz-adv-x="378" d="M405 392h-179l-83 -392h-128l106 500h204l52 152h83z" />
<glyph unicode="&#x492;" horiz-adv-x="489" d="M561 578h-256l-41 -191h214l-19 -93h-214l-62 -294h-130l62 294h-91l20 93h90l67 313h386z" />
<glyph unicode="&#x493;" horiz-adv-x="416" d="M426 397h-179l-27 -123h164l-17 -80h-165l-42 -194h-123l41 194h-71l17 80h71l48 226h302z" />
<glyph unicode="&#x494;" horiz-adv-x="560" d="M150 0h-130l148 700h386l-26 -122h-256l-43 -203q18 7 49.5 14.5t76.5 7.5q82 0 129.5 -47.5t47.5 -139.5q0 -60 -15.5 -120.5t-50.5 -108.5t-91.5 -78t-138.5 -30q-52 0 -65 4l25 117q13 -3 54 -3q36 0 63.5 15.5t45.5 41.5t27 60.5t9 72.5q0 51 -26 72.5t-75 21.5 q-23 0 -49.5 -5.5t-40.5 -12.5z" />
<glyph unicode="&#x495;" horiz-adv-x="476" d="M141 0h-123l106 500h302l-21 -103h-180l-30 -142q17 6 49 15.5t83 9.5q62 0 97 -34.5t35 -97.5q0 -94 -21.5 -161t-59.5 -110t-90.5 -63.5t-114.5 -20.5q-25 0 -38 1.5t-20 4.5l24 101q7 -2 19.5 -3t33.5 -1q24 0 48.5 12.5t45 38t33.5 64.5t13 93q0 38 -20.5 55.5 t-50.5 17.5q-29 0 -52 -6t-35 -13z" />
<glyph unicode="&#x496;" horiz-adv-x="821" d="M440 700h124l-66 -311l34 11l195 300h154l-219 -307l-53 -34l42 -42l69 -195h79l-53 -247h-91l12 125h-48l-98 304h-41l-64 -304h-124l67 316l-33 -12l-213 -304h-159l236 307l61 39l-38 37l-98 317h140l82 -299h40z" />
<glyph unicode="&#x497;" horiz-adv-x="770" d="M249 206q-15 -57 -36.5 -97.5t-47 -65.5t-54 -36.5t-58.5 -11.5q-20 0 -39 5t-39 13l33 100q18 -5 32 -5q37 0 65 34t44 115q4 20 5 36t1 30q0 51 -20.5 67.5t-55.5 10.5l-12 89q45 12 80 12q60 0 91 -35t31 -110q0 -14 -1 -28.5t-3 -31.5h76l43 203h118l-44 -203h70 q14 58 34.5 97.5t45.5 64t53 35t56 10.5q31 0 65 -13l-26 -90q-11 3 -21 3q-31 0 -58 -29.5t-44 -106.5q-9 -39 -9 -72q0 -26 5 -46t15.5 -33t25.5 -17t35 3l39 -29l-54 -188h-94l29 111q-31 2 -53 16t-35.5 37t-20 53.5t-6.5 64.5q0 10 0.5 19t1.5 19h-73l-43 -206h-118 l44 206h-73z" />
<glyph unicode="&#x498;" horiz-adv-x="507" d="M164 417h23q9 0 21 0.5t24.5 1.5t24.5 2t20 2q20 3 40 9.5t35.5 18.5t25.5 29t10 41q0 32 -24.5 50.5t-72.5 18.5q-42 0 -80.5 -12t-63.5 -23l-9 116q12 6 32.5 13t46 13t55.5 10.5t60 4.5q42 0 77 -9.5t61 -28.5t40.5 -47.5t14.5 -65.5q0 -69 -37.5 -121t-111.5 -69v-5 q19 -6 37 -16.5t31.5 -27.5t22 -41t8.5 -57q0 -55 -19.5 -96.5t-54 -71t-81.5 -46t-101 -21.5l-25 -164h-116l43 163q-47 4 -83 13.5t-55 21.5l58 119q20 -11 58 -22.5t94 -11.5q24 0 50 6t47 19.5t34.5 35.5t13.5 54q0 49 -34.5 66.5t-98.5 19.5h-64z" />
<glyph unicode="&#x499;" horiz-adv-x="407" d="M100 206l19 91h58q16 0 33 5t30 13.5t21.5 20.5t8.5 26q0 24 -17 34t-55 10q-33 0 -56 -6t-48 -17l-21 92q16 9 37 15t44.5 10.5t48 6.5t47.5 2q80 0 113.5 -28.5t33.5 -78.5q0 -24 -8 -45.5t-22 -38.5t-32.5 -30t-39.5 -20v-4q42 -10 57 -35.5t15 -56.5 q0 -74 -49.5 -120t-128.5 -58l-26 -169h-116l43 166q-35 5 -64 15t-46 23l46 95q20 -13 49.5 -22.5t66.5 -9.5q47 0 73 20t26 52q0 23 -19 32.5t-76 9.5h-46z" />
<glyph unicode="&#x49a;" horiz-adv-x="607" d="M260 299h-47l-63 -299h-130l148 700h130l-66 -310l31 11l237 299h156l-252 -297l-60 -35l44 -39l95 -207h106l-52 -247h-92l12 125h-62z" />
<glyph unicode="&#x49b;" horiz-adv-x="478" d="M225 207h-44l-43 -207h-123l106 500h123l-46 -213l36 13l139 200h135l-146 -190l-58 -38l46 -39l44 -130h88l-64 -217h-94l30 114h-56z" />
<glyph unicode="&#x49c;" horiz-adv-x="691" d="M258 299h-45l-63 -299h-130l148 700h130l-66 -310l46 3l29 134h88l-26 -125l16 2l215 296h152l-226 -295l-59 -37l45 -39l119 -329h-139l-105 299h-40l-27 -127h-88z" />
<glyph unicode="&#x49d;" horiz-adv-x="540" d="M223 207h-42l-43 -207h-123l106 500h123l-46 -213l43 3l25 121h72l-24 -112l19 2l128 199h131l-123 -190l-68 -38l46 -39l56 -233h-130l-48 207h-30l-25 -118h-72z" />
<glyph unicode="&#x49e;" horiz-adv-x="667" d="M99 643h125l12 57h129l-12 -57h89l-19 -93h-90l-33 -160l51 14l227 296h149l-241 -296l-72 -36l51 -39l140 -329h-142l-127 299h-56l-63 -299h-129l114 539h-124z" />
<glyph unicode="&#x49f;" horiz-adv-x="465" d="M74 626h76l16 74h123l-16 -74h148l-17 -80h-148l-55 -259l37 13l141 200h137l-149 -201l-60 -38l45 -38l76 -223h-132l-72 207h-40l-43 -207h-123l115 546h-76z" />
<glyph unicode="&#x4a0;" horiz-adv-x="690" d="M237 578h-152l26 122h281l-66 -310l30 11l238 299h156l-252 -296l-60 -36l44 -39l152 -329h-145l-135 299h-47l-63 -299h-130z" />
<glyph unicode="&#x4a1;" horiz-adv-x="501" d="M228 287l29 14l154 199h141l-154 -190l-64 -38l46 -39l78 -233h-129l-72 207h-46l-44 -207h-123l85 397h-105l22 103h227z" />
<glyph unicode="&#x4a2;" horiz-adv-x="666" d="M20 0zM455 293h-243l-62 -293h-130l148 700h130l-60 -285h243l60 285h130l-122 -578h83l-53 -247h-91l12 125h-107z" />
<glyph unicode="&#x4a3;" horiz-adv-x="529" d="M338 195h-156l-41 -195h-123l106 500h123l-41 -187h156l40 187h124l-85 -397h76l-64 -217h-94l30 114h-93z" />
<glyph unicode="&#x4a4;" horiz-adv-x="809" d="M901 578h-256l-122 -578h-130l62 293h-243l-62 -293h-130l148 700h130l-60 -285h243l60 285h386z" />
<glyph unicode="&#x4a5;" horiz-adv-x="654" d="M338 195h-156l-41 -195h-123l106 500h123l-41 -187h156l40 187h303l-22 -103h-179l-84 -397h-124z" />
<glyph unicode="&#x4a6;" horiz-adv-x="916" d="M512 0h-130l122 578h-232l-122 -578h-130l148 700h492l-69 -325q17 6 49 14t78 8q34 0 66 -10t56.5 -32.5t39 -57.5t14.5 -86q0 -66 -16.5 -127t-52.5 -108t-92.5 -75t-137.5 -28q-27 0 -41 1t-21 3l25 117q6 -2 21 -2.5t35 -0.5q36 0 63 15.5t44.5 41.5t26.5 60t9 72 q0 28 -7.5 46.5t-21 29.5t-32.5 15t-42 4q-23 1 -49 -5.5t-39 -12.5z" />
<glyph unicode="&#x4a7;" horiz-adv-x="752" d="M422 0h-123l66 310q6 28 6 49q0 22 -9 34.5t-33 12.5q-18 0 -36 -9t-34 -24t-30 -33.5t-24 -37.5l-64 -302h-123l106 500h93l-5 -88h4q13 16 30.5 34t40.5 33t51.5 25t64.5 10q45 0 72 -24.5t27 -81.5q0 -15 -1.5 -32t-6.5 -37l-16 -80q17 6 44 13.5t63 7.5 q72 0 111.5 -35.5t39.5 -107.5q0 -84 -20.5 -148t-56.5 -107.5t-85.5 -65.5t-107.5 -22q-22 0 -39.5 3.5t-24.5 6.5l24 100q18 -7 53 -7q24 0 47.5 14t41.5 40t29.5 63t11.5 84q0 42 -15.5 60.5t-60.5 18.5q-21 0 -42.5 -6.5t-34.5 -12.5z" />
<glyph unicode="&#x4a8;" horiz-adv-x="839" d="M413 592q-42 0 -81.5 -21.5t-69.5 -60.5t-48.5 -94.5t-18.5 -123.5q0 -51 11.5 -86.5t31.5 -57t47 -31t59 -9.5q11 0 25 2.5t24 7.5q-9 8 -20.5 25t-21.5 41.5t-17 57.5t-7 72q0 93 26 161.5t68.5 114t97.5 68t113 22.5q33 0 67.5 -9.5t63.5 -33t47.5 -64t18.5 -102.5 q0 -57 -14 -112t-40 -102.5t-64 -85.5t-87 -62q5 -2 10.5 -1.5t11.5 0.5q29 0 57 8t48 22l17 -107q-25 -20 -59.5 -32.5t-85.5 -12.5q-38 0 -75 11t-61 37q-37 -24 -75.5 -36t-90.5 -12q-80 0 -131 28.5t-80 71.5t-40.5 94t-11.5 96q0 110 31.5 192.5t84.5 137t122 81.5 t143 27zM464 325q0 -17 2 -39.5t8.5 -46.5t19.5 -46.5t34 -39.5q34 19 64 49.5t52.5 68.5t35 82t12.5 92q0 55 -19 84t-63 29q-24 0 -50 -15t-47.5 -44t-35 -73t-13.5 -101z" />
<glyph unicode="&#x4a9;" horiz-adv-x="668" d="M299 404q-27 -2 -52 -18t-44 -43t-30.5 -63t-11.5 -78q0 -59 27 -86t62 -27q21 0 34 9q-12 21 -18 56t-6 62q0 51 17 101t48.5 89.5t75.5 63.5t98 24q77 0 115 -37.5t38 -105.5q0 -54 -19.5 -103t-48.5 -88.5t-63 -67.5t-63 -40q23 -18 54.5 -23t52.5 -2l-28 -90 q-21 -6 -46 -6q-23 0 -46 5t-44 14.5t-38.5 23t-29.5 31.5q-18 -8 -45.5 -13.5t-55.5 -5.5q-94 0 -146 53.5t-52 150.5q0 62 20 119.5t57.5 101.5t91 72t119.5 31zM378 216q0 -21 5 -45t16 -44q18 10 39.5 31t41 48.5t32.5 60.5t13 68q0 29 -10.5 42.5t-34.5 13.5 q-21 0 -39.5 -13t-32.5 -36.5t-22 -55.5t-8 -70z" />
<glyph unicode="&#x4aa;" horiz-adv-x="537" d="M483 29q-55 -36 -134 -42l-25 -162h-116l44 168q-49 10 -85.5 35.5t-60.5 62.5t-36 83t-12 98q0 118 33 201.5t87 137t123.5 78.5t142.5 25q57 0 97.5 -8.5t63.5 -19.5l-51 -116q-20 11 -48 16.5t-71 5.5q-51 0 -95 -21t-76 -60t-50.5 -95t-18.5 -127q0 -85 42.5 -132.5 t113.5 -47.5q45 0 74.5 9.5t55.5 23.5z" />
<glyph unicode="&#x4ab;" horiz-adv-x="412" d="M370 41q-26 -19 -57.5 -32.5t-64.5 -19.5l-25 -164h-116l44 168q-31 8 -53 24t-36.5 38t-21 48.5t-6.5 54.5q0 84 24 150t63.5 111.5t90 70t103.5 24.5q47 0 74.5 -9t49.5 -20l-46 -98q-19 11 -39.5 15t-44.5 4q-27 0 -52.5 -17.5t-46 -46t-32.5 -66.5t-12 -78 q0 -51 22 -77.5t58 -26.5q30 0 55.5 9.5t45.5 21.5z" />
<glyph unicode="&#x4ac;" horiz-adv-x="547" d="M614 578h-194l-97 -456h84l-53 -247h-91l12 125h-107l122 578h-194l26 122h517z" />
<glyph unicode="&#x4ad;" horiz-adv-x="796" d="M548 0l59 281q5 23 8 43t3 35q0 23 -8.5 35t-28.5 12q-16 0 -32.5 -9.5t-31.5 -24t-27.5 -31.5t-19.5 -32l-64 -309h-123l57 272q6 28 9.5 49.5t3.5 38.5q0 46 -35 46q-17 0 -34 -9t-31.5 -23t-27 -30.5t-20.5 -31.5l-64 -312h-123l106 500h96l-6 -88h4q15 16 32.5 34 t39.5 33t49 25t59 10q40 0 60.5 -29t18.5 -77q15 19 34.5 38t42 34t48 24.5t52.5 9.5q46 0 70.5 -21.5t24.5 -80.5q0 -43 -15 -112l-42 -198h92l-64 -216h-94l30 114h-108z" />
<glyph unicode="&#x4ae;" horiz-adv-x="569" d="M106 0zM231 260l-125 440h144l65 -263l-2 -74h4l31 76l175 261h149l-311 -439l-55 -261h-129z" />
<glyph unicode="&#x4af;" horiz-adv-x="448" d="M40 500h138l26 -297l-4 -93h5l34 95l142 295h139l-279 -501l-43 -199h-123l42 199z" />
<glyph unicode="&#x4b0;" horiz-adv-x="569" d="M92 294h129l-115 406h144l65 -263l-2 -74h4l31 76l175 261h149l-288 -406h133l-20 -91h-148l-43 -203h-129l42 203h-147z" />
<glyph unicode="&#x4b1;" horiz-adv-x="463" d="M20 0h112l-77 500h138l26 -297l-4 -93h5l34 95l142 295h139l-279 -500h111l-17 -80h-111l-26 -120h-123l25 120h-112z" />
<glyph unicode="&#x4b2;" horiz-adv-x="638" d="M256 357l-113 343h141l60 -202l10 -71l37 71l149 202h156l-263 -338l83 -240h97l-53 -247h-91l12 125h-62l-72 216l-12 74l-40 -74l-161 -216h-158z" />
<glyph unicode="&#x4b3;" horiz-adv-x="496" d="M261 120l-15 74l-45 -74l-99 -120h-143l207 256l-90 244h139l38 -107l13 -70l44 70l87 107h143l-195 -240l61 -157h77l-64 -217h-94l30 114h-46z" />
<glyph unicode="&#x4b4;" horiz-adv-x="803" d="M713 -125h-91l12 125h-467l122 578h-193l26 122h458l-26 -122h-135l-97 -456h230l123 578h129l-122 -578h84z" />
<glyph unicode="&#x4b5;" horiz-adv-x="536" d="M39 0zM396 0q-43 0 -61.5 23.5t-10.5 66.5h-4q-11 -17 -28.5 -35.5t-40 -33.5t-50 -25t-57.5 -10q-47 0 -76 23.5t-29 86.5q0 37 10 81l69 323h123l-65 -308q-6 -30 -6 -51q0 -20 8 -31t28 -11q17 0 34.5 8.5t33.5 22t29.5 30t22.5 32.5l64 308h123l-68 -321 q-6 -29 -6 -46t7 -24t25 -7h50l-61 -216h-95zM189 658h308l-19 -92h-308z" />
<glyph unicode="&#x4b6;" horiz-adv-x="624" d="M284 700l-46 -217q-3 -13 -3.5 -24t-0.5 -22q0 -39 18.5 -58t60.5 -19q36 0 67.5 8t53.5 25l65 307h130l-122 -578h83l-53 -247h-91l12 125h-107l60 282q-14 -7 -29 -14t-33 -13t-40.5 -9.5t-50.5 -3.5q-35 0 -64.5 9t-51 28t-33.5 48t-12 68q0 31 7 63l51 242h129z" />
<glyph unicode="&#x4b7;" horiz-adv-x="496" d="M219 500l-24 -114q-5 -21 -7.5 -38t-2.5 -31q0 -28 11.5 -42t38.5 -14q29 0 50.5 9t35.5 20l46 210h123l-85 -397h82l-64 -217h-94l30 114h-98l41 196q-17 -11 -48.5 -24.5t-79.5 -13.5q-26 0 -48 5.5t-38.5 18.5t-25.5 34t-9 53q0 29 7 61l36 170h123z" />
<glyph unicode="&#x4b8;" horiz-adv-x="619" d="M284 700l-46 -217q-6 -27 -6 -48q0 -32 14.5 -51t49.5 -24l25 117h89l-24 -112q25 5 47.5 12t36.5 16l66 307h129l-148 -700h-129l59 282q-14 -8 -35.5 -16.5t-50.5 -14.5l-27 -129h-88l25 120q-80 1 -126.5 38.5t-46.5 115.5q0 31 7 65l50 239h129z" />
<glyph unicode="&#x4b9;" horiz-adv-x="517" d="M204 159q-6 -1 -12.5 -1h-13.5q-57 0 -91 25.5t-34 86.5q0 29 7 60l36 170h123l-25 -118q-4 -19 -6 -34t-2 -28q0 -26 9 -40.5t31 -18.5l27 125h72l-26 -119q18 5 32 11.5t23 12.5l44 209h124l-106 -500h-124l42 196q-17 -11 -55 -23l-24 -114h-72z" />
<glyph unicode="&#x4ba;" horiz-adv-x="583" d="M365 0l47 219q2 12 3.5 22.5t1.5 20.5q0 78 -81 78q-37 0 -67 -9.5t-54 -24.5l-65 -306h-130l148 700h130l-60 -282q28 15 63.5 27.5t89.5 12.5q32 0 61 -8.5t51.5 -27t35.5 -47.5t13 -71q0 -31 -7 -63l-51 -241h-129z" />
<glyph unicode="&#x4bb;" horiz-adv-x="528" d="M18 0zM309 0l60 284q10 44 10 73q0 26 -10 37.5t-31 11.5q-19 0 -40 -12t-40 -30t-34.5 -38.5t-23.5 -37.5l-59 -288h-123l148 700h123l-63 -288h4q13 16 31.5 34t41 33t49 25t57.5 10q48 0 74.5 -24t26.5 -85q0 -37 -12 -94l-66 -311h-123z" />
<glyph unicode="&#x4bc;" horiz-adv-x="761" d="M356 295q-1 -8 -1.5 -17t-0.5 -17q0 -31 7 -58.5t23.5 -48.5t43 -33.5t65.5 -12.5q42 0 82.5 13.5t75.5 36.5l8 -116q-44 -28 -88 -42t-103 -14q-61 0 -106.5 19.5t-76 55.5t-45.5 86t-15 112v17.5t1 18.5h-33q-71 0 -103 35t-32 88q0 32 11 59.5t26 43.5h111 q-16 -12 -26 -28.5t-10 -34.5q0 -9 2 -18.5t9.5 -16.5t22 -11.5t38.5 -3.5q18 76 49.5 133.5t74.5 96t96 57.5t112 19q52 0 90 -16.5t63.5 -45.5t38 -69.5t12.5 -88.5q0 -45 -10.5 -95t-32.5 -104h-379zM641 408q6 20 9.5 40.5t3.5 40.5q0 22 -5 42.5t-16.5 36t-29.5 24.5 t-44 9q-64 0 -113 -48.5t-72 -144.5h267z" />
<glyph unicode="&#x4bd;" horiz-adv-x="575" d="M511 48q-31 -26 -80 -44t-114 -18q-81 0 -127.5 47.5t-46.5 132.5q0 12 0.5 24t1.5 24h-9q-35 0 -59.5 9t-40.5 24t-23.5 35t-7.5 42q0 36 19.5 63.5t42.5 39.5h105q-22 -12 -40.5 -31.5t-19.5 -45.5q0 -8 2 -16.5t7.5 -15.5t16 -11.5t27.5 -4.5q17 50 45.5 89.5 t63.5 66.5t74.5 41.5t78.5 14.5q41 0 70.5 -10.5t48.5 -29t28 -42.5t9 -51q0 -41 -21 -72t-58.5 -51.5t-90.5 -31t-116 -10.5q-8 0 -15 0.5t-15 0.5q-2 -12 -3 -21.5t-1 -17.5q0 -45 23.5 -67t66.5 -22q44 0 79 13t53 26zM285 295q28 0 59.5 2t58.5 9.5t45 22t18 39.5 q0 15 -11 30.5t-46 15.5q-44 0 -76.5 -34t-47.5 -85z" />
<glyph unicode="&#x4be;" horiz-adv-x="761" d="M356 295q-1 -8 -1.5 -17t-0.5 -17q0 -31 7 -58.5t23.5 -48.5t43 -33t65.5 -12q42 0 82.5 13.5t75.5 36.5l8 -117q-38 -24 -76 -37.5t-85 -17.5l-25 -162h-116l44 168q-89 20 -132.5 90t-43.5 176v17.5t1 18.5h-33q-71 0 -103 35t-32 88q0 32 11 59.5t26 43.5h111 q-16 -12 -26 -28.5t-10 -34.5q0 -9 2 -18.5t9.5 -16.5t22 -11.5t38.5 -3.5q18 76 49.5 133.5t74.5 96t96 57.5t112 19q52 0 90 -16.5t63.5 -45.5t38 -69.5t12.5 -88.5q0 -45 -10.5 -95t-32.5 -104h-379zM641 408q6 20 9.5 40.5t3.5 40.5q0 22 -5 42.5t-16.5 36t-29.5 24.5 t-44 9q-64 0 -113 -48.5t-72 -144.5h267z" />
<glyph unicode="&#x4bf;" horiz-adv-x="575" d="M511 48q-25 -21 -61.5 -37t-84.5 -22l-25 -164h-116l43 167q-59 13 -91.5 57.5t-32.5 116.5q0 12 0.5 24t1.5 24h-9q-35 0 -59.5 9t-40.5 24t-23.5 35t-7.5 42q0 36 19.5 63.5t42.5 39.5h105q-22 -12 -40.5 -31.5t-19.5 -45.5q0 -8 2 -16.5t7.5 -15.5t16 -11.5t27.5 -4.5 q17 50 45.5 89.5t63.5 66.5t74.5 41.5t78.5 14.5q41 0 70.5 -10.5t48.5 -29t28 -42.5t9 -51q0 -41 -21 -72t-58.5 -51.5t-90.5 -31t-116 -10.5q-8 0 -15 0.5t-15 0.5q-2 -12 -3 -21.5t-1 -17.5q0 -45 23.5 -67t66.5 -22q44 0 79 13t53 26zM285 295q28 0 59.5 2t58.5 9.5 t45 22t18 39.5q0 15 -11 30.5t-46 15.5q-44 0 -76.5 -34t-47.5 -85z" />
<glyph unicode="&#x4c0;" horiz-adv-x="278" d="M35 0zM183 700h129l-148 -700h-129z" />
<glyph unicode="&#x4c3;" horiz-adv-x="591" d="M391 180q0 39 -10 62.5t-29 36t-45.5 16.5t-60.5 4h-33l-63 -299h-130l148 700h130l-66 -310l32 12l237 298h155l-242 -282l-66 -38h48q15 -2 37 -10t41.5 -28t33.5 -53.5t14 -86.5v-28q0 -77 -21 -145t-60 -119.5t-95.5 -81.5t-127.5 -30h-15t-15 1l24 112q48 0 82 24 t55.5 62.5t31.5 86.5t10 96z" />
<glyph unicode="&#x4c4;" horiz-adv-x="480" d="M291 27q5 22 6.5 41t1.5 35q0 92 -81 99h-34l-43 -202h-123l106 500h123l-47 -217l35 14l155 203h136l-158 -197l-56 -32l38 -2q41 -13 58.5 -54t17.5 -92q0 -39 -9 -78l-4 -17q-26 -122 -82 -178.5t-136 -56.5q-32 0 -61 7l24 102q5 -1 8.5 -1h8.5q89 -2 116 126z" />
<glyph unicode="&#x4c5;" horiz-adv-x="631" d="M490 578h-140q-23 -95 -43.5 -173t-41 -140t-43.5 -110t-50 -84q-18 -24 -37.5 -39t-39 -23.5t-37.5 -12t-34 -3.5q-46 0 -72 14l39 118q5 -2 10.5 -3t10.5 -1q17 -1 34.5 8t32.5 29q18 22 38 64t41.5 108t45 157t49.5 213h130h132h130l-124 -582h98l-6 -31l-136 -217 h-90l71 130h-90z" />
<glyph unicode="&#x4c6;" horiz-adv-x="532" d="M363 397h-92q-25 -93 -48.5 -167.5t-51.5 -127t-62.5 -80.5t-80.5 -28q-54 0 -75 15l38 108q17 -5 29 -5q20 1 37.5 18t36.5 60.5t40.5 118.5t49.5 191h323l-82 -382h98l-6 -31l-136 -217h-90l71 130h-84z" />
<glyph unicode="&#x4c7;" horiz-adv-x="624" d="M523 0q-23 -108 -65.5 -157.5t-120.5 -49.5q-28 0 -61 6l23 112q25 -2 41 2.5t26 16t16 29t11 41.5l62 293h-243l-62 -293h-130l148 700h130l-60 -285h243l60 285h130z" />
<glyph unicode="&#x4c8;" horiz-adv-x="521" d="M247 500l-41 -187h156l40 187h124l-111 -521q-20 -91 -63.5 -139t-118.5 -48q-14 0 -28.5 1.5t-30.5 5.5l23 111q24 -2 40.5 3t28 16.5t18.5 29.5t12 42l42 194h-156l-41 -195h-123l106 500h123z" />
<glyph unicode="&#x4c9;" horiz-adv-x="656" d="M455 293h-243l-62 -293h-130l148 700h130l-60 -285h243l60 285h130l-124 -582h96l-6 -31l-136 -217h-90l71 130h-89z" />
<glyph unicode="&#x4ca;" d="M335 195h-156l-41 -195h-123l106 500h123l-41 -187h156l40 187h124l-82 -382h95l-6 -31l-136 -217h-90l71 130h-82z" />
<glyph unicode="&#x4cb;" horiz-adv-x="583" d="M284 700l-46 -217q-3 -13 -3.5 -24t-0.5 -22q0 -39 18.5 -58t60.5 -19q36 0 67.5 8t53.5 25l65 307h130l-148 -700h-106l-41 -125h-91l51 247h83l34 160q-14 -7 -29 -14t-33 -13t-40.5 -9.5t-50.5 -3.5q-35 0 -64.5 9t-51 28t-33.5 48t-12 68q0 31 7 63l51 242h129z" />
<glyph unicode="&#x4cc;" horiz-adv-x="483" d="M303 207q-17 -11 -48.5 -22t-81.5 -11q-57 0 -88.5 25t-31.5 82q0 13 1.5 28t5.5 32l34 159h123l-22 -103q-4 -19 -6 -34t-2 -28q0 -26 11 -39.5t39 -13.5t50 8t37 18l41 192h123l-106 -500h-120l-29 -114h-104l55 212h95z" />
<glyph unicode="&#x4cd;" horiz-adv-x="799" d="M613 363l44 138h-6l-66 -113l-197 -259h-41l-94 262l-18 110h-5l-10 -137l-77 -364h-123l148 700h115l105 -320l13 -80h5l46 82l236 318h125l-124 -582h98l-6 -31l-136 -217h-90l71 130h-90z" />
<glyph unicode="&#x4ce;" horiz-adv-x="673" d="M470 229l30 104h-5l-56 -86l-123 -155h-45l-64 155l-18 86h-6l-9 -103l-48 -230h-111l106 500h122l67 -188l15 -63h3l41 65l141 186h136l-82 -382h100l-6 -31l-136 -217h-90l71 130h-81z" />
<glyph unicode="&#x4cf;" horiz-adv-x="244" d="M18 0zM166 700h123l-148 -700h-123z" />
<glyph unicode="&#x4d0;" horiz-adv-x="582" d="M0 0zM387 155h-204l-83 -155h-138l389 705h96l91 -705h-131zM240 265h142l-16 156l1 110h-5l-40 -111zM355 874q-2 -28 13.5 -44t43.5 -16q65 0 85 59l114 -17q-21 -61 -74.5 -91t-134.5 -30q-39 0 -68 9.5t-48 25.5t-28.5 37.5t-10.5 46.5z" />
<glyph unicode="&#x4d1;" horiz-adv-x="503" d="M33 0zM444 200q-8 -38 -11.5 -77t-3.5 -74q0 -14 0.5 -26.5t1.5 -23.5h-91l-14 86h-4q-11 -18 -28.5 -35.5t-38.5 -32t-44.5 -23t-48.5 -8.5q-66 0 -97.5 43t-31.5 115q0 73 18.5 140t57.5 118t98.5 81.5t141.5 30.5q35 0 76.5 -6.5t80.5 -17.5zM209 89q18 0 34 7.5 t29.5 19.5t24 26t18.5 26l50 233q-11 5 -25.5 7.5t-28.5 2.5q-36 0 -64 -21.5t-47.5 -56t-29.5 -78t-10 -87.5q0 -32 10.5 -55.5t38.5 -23.5zM314 704q-2 -39 10 -55t37 -16q26 0 45.5 16t33.5 54l88 -25q-25 -65 -76 -96.5t-112 -31.5q-29 0 -55 7t-44.5 22.5t-28.5 39.5 t-8 59z" />
<glyph unicode="&#x4d2;" horiz-adv-x="582" d="M0 0zM387 155h-204l-83 -155h-138l389 705h96l91 -705h-131zM240 265h142l-16 156l1 110h-5l-40 -111zM242 798q0 29 20 43.5t52 14.5t52 -14.5t20 -43.5t-20 -43t-52 -14t-52 14t-20 43zM446 798q0 29 20 43.5t52 14.5t52 -14.5t20 -43.5t-20 -43t-52 -14t-52 14t-20 43 z" />
<glyph unicode="&#x4d3;" horiz-adv-x="503" d="M33 0zM444 200q-8 -38 -11.5 -77t-3.5 -74q0 -14 0.5 -26.5t1.5 -23.5h-91l-14 86h-4q-11 -18 -28.5 -35.5t-38.5 -32t-44.5 -23t-48.5 -8.5q-66 0 -97.5 43t-31.5 115q0 73 18.5 140t57.5 118t98.5 81.5t141.5 30.5q35 0 76.5 -6.5t80.5 -17.5zM209 89q18 0 34 7.5 t29.5 19.5t24 26t18.5 26l50 233q-11 5 -25.5 7.5t-28.5 2.5q-36 0 -64 -21.5t-47.5 -56t-29.5 -78t-10 -87.5q0 -32 10.5 -55.5t38.5 -23.5zM182 632q0 33 18.5 51.5t47.5 18.5t47.5 -18.5t18.5 -51.5q0 -32 -18.5 -50t-47.5 -18t-47.5 18t-18.5 50zM390 633 q0 32 18.5 50.5t47.5 18.5t47.5 -18.5t18.5 -50.5t-18.5 -50.5t-47.5 -18.5t-47.5 18.5t-18.5 50.5z" />
<glyph unicode="&#x4d4;" horiz-adv-x="826" d="M0 0zM449 530l-44 -94l-116 -155h114l52 249h-6zM379 170h-171l-128 -170h-146l547 700h133h271l-26 -122h-264l-35 -163h241l-26 -122h-240l-36 -171h269l-26 -122h-261h-138z" />
<glyph unicode="&#x4d5;" horiz-adv-x="744" d="M17 0zM312 223q-8 1 -16.5 1h-16.5q-57 0 -96 -18.5t-39 -57.5q0 -27 14 -39t37 -12q18 0 34.5 7.5t30.5 18t25 22t18 20.5zM315 77q-32 -36 -74 -60.5t-99 -24.5q-33 0 -56.5 10.5t-38.5 28t-22.5 40.5t-7.5 47q0 49 22 84t60 57t88 32.5t107 10.5h16.5t16.5 -1 q11 38 11 59q0 24 -15 35.5t-51 11.5q-33 0 -70 -8t-69 -21l-18 93q41 20 94.5 29.5t103.5 9.5q46 0 78 -14.5t45 -45.5q29 31 72.5 47.5t88.5 16.5q42 0 71.5 -9.5t48 -26.5t27 -39.5t8.5 -49.5q0 -56 -26.5 -90t-71.5 -53.5t-104 -26.5t-123 -7q-1 -8 -1.5 -15.5 t-0.5 -14.5q0 -45 23 -69t76 -24q38 0 71.5 10.5t53.5 22.5l23 -86q-34 -24 -85.5 -37t-102.5 -13q-66 0 -106.5 24t-57.5 67h-5zM447 292q32 0 65 1.5t60 9t44 23t17 42.5q0 17 -12 31.5t-45 14.5q-53 0 -83.5 -35.5t-45.5 -86.5z" />
<glyph unicode="&#x4d6;" horiz-adv-x="503" d="M20 0zM168 700h130h264l-26 -122h-264l-35 -163h241l-27 -122h-239l-37 -171h269l-25 -122h-269h-130zM324 874q-2 -28 13.5 -44t43.5 -16q65 0 85 59l114 -17q-21 -61 -74.5 -91t-134.5 -30q-39 0 -68 9.5t-48 25.5t-28.5 37.5t-10.5 46.5z" />
<glyph unicode="&#x4d7;" horiz-adv-x="466" d="M34 0zM402 48q-31 -26 -80 -44t-114 -18q-81 0 -127.5 47.5t-46.5 132.5q0 80 25 144.5t65.5 109.5t91.5 69.5t102 24.5q41 0 70.5 -10.5t48.5 -29t28 -42.5t9 -51q0 -41 -21 -72t-58.5 -51.5t-90.5 -31t-116 -10.5q-8 0 -15 0.5t-15 0.5q-2 -12 -3 -21.5t-1 -17.5 q0 -45 23.5 -67t66.5 -22q44 0 79 13t53 26zM176 295q28 0 59.5 2t58.5 9.5t45 22t18 39.5q0 15 -11 30.5t-46 15.5q-44 0 -76.5 -34t-47.5 -85zM297 704q-2 -39 10 -55t37 -16q26 0 45.5 16t33.5 54l88 -25q-25 -65 -76 -96.5t-112 -31.5q-29 0 -55 7t-44.5 22.5 t-28.5 39.5t-8 59z" />
<glyph unicode="&#x4d8;" horiz-adv-x="599" d="M187 296q-5 -19 -7 -38t-2 -37q0 -51 23 -86.5t76 -35.5q36 0 65 14.5t51.5 40.5t38.5 62t24 80h-269zM471 409q1 6 1 12v12q0 34 -6.5 63t-22 50.5t-41.5 33.5t-65 12q-24 0 -47 -4.5t-43.5 -11.5t-37.5 -14.5t-29 -14.5l-3 117q34 19 83 34.5t108 15.5q54 0 98 -16.5 t76 -50t49.5 -84.5t17.5 -119q0 -89 -21.5 -171.5t-64 -146t-107 -102t-150.5 -38.5q-54 0 -94 17.5t-67 48.5t-40.5 74.5t-13.5 95.5q0 86 36 187h384z" />
<glyph unicode="&#x4d9;" horiz-adv-x="490" d="M101 469q34 21 82 33t105 12q47 0 82 -14t58 -38t34 -56t11 -68q0 -84 -21.5 -149.5t-60 -110.5t-91 -68.5t-114.5 -23.5q-39 0 -69.5 11.5t-51 30.5t-31.5 44.5t-11 54.5q0 79 60 123.5t194 44.5q34 0 73 -3q2 11 3 20t1 17q0 44 -28.5 63t-69.5 19t-74.5 -9.5 t-53.5 -19.5zM331 212q-16 2 -31.5 3.5t-30.5 1.5q-53 0 -89 -17t-36 -54q0 -22 13.5 -39.5t49.5 -17.5q48 0 79 34.5t45 88.5z" />
<glyph unicode="&#x4da;" horiz-adv-x="599" d="M51 0zM187 296q-5 -19 -7 -38t-2 -37q0 -51 23 -86.5t76 -35.5q36 0 65 14.5t51.5 40.5t38.5 62t24 80h-269zM471 409q1 6 1 12v12q0 34 -6.5 63t-22 50.5t-41.5 33.5t-65 12q-24 0 -47 -4.5t-43.5 -11.5t-37.5 -14.5t-29 -14.5l-3 117q34 19 83 34.5t108 15.5 q54 0 98 -16.5t76 -50t49.5 -84.5t17.5 -119q0 -89 -21.5 -171.5t-64 -146t-107 -102t-150.5 -38.5q-54 0 -94 17.5t-67 48.5t-40.5 74.5t-13.5 95.5q0 86 36 187h384zM243 798q0 29 20 43.5t52 14.5t52 -14.5t20 -43.5t-20 -43t-52 -14t-52 14t-20 43zM447 798 q0 29 20 43.5t52 14.5t52 -14.5t20 -43.5t-20 -43t-52 -14t-52 14t-20 43z" />
<glyph unicode="&#x4db;" horiz-adv-x="490" d="M23 0zM101 469q34 21 82 33t105 12q47 0 82 -14t58 -38t34 -56t11 -68q0 -84 -21.5 -149.5t-60 -110.5t-91 -68.5t-114.5 -23.5q-39 0 -69.5 11.5t-51 30.5t-31.5 44.5t-11 54.5q0 79 60 123.5t194 44.5q34 0 73 -3q2 11 3 20t1 17q0 44 -28.5 63t-69.5 19t-74.5 -9.5 t-53.5 -19.5zM331 212q-16 2 -31.5 3.5t-30.5 1.5q-53 0 -89 -17t-36 -54q0 -22 13.5 -39.5t49.5 -17.5q48 0 79 34.5t45 88.5zM127 632q0 33 18.5 51.5t47.5 18.5t47.5 -18.5t18.5 -51.5q0 -32 -18.5 -50t-47.5 -18t-47.5 18t-18.5 50zM335 633q0 32 18.5 50.5t47.5 18.5 t47.5 -18.5t18.5 -50.5t-18.5 -50.5t-47.5 -18.5t-47.5 18.5t-18.5 50.5z" />
<glyph unicode="&#x4dc;" horiz-adv-x="803" d="M0 0zM440 700h124l-66 -311l34 11l195 300h154l-219 -307l-53 -34l42 -42l112 -317h-144l-98 304h-41l-64 -304h-124l67 316l-33 -12l-213 -304h-159l236 307l61 39l-38 37l-98 317h140l82 -299h40zM352 798q0 29 20 43.5t52 14.5t52 -14.5t20 -43.5t-20 -43t-52 -14 t-52 14t-20 43zM556 798q0 29 20 43.5t52 14.5t52 -14.5t20 -43.5t-20 -43t-52 -14t-52 14t-20 43z" />
<glyph unicode="&#x4dd;" horiz-adv-x="757" d="M0 0zM249 206q-15 -57 -36.5 -97.5t-47 -65.5t-54 -36.5t-58.5 -11.5q-20 0 -39 5t-39 13l33 100q18 -5 32 -5q37 0 65 34t44 115q4 20 5 36t1 30q0 51 -20.5 67.5t-55.5 10.5l-12 89q45 12 80 12q60 0 91 -35t31 -110q0 -14 -1 -28.5t-3 -31.5h76l43 203h118l-44 -203 h70q14 58 34.5 97.5t45.5 64t53 35t56 10.5q31 0 65 -13l-26 -90q-11 3 -21 3q-31 0 -58 -29.5t-44 -106.5q-9 -39 -9 -72q0 -26 5 -46t15.5 -33t25.5 -17t35 3l12 -90q-47 -16 -82 -16q-34 0 -58 13.5t-39 36.5t-21.5 54.5t-6.5 66.5q0 10 0.5 19t1.5 19h-73l-43 -206h-118 l44 206h-73zM302 632q0 33 18.5 51.5t47.5 18.5t47.5 -18.5t18.5 -51.5q0 -32 -18.5 -50t-47.5 -18t-47.5 18t-18.5 50zM510 633q0 32 18.5 50.5t47.5 18.5t47.5 -18.5t18.5 -50.5t-18.5 -50.5t-47.5 -18.5t-47.5 18.5t-18.5 50.5z" />
<glyph unicode="&#x4de;" horiz-adv-x="507" d="M0 0zM141 309l23 108h23q9 0 21 0.5t24.5 1.5t24.5 2t20 2q20 3 40 9.5t35.5 18.5t25.5 29t10 41q0 32 -24.5 50.5t-72.5 18.5q-42 0 -80.5 -12t-63.5 -23l-9 116q12 6 32.5 13t46 13t55.5 10.5t60 4.5q42 0 77 -9.5t61 -28.5t40.5 -47.5t14.5 -65.5q0 -69 -37.5 -121 t-111.5 -69v-5q19 -6 37 -16.5t31.5 -27.5t22 -41t8.5 -57q0 -61 -24 -105.5t-65.5 -74t-97.5 -44t-119 -14.5t-112.5 11t-73.5 26l58 119q20 -11 58 -22.5t94 -11.5q24 0 50 6t47 19.5t34.5 35.5t13.5 54q0 49 -34.5 66.5t-98.5 19.5h-38h-26zM185 798q0 29 20 43.5 t52 14.5t52 -14.5t20 -43.5t-20 -43t-52 -14t-52 14t-20 43zM389 798q0 29 20 43.5t52 14.5t52 -14.5t20 -43.5t-20 -43t-52 -14t-52 14t-20 43z" />
<glyph unicode="&#x4df;" horiz-adv-x="407" d="M0 0zM100 208l19 89h58q16 0 32.5 5t29 14t20.5 21t8 26q0 24 -15.5 34t-53.5 10q-33 0 -56 -6t-48 -17l-21 91q16 9 37 15t44.5 10.5t48 6.5t47.5 2q80 0 113.5 -28.5t33.5 -78.5q0 -24 -8 -45.5t-22 -38.5t-32.5 -30t-39.5 -20v-4q42 -10 57 -35.5t15 -56.5 q0 -43 -18 -77t-50 -57.5t-75.5 -36t-94.5 -12.5q-48 0 -87.5 12t-61.5 28l46 94q20 -13 49.5 -22.5t66.5 -9.5q47 0 73 21.5t26 54.5q0 22 -19 31.5t-76 9.5h-46zM100 632q0 33 18.5 51.5t47.5 18.5t47.5 -18.5t18.5 -51.5q0 -32 -18.5 -50t-47.5 -18t-47.5 18t-18.5 50z M308 633q0 32 18.5 50.5t47.5 18.5t47.5 -18.5t18.5 -50.5t-18.5 -50.5t-47.5 -18.5t-47.5 18.5t-18.5 50.5z" />
<glyph unicode="&#x4e0;" horiz-adv-x="528" d="M201 108q41 0 71.5 10.5t50.5 28t30 39.5t10 45q0 49 -30.5 69t-110.5 20h-83l13 58l180 174l53 43l-59 -13h-192l25 118h409l-16 -75l-197 -189l-51 -31v-5l46 11q30 -1 57.5 -12.5t48 -32t32.5 -49.5t12 -65q0 -62 -22 -111t-62.5 -83.5t-98 -53t-127.5 -18.5 q-21 0 -47.5 2.5t-52.5 7t-49 12t-38 17.5l57 120q24 -15 64 -26t77 -11z" />
<glyph unicode="&#x4e1;" horiz-adv-x="435" d="M91 -109q33 0 64 10t54 29t37 45t14 59q0 48 -32 69t-114 21h-50l11 47l149 183l65 52l-71 -9h-162l22 103h377l-15 -70l-173 -187l-44 -29v-2l30 3q25 0 49 -9.5t43 -28t30.5 -46t11.5 -62.5q0 -67 -25 -119t-67.5 -88t-97.5 -55t-115 -19q-48 0 -90 12t-69 35l55 89 q23 -15 53 -24t60 -9z" />
<glyph unicode="&#x4e2;" horiz-adv-x="638" d="M20 0zM487 381l29 89h-6l-64 -96l-326 -374h-100l148 700h130l-79 -374l-30 -92h6l66 99l324 367h100l-148 -700h-130zM295 856h327l-19 -89h-326z" />
<glyph unicode="&#x4e3;" horiz-adv-x="512" d="M39 0zM241 500l-65 -309q-6 -30 -6 -50t8 -31t28 -11q17 0 34.5 8.5t33.5 22t29.5 30t22.5 32.5l64 308h123l-63 -300q-5 -20 -8.5 -47t-6.5 -55.5t-4 -54.5t0 -43h-99l-5 90h-4q-14 -19 -32.5 -37.5t-41 -33.5t-49 -24t-56.5 -9q-47 0 -76 23.5t-29 86.5q0 37 10 81 l69 323h123zM188 658h308l-19 -92h-308z" />
<glyph unicode="&#x4e4;" horiz-adv-x="638" d="M20 0zM487 381l29 89h-6l-64 -96l-326 -374h-100l148 700h130l-79 -374l-30 -92h6l66 99l324 367h100l-148 -700h-130zM271 798q0 29 20 43.5t52 14.5t52 -14.5t20 -43.5t-20 -43t-52 -14t-52 14t-20 43zM475 798q0 29 20 43.5t52 14.5t52 -14.5t20 -43.5t-20 -43 t-52 -14t-52 14t-20 43z" />
<glyph unicode="&#x4e5;" horiz-adv-x="512" d="M39 0zM241 500l-65 -309q-6 -30 -6 -50t8 -31t28 -11q17 0 34.5 8.5t33.5 22t29.5 30t22.5 32.5l64 308h123l-63 -300q-5 -20 -8.5 -47t-6.5 -55.5t-4 -54.5t0 -43h-99l-5 90h-4q-14 -19 -32.5 -37.5t-41 -33.5t-49 -24t-56.5 -9q-47 0 -76 23.5t-29 86.5q0 37 10 81 l69 323h123zM177 632q0 33 18.5 51.5t47.5 18.5t47.5 -18.5t18.5 -51.5q0 -32 -18.5 -50t-47.5 -18t-47.5 18t-18.5 50zM385 633q0 32 18.5 50.5t47.5 18.5t47.5 -18.5t18.5 -50.5t-18.5 -50.5t-47.5 -18.5t-47.5 18.5t-18.5 50.5z" />
<glyph unicode="&#x4e6;" horiz-adv-x="644" d="M58 0zM58 262q0 93 25.5 175.5t72.5 144t113.5 97t148.5 35.5q54 0 97.5 -16t74 -49.5t47.5 -84.5t17 -121q0 -94 -25.5 -177t-72 -145.5t-111 -98.5t-142.5 -36q-118 0 -181 69.5t-64 206.5zM195 266q0 -72 27.5 -115t90.5 -43q46 0 83.5 27.5t64.5 74t41.5 106.5 t14.5 125q0 79 -31 115t-85 36q-45 0 -82.5 -26t-65 -70.5t-43 -104t-15.5 -125.5zM271 798q0 29 20 43.5t52 14.5t52 -14.5t20 -43.5t-20 -43t-52 -14t-52 14t-20 43zM475 798q0 29 20 43.5t52 14.5t52 -14.5t20 -43.5t-20 -43t-52 -14t-52 14t-20 43z" />
<glyph unicode="&#x4e7;" horiz-adv-x="496" d="M34 0zM34 162q0 79 22.5 144t60 111t87 71.5t103.5 25.5q48 0 81 -15t53.5 -40t29.5 -57t9 -66q0 -78 -22 -142.5t-59 -110.5t-86 -71.5t-103 -25.5q-47 0 -80 15.5t-54.5 40.5t-31.5 56.5t-10 63.5zM161 179q0 -90 65 -90q24 0 47 21t41 55t28.5 77t10.5 86 q0 40 -13.5 61.5t-50.5 21.5q-24 0 -47 -20t-41 -52.5t-29 -74.5t-11 -85zM167 632q0 33 18.5 51.5t47.5 18.5t47.5 -18.5t18.5 -51.5q0 -32 -18.5 -50t-47.5 -18t-47.5 18t-18.5 50zM375 633q0 32 18.5 50.5t47.5 18.5t47.5 -18.5t18.5 -50.5t-18.5 -50.5t-47.5 -18.5 t-47.5 18.5t-18.5 50.5z" />
<glyph unicode="&#x4e8;" horiz-adv-x="644" d="M58 262q0 93 24.5 175.5t71 144t112 97t148.5 35.5q53 0 97.5 -16t76 -49.5t49 -84.5t17.5 -121q0 -94 -25 -177t-70.5 -145.5t-109 -98.5t-141.5 -36q-118 0 -183.5 69.5t-66.5 206.5zM196 296q-1 -8 -1 -15v-15q0 -72 29.5 -115t92.5 -43q32 0 60 14t51 39.5t40.5 59.5 t28.5 75h-301zM516 407q0 8 0.5 16.5t0.5 17.5q0 79 -33 115t-87 36q-32 0 -60.5 -13.5t-51.5 -38.5t-41 -59t-30 -74h302z" />
<glyph unicode="&#x4e9;" horiz-adv-x="496" d="M34 0zM34 162q0 79 22.5 144t60.5 111t87.5 71.5t103.5 25.5q48 0 81 -15t53 -40t29 -57t9 -66q0 -78 -22 -142.5t-59.5 -110.5t-86.5 -71.5t-103 -25.5q-47 0 -80 15.5t-54 40.5t-31 56.5t-10 63.5zM350 289q3 19 3 39q0 40 -13.5 61.5t-50.5 21.5q-16 0 -32 -9.5 t-30 -26t-26.5 -38.5t-21.5 -48h171zM162 208q-1 -8 -1 -15v-14q0 -90 65 -90q32 0 60 34t46 85h-170z" />
<glyph unicode="&#x4ea;" horiz-adv-x="644" d="M58 0zM58 262q0 93 24.5 175.5t71 144t112 97t148.5 35.5q53 0 97.5 -16t76 -49.5t49 -84.5t17.5 -121q0 -94 -25 -177t-70.5 -145.5t-109 -98.5t-141.5 -36q-118 0 -183.5 69.5t-66.5 206.5zM196 296q-1 -8 -1 -15v-15q0 -72 29.5 -115t92.5 -43q32 0 60 14t51 39.5 t40.5 59.5t28.5 75h-301zM516 407q0 8 0.5 16.5t0.5 17.5q0 79 -33 115t-87 36q-32 0 -60.5 -13.5t-51.5 -38.5t-41 -59t-30 -74h302zM275 798q0 29 20 43.5t52 14.5t52 -14.5t20 -43.5t-20 -43t-52 -14t-52 14t-20 43zM479 798q0 29 20 43.5t52 14.5t52 -14.5t20 -43.5 t-20 -43t-52 -14t-52 14t-20 43z" />
<glyph unicode="&#x4eb;" horiz-adv-x="496" d="M34 0zM34 162q0 79 22.5 144t60.5 111t87.5 71.5t103.5 25.5q48 0 81 -15t53 -40t29 -57t9 -66q0 -78 -22 -142.5t-59.5 -110.5t-86.5 -71.5t-103 -25.5q-47 0 -80 15.5t-54 40.5t-31 56.5t-10 63.5zM350 289q3 19 3 39q0 40 -13.5 61.5t-50.5 21.5q-16 0 -32 -9.5 t-30 -26t-26.5 -38.5t-21.5 -48h171zM162 208q-1 -8 -1 -15v-14q0 -90 65 -90q32 0 60 34t46 85h-170zM163 632q0 33 18.5 51.5t47.5 18.5t47.5 -18.5t18.5 -51.5q0 -32 -18.5 -50t-47.5 -18t-47.5 18t-18.5 50zM371 633q0 32 18.5 50.5t47.5 18.5t47.5 -18.5t18.5 -50.5 t-18.5 -50.5t-47.5 -18.5t-47.5 18.5t-18.5 50.5z" />
<glyph unicode="&#x4ec;" horiz-adv-x="552" d="M0 0zM176 410h251q3 38 -2 71.5t-21.5 58t-47 38.5t-78.5 14q-50 0 -85 -11.5t-61 -25.5l-4 116q38 18 82.5 30.5t95.5 12.5q70 0 119.5 -22t80 -59t44.5 -84.5t14 -99.5q0 -99 -24 -184t-73.5 -147t-125.5 -97t-180 -35q-26 0 -51.5 3t-48.5 7.5t-42 10.5t-31 12l60 119 q19 -11 54 -20.5t83 -9.5q44 0 83 14t69 39.5t50.5 61t28.5 77.5h-263zM177 798q0 29 20 43.5t52 14.5t52 -14.5t20 -43.5t-20 -43t-52 -14t-52 14t-20 43zM381 798q0 29 20 43.5t52 14.5t52 -14.5t20 -43.5t-20 -43t-52 -14t-52 14t-20 43z" />
<glyph unicode="&#x4ed;" horiz-adv-x="433" d="M0 0zM115 296h177q1 8 1.5 16t0.5 14q0 44 -21 64.5t-56 20.5q-46 0 -73.5 -8.5t-50.5 -19.5l-28 81q40 24 85.5 37t93.5 13q85 0 129 -45t44 -126q0 -94 -23.5 -161.5t-62.5 -111t-90 -64t-107 -20.5q-48 0 -91 11.5t-66 28.5l47 92q20 -13 49 -21t60 -8q118 0 145 122 h-179zM87 632q0 33 18.5 51.5t47.5 18.5t47.5 -18.5t18.5 -51.5q0 -32 -18.5 -50t-47.5 -18t-47.5 18t-18.5 50zM295 633q0 32 18.5 50.5t47.5 18.5t47.5 -18.5t18.5 -50.5t-18.5 -50.5t-47.5 -18.5t-47.5 18.5t-18.5 50.5z" />
<glyph unicode="&#x4ee;" horiz-adv-x="546" d="M52 0zM315 391l1 -91h6l33 94l163 306h145l-280 -484q-33 -57 -59 -99t-51.5 -69.5t-54.5 -41t-68 -13.5q-61 0 -98 24l57 111q14 -8 26 -10.5t27 -2.5q21 0 41 21.5t39 55.5l-140 508h143zM243 856h327l-19 -89h-326z" />
<glyph unicode="&#x4ef;" horiz-adv-x="452" d="M0 0zM216 219l1 -78h6l27 79l136 280h131l-240 -449q-30 -56 -56.5 -103t-53.5 -81t-56 -53t-62 -19q-44 0 -66 15l33 98q6 -3 12.5 -4t12.5 -1q24 0 49 23t50 74l-94 500h141zM146 658h308l-19 -92h-308z" />
<glyph unicode="&#x4f0;" horiz-adv-x="546" d="M52 0zM315 391l1 -91h6l33 94l163 306h145l-280 -484q-33 -57 -59 -99t-51.5 -69.5t-54.5 -41t-68 -13.5q-61 0 -98 24l57 111q14 -8 26 -10.5t27 -2.5q21 0 41 21.5t39 55.5l-140 508h143zM237 798q0 29 20 43.5t52 14.5t52 -14.5t20 -43.5t-20 -43t-52 -14t-52 14 t-20 43zM441 798q0 29 20 43.5t52 14.5t52 -14.5t20 -43.5t-20 -43t-52 -14t-52 14t-20 43z" />
<glyph unicode="&#x4f1;" horiz-adv-x="452" d="M0 0zM216 219l1 -78h6l27 79l136 280h131l-240 -449q-30 -56 -56.5 -103t-53.5 -81t-56 -53t-62 -19q-44 0 -66 15l33 98q6 -3 12.5 -4t12.5 -1q24 0 49 23t50 74l-94 500h141zM135 632q0 33 18.5 51.5t47.5 18.5t47.5 -18.5t18.5 -51.5q0 -32 -18.5 -50t-47.5 -18 t-47.5 18t-18.5 50zM343 633q0 32 18.5 50.5t47.5 18.5t47.5 -18.5t18.5 -50.5t-18.5 -50.5t-47.5 -18.5t-47.5 18.5t-18.5 50.5z" />
<glyph unicode="&#x4f2;" horiz-adv-x="546" d="M52 0zM315 391l1 -91h6l33 94l163 306h145l-280 -484q-33 -57 -59 -99t-51.5 -69.5t-54.5 -41t-68 -13.5q-61 0 -98 24l57 111q14 -8 26 -10.5t27 -2.5q21 0 41 21.5t39 55.5l-140 508h143zM330 850h126l-3 -16l-115 -93h-87zM518 850h132l-3 -16l-155 -93h-90z" />
<glyph unicode="&#x4f3;" horiz-adv-x="452" d="M0 0zM216 219l1 -78h6l27 79l136 280h131l-240 -449q-30 -56 -56.5 -103t-53.5 -81t-56 -53t-62 -19q-44 0 -66 15l33 98q6 -3 12.5 -4t12.5 -1q24 0 49 23t50 74l-94 500h141zM242 700h112l-3 -16l-95 -113h-74zM411 700h120l-3 -16l-136 -113h-78z" />
<glyph unicode="&#x4f4;" horiz-adv-x="583" d="M97 0zM284 700l-46 -217q-3 -13 -3.5 -24t-0.5 -22q0 -39 18.5 -58t60.5 -19q36 0 67.5 8t53.5 25l65 307h130l-148 -700h-130l60 282q-14 -7 -29 -14t-33 -13t-40.5 -9.5t-50.5 -3.5q-35 0 -64.5 9t-51 28t-33.5 48t-12 68q0 31 7 63l51 242h129zM243 798q0 29 20 43.5 t52 14.5t52 -14.5t20 -43.5t-20 -43t-52 -14t-52 14t-20 43zM447 798q0 29 20 43.5t52 14.5t52 -14.5t20 -43.5t-20 -43t-52 -14t-52 14t-20 43z" />
<glyph unicode="&#x4f5;" horiz-adv-x="485" d="M53 0zM219 500l-24 -114q-5 -21 -7.5 -38t-2.5 -31q0 -28 11.5 -42t38.5 -14q29 0 50.5 9t35.5 20l46 210h123l-106 -500h-123l41 196q-17 -11 -48.5 -24.5t-79.5 -13.5q-26 0 -48 5.5t-38.5 18.5t-25.5 34t-9 53q0 29 7 61l36 170h123zM150 632q0 33 18.5 51.5 t47.5 18.5t47.5 -18.5t18.5 -51.5q0 -32 -18.5 -50t-47.5 -18t-47.5 18t-18.5 50zM358 633q0 32 18.5 50.5t47.5 18.5t47.5 -18.5t18.5 -50.5t-18.5 -50.5t-47.5 -18.5t-47.5 18.5t-18.5 50.5z" />
<glyph unicode="&#x4f6;" horiz-adv-x="436" d="M168 700h386l-26 -122h-256l-96 -456h83l-53 -247h-91l12 125h-107z" />
<glyph unicode="&#x4f7;" horiz-adv-x="416" d="M260 9q-17 -11 -38.5 -17t-50.5 -6q-38 0 -67.5 11.5t-49.5 31t-30.5 44t-10.5 50.5q0 47 19.5 77.5t48.5 50t63 32t63 23.5t48.5 24t19.5 35q0 23 -13.5 32.5t-42.5 9.5q-45 0 -74 -8.5t-50 -18.5l-15 92q16 9 37.5 15.5t45.5 11.5t48.5 7.5t45.5 2.5q40 0 67.5 -9 t44.5 -24.5t24.5 -36.5t7.5 -45q0 -49 -19.5 -79.5t-48.5 -50.5t-62.5 -32t-62.5 -23.5t-48.5 -26.5t-19.5 -39q0 -26 19 -40t48 -14q13 0 29.5 3t32.5 8t29.5 11t21.5 12l57 -53l-53 -184h-94z" />
<glyph unicode="&#x4f8;" horiz-adv-x="765" d="M20 0zM681 700h130l-148 -700h-130zM167 700h130l-53 -251q13 2 33 5t43 3q48 0 85.5 -13.5t63 -38t38.5 -58t13 -73.5q0 -66 -22 -118.5t-64 -89.5t-103 -56.5t-139 -19.5h-26t-16 1q-18 0 -39 2t-45.5 5t-45.5 9zM173 118q21 -6 54 -6t61.5 9t49.5 26.5t33 42.5t12 58 q0 87 -106 87q-13 0 -32 -2.5t-27 -5.5zM330 798q0 29 20 43.5t52 14.5t52 -14.5t20 -43.5t-20 -43t-52 -14t-52 14t-20 43zM534 798q0 29 20 43.5t52 14.5t52 -14.5t20 -43.5t-20 -43t-52 -14t-52 14t-20 43z" />
<glyph unicode="&#x4f9;" horiz-adv-x="675" d="M36 0zM166 142q-1 -4 -2 -7t-1 -7q0 -32 39 -32q21 0 40.5 7t34 19t23.5 28.5t9 36.5q0 28 -13.5 39.5t-47.5 11.5q-18 0 -33.5 -3.5t-29.5 -8.5zM204 316q20 5 48 9t49 4q74 0 104.5 -30t30.5 -78q0 -51 -21.5 -93t-57.5 -72t-84 -46.5t-101 -16.5q-71 0 -103.5 24.5 t-32.5 68.5q0 14 3 31l84 383h123zM557 500h123l-106 -500h-123zM249 632q0 33 18.5 51.5t47.5 18.5t47.5 -18.5t18.5 -51.5q0 -32 -18.5 -50t-47.5 -18t-47.5 18t-18.5 50zM457 633q0 32 18.5 50.5t47.5 18.5t47.5 -18.5t18.5 -50.5t-18.5 -50.5t-47.5 -18.5t-47.5 18.5 t-18.5 50.5z" />
<glyph unicode="&#x4fc;" horiz-adv-x="608" d="M296 216l-163 -216h-157l279 357l-112 343h142l60 -202l10 -71l36 70l150 203h155l-262 -337l73 -213q15 -38 23.5 -72.5t8.5 -76.5q0 -53 -13.5 -92.5t-38 -65t-59 -38t-75.5 -12.5q-34 0 -66 7l24 111q32 -3 51.5 3t30.5 18.5t15 30.5t4 39q0 8 -2.5 20.5t-6 26.5 t-8 28t-8.5 26l-42 113l-10 74z" />
<glyph unicode="&#x4fd;" horiz-adv-x="496" d="M399 128q14 -32 20.5 -60.5t6.5 -66.5q0 -49 -15.5 -87t-42.5 -64.5t-63.5 -40t-78.5 -13.5q-29 0 -57 6l21 102q50 -8 79.5 17t29.5 70q0 21 -3.5 39.5t-11.5 39.5l-21 50l-18 72l-44 -72l-99 -120h-143l207 256l-90 244h140l38 -107l12 -70l44 70l86 107h144l-195 -240 z" />
<glyph unicode="&#x510;" horiz-adv-x="506" d="M392 309h-19.5t-17.5 -1q-40 -1 -73.5 -6t-58 -17t-38 -33.5t-13.5 -55.5q0 -45 32 -66.5t79 -21.5q48 0 90 10.5t67 25.5l12 -108q-29 -21 -84.5 -35.5t-117.5 -14.5q-41 0 -79.5 11t-68.5 33.5t-48.5 57.5t-18.5 83t15 84t40 61t56 39t63 18v6q-33 14 -56.5 44 t-23.5 83q0 56 24.5 95.5t63 64t85.5 35.5t92 11q28 0 56 -4t52.5 -10.5t43.5 -14t28 -14.5l-58 -110q-21 11 -55 21t-68 10q-26 0 -49 -5t-40.5 -16t-27.5 -27.5t-10 -40.5q0 -37 20 -54t52 -25q15 -5 39 -5h41h23l-23 -108h-26z" />
<glyph unicode="&#x511;" horiz-adv-x="423" d="M267 210q-61 0 -87 -18.5t-28 -44.5q-2 -24 14.5 -39.5t58.5 -15.5q38 0 71 9t58 23l10 -90q-26 -19 -70 -32t-92 -13q-49 0 -83 9t-55 26t-30 40.5t-9 53.5q0 52 31 90t88 56v4q-27 11 -40 35t-13 55t13.5 58.5t38.5 48t60.5 32.5t79.5 12q59 0 100.5 -12.5t66.5 -29.5 l-47 -93q-15 11 -42 21.5t-68 10.5q-36 0 -58 -17t-24 -44q-2 -23 14.5 -36t49.5 -13h58l-19 -86h-47z" />
<glyph unicode="&#x512;" horiz-adv-x="600" d="M493 -21q-19 -91 -61.5 -138.5t-120.5 -47.5q-27 0 -60 6l23 112q25 -2 41 2.5t25.5 15t15.5 28.5t12 43l122 578h-140q-23 -95 -44 -174t-42 -142t-43.5 -110.5t-48.5 -80.5q-20 -24 -40 -39.5t-39 -24t-36.5 -11.5t-32.5 -3q-46 0 -72 14l39 118q11 -4 24 -4 q16 0 31.5 8t31.5 28q18 20 37.5 62t41 108t45.5 158.5t51 214.5h123h140h130z" />
<glyph unicode="&#x513;" horiz-adv-x="502" d="M507 500l-106 -500q-24 -106 -68 -157t-119 -51q-14 0 -28.5 1.5t-30.5 5.5l23 109q24 -2 41 3t28 17t18.5 30.5t12.5 42.5l85 396h-92q-25 -93 -48.5 -167.5t-51.5 -127t-62.5 -80.5t-80.5 -28q-54 0 -75 15l38 108q17 -5 29 -5q20 1 37.5 18t36.5 60.5t40.5 118.5 t49.5 191h323z" />
<glyph unicode="&#x51c;" horiz-adv-x="826" d="M249 310l-14 -124h5l39 126l198 388h88l29 -390l-13 -124h5l40 126l164 388h140l-333 -705h-91l-37 389l8 107h-6l-38 -108l-199 -388h-91l-34 705h137z" />
<glyph unicode="&#x51d;" horiz-adv-x="678" d="M445 500l32 -256l-1 -83h5l30 84l116 255h120l-255 -505h-91l-35 280v63h-4l-26 -64l-150 -279h-94l-46 505h126l16 -251l-6 -89h5l34 90l132 250h92z" />
<glyph unicode="&#x524;" horiz-adv-x="655" d="M504 578h-232l-122 -578h-130l148 700h130h231h131l-122 -578h84l-53 -247h-91l12 125h-108z" />
<glyph unicode="&#x525;" horiz-adv-x="546" d="M410 0h-116l66 310q6 28 6 49q0 22 -9 34.5t-33 12.5q-18 0 -36 -9t-34 -24t-30 -33.5t-24 -37.5l-64 -302h-123l106 500h93l-5 -88h4q13 16 30.5 34t40.5 33t51.5 25t64.5 10q45 0 72 -24.5t27 -81.5q0 -15 -1.5 -32t-6.5 -37l-51 -236h100l-64 -217h-94z" />
<glyph unicode="&#x526;" horiz-adv-x="635" d="M520 122h84l-53 -247h-91l12 125h-107l47 219q2 12 3.5 22.5t1.5 20.5q0 78 -81 78q-37 0 -67 -9.5t-54 -24.5l-65 -306h-130l148 700h130l-60 -282q28 15 63.5 27.5t89.5 12.5q32 0 61 -8.5t51.5 -27t35.5 -47.5t13 -71q0 -31 -7 -63z" />
<glyph unicode="&#x527;" horiz-adv-x="538" d="M453 103h79l-64 -217h-94l30 114h-95l60 284q10 44 10 73q0 26 -10 37.5t-31 11.5q-19 0 -40 -12t-40 -30t-34.5 -38.5t-23.5 -37.5l-59 -288h-123l148 700h123l-63 -288h4q13 16 31.5 34t41 33t49 25t57.5 10q48 0 74.5 -24t26.5 -85q0 -37 -12 -94z" />
<glyph unicode="&#x1e30;" horiz-adv-x="593" d="M20 0zM260 299h-47l-63 -299h-130l148 700h130l-66 -310l31 11l237 299h156l-252 -297l-60 -35l44 -39l152 -329h-145zM436 870h157l-6 -30l-172 -88h-104z" />
<glyph unicode="&#x1e31;" horiz-adv-x="465" d="M18 0zM224 207h-40l-43 -207h-123l148 700h123l-88 -413l37 13l141 200h137l-149 -201l-60 -38l45 -38l76 -223h-132zM402 720h125l-6 -30l-133 -124h-69z" />
<glyph unicode="&#x1e3e;" horiz-adv-x="767" d="M20 0zM613 363l44 138h-6l-66 -113l-197 -259h-41l-94 262l-18 110h-5l-10 -137l-77 -364h-123l148 700h115l105 -320l13 -80h5l46 82l236 318h125l-148 -700h-129zM543 870h157l-6 -30l-172 -88h-104z" />
<glyph unicode="&#x1e3f;" horiz-adv-x="767" d="M18 0zM283 0l57 272q6 28 9.5 49.5t3.5 38.5q0 46 -35 46q-17 0 -34 -9t-31.5 -23t-27 -30.5t-20.5 -31.5l-64 -312h-123l106 500h96l-6 -88h4q15 16 32.5 34t39.5 33t49 25t59 10q40 0 60.5 -29t18.5 -77q15 19 34.5 38t42 34t48 24.5t52.5 9.5q46 0 70.5 -21.5 t24.5 -80.5q0 -43 -15 -112l-63 -300h-123l59 281q5 23 8 43t3 35q0 23 -8.5 35t-28.5 12q-16 0 -32.5 -9.5t-31.5 -24t-27.5 -31.5t-19.5 -32l-64 -309h-123zM497 720h125l-6 -30l-133 -124h-69z" />
<glyph unicode="&#x1e54;" horiz-adv-x="550" d="M20 0zM167 693q42 8 89.5 12.5t95.5 4.5q51 0 94.5 -11.5t76 -35.5t50.5 -61.5t18 -89.5q0 -78 -27 -130.5t-71.5 -85t-101.5 -46t-116 -13.5h-15.5t-22 0.5t-22 1.5t-15.5 2l-50 -241h-130zM226 359q4 -1 11 -2t15.5 -1.5t16 -0.5h11.5q34 0 65.5 7.5t55.5 24t38.5 43.5 t14.5 66q0 29 -9.5 48t-25.5 29.5t-37.5 14.5t-45.5 4q-18 0 -34.5 -1.5t-27.5 -3.5zM420 870h157l-6 -30l-172 -88h-104z" />
<glyph unicode="&#x1e55;" horiz-adv-x="506" d="M0 0zM122 500h91l-5 -88h4q14 19 32 37.5t40 32.5t47 23t54 9q51 0 82 -35t31 -110q0 -85 -22.5 -155.5t-60 -121t-88 -78.5t-105.5 -28q-26 0 -49 5t-34 13l-43 -204h-122zM160 106q25 -17 56 -17t59 21t49.5 56t34 81.5t12.5 97.5q0 29 -13.5 47.5t-36.5 18.5 q-18 0 -35 -9t-32 -22.5t-27 -30.5t-21 -33zM367 720h125l-6 -30l-133 -124h-69z" />
<glyph unicode="&#x1e9e;" horiz-adv-x="664" d="M489 570q-15 16 -42 25t-64 9q-33 0 -56.5 -12.5t-39.5 -35t-26.5 -54t-18.5 -69.5l-93 -433h-129l101 478q12 57 33.5 100.5t55.5 73.5t82.5 45.5t114.5 15.5q51 0 90 -8.5t69 -22t52 -31t40 -35.5l-168 -179l-41 -29l-1 -5l38 8q74 -6 109.5 -49t35.5 -110 q0 -65 -24 -114.5t-64 -83.5t-93.5 -51t-111.5 -17q-14 0 -34 2t-40 6t-37 9t-25 10l52 114q9 -5 21.5 -8.5t26.5 -5.5t28 -3.5t25 -1.5q24 0 49 7t45 22t32.5 38.5t12.5 55.5q0 47 -31.5 68t-106.5 21h-51l18 83z" />
<glyph unicode="&#x2000;" horiz-adv-x="508" />
<glyph unicode="&#x2001;" horiz-adv-x="1016" />
<glyph unicode="&#x2002;" horiz-adv-x="508" />
<glyph unicode="&#x2003;" horiz-adv-x="1016" />
<glyph unicode="&#x2004;" horiz-adv-x="338" />
<glyph unicode="&#x2005;" horiz-adv-x="254" />
<glyph unicode="&#x2006;" horiz-adv-x="169" />
<glyph unicode="&#x2007;" horiz-adv-x="169" />
<glyph unicode="&#x2008;" horiz-adv-x="127" />
<glyph unicode="&#x2009;" horiz-adv-x="203" />
<glyph unicode="&#x200a;" horiz-adv-x="56" />
<glyph unicode="&#x2010;" horiz-adv-x="343" d="M81 340h239l-25 -104h-239z" />
<glyph unicode="&#x2011;" horiz-adv-x="343" d="M81 340h239l-25 -104h-239z" />
<glyph unicode="&#x2012;" horiz-adv-x="343" d="M81 340h239l-25 -104h-239z" />
<glyph unicode="&#x2013;" horiz-adv-x="627" d="M130 340h419l-25 -104h-419z" />
<glyph unicode="&#x2014;" horiz-adv-x="779" d="M130 340h571l-25 -104h-571z" />
<glyph unicode="&#x2018;" horiz-adv-x="215" d="M238 631q0 -39 -23 -58t-50 -19q-17 0 -29.5 6.5t-20.5 17t-12 23t-4 25.5q0 40 17 71t40.5 52.5t47 34t37.5 15.5l19 -54q-20 -8 -37.5 -25.5t-23.5 -37.5q17 0 28 -15t11 -36z" />
<glyph unicode="&#x2019;" horiz-adv-x="216" d="M121 637q0 18 7.5 31.5t18.5 22.5t24 13.5t25 4.5q35 0 50 -18t15 -49q0 -41 -15.5 -72t-38 -53t-47 -35t-42.5 -19l-19 55q21 9 38.5 24t24.5 38q-18 2 -30 16.5t-11 40.5z" />
<glyph unicode="&#x201a;" horiz-adv-x="226" d="M8 0zM30 55q0 18 7.5 31.5t18.5 22.5t24 13.5t25 4.5q35 0 50 -18t15 -49q0 -41 -15.5 -72t-38 -53t-47 -35t-42.5 -19l-19 55q21 9 38.5 24t24.5 38q-18 2 -30 16.5t-11 40.5z" />
<glyph unicode="&#x201c;" horiz-adv-x="379" d="M99 554zM402 631q0 -39 -23 -58t-50 -19q-17 0 -29.5 6.5t-20.5 17t-12 23t-4 25.5q0 40 17 71t40.5 52.5t47 34t37.5 15.5l19 -54q-20 -8 -37.5 -25.5t-23.5 -37.5q17 0 28 -15t11 -36zM238 631q0 -39 -23 -58t-50 -19q-17 0 -29.5 6.5t-20.5 17t-12 23t-4 25.5 q0 40 17 71t40.5 52.5t47 34t37.5 15.5l19 -54q-20 -8 -37.5 -25.5t-23.5 -37.5q17 0 28 -15t11 -36z" />
<glyph unicode="&#x201d;" horiz-adv-x="379" d="M99 463zM284 637q0 18 7.5 31.5t18.5 22.5t24 13.5t25 4.5q35 0 50 -18t15 -49q0 -41 -15.5 -72t-38 -53t-47 -35t-42.5 -19l-19 55q21 9 38.5 24t24.5 38q-18 2 -30 16.5t-11 40.5zM121 637q0 18 7.5 31.5t18.5 22.5t24 13.5t25 4.5q35 0 50 -18t15 -49q0 -41 -15.5 -72 t-38 -53t-47 -35t-42.5 -19l-19 55q21 9 38.5 24t24.5 38q-18 2 -30 16.5t-11 40.5z" />
<glyph unicode="&#x201e;" horiz-adv-x="389" d="M8 0zM192 55q0 18 7.5 31.5t18.5 22.5t24 13.5t25 4.5q35 0 50 -18t15 -49q0 -41 -15.5 -72t-38 -53t-47 -35t-42.5 -19l-19 55q21 9 38.5 24t24.5 38q-18 2 -30 16.5t-11 40.5zM30 55q0 18 7.5 31.5t18.5 22.5t24 13.5t25 4.5q35 0 50 -18t15 -49q0 -41 -15.5 -72 t-38 -53t-47 -35t-42.5 -19l-19 55q21 9 38.5 24t24.5 38q-18 2 -30 16.5t-11 40.5z" />
<glyph unicode="&#x2020;" horiz-adv-x="490" d="M111 513h110l46 -16l-4 54l32 149h117l-32 -149l-26 -54l53 16h110l-24 -112h-112l-44 16l5 -50l-78 -367l-58 -200h-87l28 201l78 366l24 50l-51 -16h-111z" />
<glyph unicode="&#x2021;" horiz-adv-x="490" d="M225 371l24 45l-51 -15h-111l24 112h110l46 -15l-4 50l32 152h117l-32 -152l-25 -50l52 15h110l-24 -112h-112l-44 15l5 -45l-17 -84l-25 -45l50 15h112l-23 -112h-111l-45 15l4 -50l-23 -110l-59 -200h-85l27 201l23 109l25 50l-52 -15h-111l24 112h110l46 -15l-4 45z " />
<glyph unicode="&#x2022;" horiz-adv-x="452" d="M98 311q0 34 12 62t32.5 48t48 31.5t59.5 11.5t60 -10.5t48.5 -30t32.5 -48t12 -64.5t-12 -64t-32.5 -47.5t-48.5 -30t-60 -10.5t-59.5 10.5t-48 30t-32.5 47.5t-12 64z" />
<glyph unicode="&#x2026;" horiz-adv-x="769" d="M535 66q0 35 22 55.5t58 20.5q37 0 59 -20.5t22 -55.5t-22 -56t-59 -21q-36 0 -58 21t-22 56zM276 66q0 35 22 55.5t58 20.5q37 0 59 -20.5t22 -55.5t-22 -56t-59 -21q-36 0 -58 21t-22 56zM18 66q0 35 22 55.5t58 20.5q37 0 59 -20.5t22 -55.5t-22 -56t-59 -21 q-36 0 -58 21t-22 56z" />
<glyph unicode="&#x202f;" horiz-adv-x="203" />
<glyph unicode="&#x2030;" horiz-adv-x="1144" d="M55 0zM55 499q0 54 18.5 94t48.5 66.5t66.5 39.5t72.5 13q66 0 100.5 -30.5t34.5 -89.5q0 -57 -17 -98.5t-46 -68.5t-66.5 -40t-77.5 -13q-62 0 -98 34.5t-36 92.5zM165 505q-1 -22 10 -35.5t32 -13.5q33 0 56 34.5t23 88.5q0 49 -43 49q-17 0 -31 -10t-25 -26.5t-17 -39 t-5 -47.5zM391 128q0 54 18.5 94t48.5 66.5t66.5 39.5t72.5 13q66 0 100.5 -30.5t34.5 -89.5q0 -57 -17 -98.5t-46 -68.5t-66.5 -40t-77.5 -13q-62 0 -98 34.5t-36 92.5zM501 134q-1 -22 10 -35.5t32 -13.5q33 0 56 34.5t23 88.5q0 49 -43 49q-17 0 -31 -10t-25 -26.5 t-17 -39t-5 -47.5zM760 128q0 54 18.5 94t48.5 66.5t66.5 39.5t72.5 13q66 0 100.5 -30.5t34.5 -89.5q0 -57 -17 -98.5t-46 -68.5t-66.5 -40t-77.5 -13q-62 0 -98 34.5t-36 92.5zM870 134q-1 -22 10 -35.5t32 -13.5q33 0 56 34.5t23 88.5q0 49 -43 49q-17 0 -31 -10 t-25 -26.5t-17 -39t-5 -47.5zM641 714l73 -66l-576 -662l-73 69z" />
<glyph unicode="&#x2039;" horiz-adv-x="300" d="M40 259l200 230l60 -64l-106 -126l-55 -39l36 -37l60 -123l-84 -62z" />
<glyph unicode="&#x203a;" horiz-adv-x="293" d="M293 268l-200 -230l-62 61l108 127l55 41l-35 39l-62 124l86 59z" />
<glyph unicode="&#x2044;" horiz-adv-x="184" d="M293 715l85 -50l-430 -679l-86 53z" />
<glyph unicode="&#x205f;" horiz-adv-x="254" />
<glyph unicode="&#x2081;" horiz-adv-x="402" d="M38 0h93l36 164l19 46l-36 -32l-63 -37l-34 73l176 113h81l-70 -327h83l-21 -100h-285z" />
<glyph unicode="&#x2082;" horiz-adv-x="402" d="M344 227q0 -60 -38 -110t-102 -98l-49 -25v-4l57 11h101l-22 -101h-297l15 71q29 18 67 44t72 55t57.5 59.5t23.5 57.5q0 17 -9.5 27t-35.5 10t-51 -8.5t-44 -19.5l-14 91q37 21 76.5 30.5t73.5 9.5q57 0 88 -26t31 -74z" />
<glyph unicode="&#x2083;" horiz-adv-x="402" d="M125 -12q50 0 70 18.5t20 41.5q0 20 -14.5 30t-62.5 10h-41l8 38l86 81l45 24l-56 -6h-108l21 95h269l-14 -62l-102 -93l-35 -17v-5l28 3q35 -1 60 -25t24 -64q0 -42 -15.5 -73t-42.5 -51t-64 -30t-80 -10q-36 0 -67.5 6.5t-51.5 17.5l40 90q40 -19 83 -19z" />
<glyph unicode="&#x2084;" horiz-adv-x="402" d="M345 -22h-72l-17 -78h-96l17 78h-196l14 67l265 283h87l-55 -261h72zM214 153l18 53h-5l-32 -49l-60 -66l-41 -32l53 8h50z" />
<glyph unicode="&#x20ac;" d="M45 324h64q4 30 10 58h-94l52 93h73q34 76 83 128q56 58 123 84.5t127 26.5q49 0 85 -9.5t60 -23.5l-53 -90q-18 9 -44.5 14t-63.5 5q-39 0 -82.5 -21t-80.5 -64q-19 -22 -34 -50h254l-46 -93h-244q-7 -27 -10 -58h222l-46 -93h-178q2 -22 6 -41q7 -31 24.5 -53.5 t46 -34.5t72.5 -12q37 0 67 9t56 23l17 -91q-34 -22 -83 -33.5t-97 -11.5q-59 0 -101.5 18.5t-70.5 51.5t-41 78q-13 44 -13 97h-111z" />
<glyph unicode="&#x20b4;" d="M511 322l-20 -91h-236q-17 -16 -34.5 -40t-17.5 -47q0 -11 3.5 -20.5t12.5 -17.5t25 -12.5t41 -4.5q50 0 82 10t56 22l6 -97q-26 -14 -71.5 -26t-120.5 -12q-76 0 -117 32t-41 90q0 20 6 39.5t15 36t18 29t15 18.5h-69l20 91h427zM95 378l20 91h237q17 15 34.5 39.5 t17.5 53.5q0 23 -14 36t-49 13q-38 0 -67 -8.5t-54 -20.5l-15 96q18 8 34.5 14.5t36 11.5t44.5 7.5t59 2.5q78 0 113.5 -29.5t35.5 -81.5q0 -26 -6 -46.5t-15 -37t-19.5 -29t-19.5 -21.5h74l-20 -91h-427z" />
<glyph unicode="&#x20b6;" d="M68 364h76l70 329q44 8 86 12.5t93 4.5q45 0 83 -10.5t65.5 -32.5t43 -55.5t15.5 -78.5q0 -73 -26.5 -122.5t-68.5 -80t-93.5 -44t-100.5 -13.5l-68 -1l-12 -57h155l-19 -91h-155l-26 -124h-119l26 124h-77l20 91h77l12 58h-78zM380 600q-20 0 -38 -1.5t-30 -3.5 l-48 -228h52q27 0 55.5 8t52 24.5t38 42t14.5 61.5q0 48 -22 72.5t-74 24.5z" />
<glyph unicode="&#x20b7;" d="M16 0zM68 364h76l70 329q44 8 86 12.5t93 4.5q45 0 83 -10.5t65.5 -32.5t43 -55.5t15.5 -78.5q0 -73 -26.5 -122.5t-68.5 -80t-93.5 -44t-100.5 -13.5l-68 -1l-12 -57h155l-19 -91h-155l-26 -124h-119l26 124h-77l20 91h77l12 58h-78zM380 600q-20 0 -38 -1.5t-30 -3.5 l-48 -228h52q27 0 55.5 8t52 24.5t38 42t14.5 61.5q0 48 -22 72.5t-74 24.5z" />
<glyph unicode="&#x20b9;" d="M16 0zM68 364h76l70 329q44 8 86 12.5t93 4.5q45 0 83 -10.5t65.5 -32.5t43 -55.5t15.5 -78.5q0 -73 -26.5 -122.5t-68.5 -80t-93.5 -44t-100.5 -13.5l-68 -1l-12 -57h155l-19 -91h-155l-26 -124h-119l26 124h-77l20 91h77l12 58h-78zM380 600q-20 0 -38 -1.5t-30 -3.5 l-48 -228h52q27 0 55.5 8t52 24.5t38 42t14.5 61.5q0 48 -22 72.5t-74 24.5z" />
<glyph unicode="&#x20ba;" d="M16 0zM68 364h76l70 329q44 8 86 12.5t93 4.5q45 0 83 -10.5t65.5 -32.5t43 -55.5t15.5 -78.5q0 -73 -26.5 -122.5t-68.5 -80t-93.5 -44t-100.5 -13.5l-68 -1l-12 -57h155l-19 -91h-155l-26 -124h-119l26 124h-77l20 91h77l12 58h-78zM380 600q-20 0 -38 -1.5t-30 -3.5 l-48 -228h52q27 0 55.5 8t52 24.5t38 42t14.5 61.5q0 48 -22 72.5t-74 24.5z" />
<glyph unicode="&#x20bb;" d="M16 0zM68 364h76l70 329q44 8 86 12.5t93 4.5q45 0 83 -10.5t65.5 -32.5t43 -55.5t15.5 -78.5q0 -73 -26.5 -122.5t-68.5 -80t-93.5 -44t-100.5 -13.5l-68 -1l-12 -57h155l-19 -91h-155l-26 -124h-119l26 124h-77l20 91h77l12 58h-78zM380 600q-20 0 -38 -1.5t-30 -3.5 l-48 -228h52q27 0 55.5 8t52 24.5t38 42t14.5 61.5q0 48 -22 72.5t-74 24.5z" />
<glyph unicode="&#x20bc;" d="M16 0zM68 364h76l70 329q44 8 86 12.5t93 4.5q45 0 83 -10.5t65.5 -32.5t43 -55.5t15.5 -78.5q0 -73 -26.5 -122.5t-68.5 -80t-93.5 -44t-100.5 -13.5l-68 -1l-12 -57h155l-19 -91h-155l-26 -124h-119l26 124h-77l20 91h77l12 58h-78zM380 600q-20 0 -38 -1.5t-30 -3.5 l-48 -228h52q27 0 55.5 8t52 24.5t38 42t14.5 61.5q0 48 -22 72.5t-74 24.5z" />
<glyph unicode="&#x20bd;" d="M16 0zM68 364h76l70 329q44 8 86 12.5t93 4.5q45 0 83 -10.5t65.5 -32.5t43 -55.5t15.5 -78.5q0 -73 -26.5 -122.5t-68.5 -80t-93.5 -44t-100.5 -13.5l-68 -1l-12 -57h155l-19 -91h-155l-26 -124h-119l26 124h-77l20 91h77l12 58h-78zM380 600q-20 0 -38 -1.5t-30 -3.5 l-48 -228h52q27 0 55.5 8t52 24.5t38 42t14.5 61.5q0 48 -22 72.5t-74 24.5z" />
<glyph unicode="&#x20be;" d="M16 0zM68 364h76l70 329q44 8 86 12.5t93 4.5q45 0 83 -10.5t65.5 -32.5t43 -55.5t15.5 -78.5q0 -73 -26.5 -122.5t-68.5 -80t-93.5 -44t-100.5 -13.5l-68 -1l-12 -57h155l-19 -91h-155l-26 -124h-119l26 124h-77l20 91h77l12 58h-78zM380 600q-20 0 -38 -1.5t-30 -3.5 l-48 -228h52q27 0 55.5 8t52 24.5t38 42t14.5 61.5q0 48 -22 72.5t-74 24.5z" />
<glyph unicode="&#x20bf;" d="M16 0zM68 364h76l70 329q44 8 86 12.5t93 4.5q45 0 83 -10.5t65.5 -32.5t43 -55.5t15.5 -78.5q0 -73 -26.5 -122.5t-68.5 -80t-93.5 -44t-100.5 -13.5l-68 -1l-12 -57h155l-19 -91h-155l-26 -124h-119l26 124h-77l20 91h77l12 58h-78zM380 600q-20 0 -38 -1.5t-30 -3.5 l-48 -228h52q27 0 55.5 8t52 24.5t38 42t14.5 61.5q0 48 -22 72.5t-74 24.5z" />
<glyph unicode="&#x20c0;" d="M16 0zM68 364h76l70 329q44 8 86 12.5t93 4.5q45 0 83 -10.5t65.5 -32.5t43 -55.5t15.5 -78.5q0 -73 -26.5 -122.5t-68.5 -80t-93.5 -44t-100.5 -13.5l-68 -1l-12 -57h155l-19 -91h-155l-26 -124h-119l26 124h-77l20 91h77l12 58h-78zM380 600q-20 0 -38 -1.5t-30 -3.5 l-48 -228h52q27 0 55.5 8t52 24.5t38 42t14.5 61.5q0 48 -22 72.5t-74 24.5z" />
<glyph unicode="&#x20c1;" d="M16 0zM68 364h76l70 329q44 8 86 12.5t93 4.5q45 0 83 -10.5t65.5 -32.5t43 -55.5t15.5 -78.5q0 -73 -26.5 -122.5t-68.5 -80t-93.5 -44t-100.5 -13.5l-68 -1l-12 -57h155l-19 -91h-155l-26 -124h-119l26 124h-77l20 91h77l12 58h-78zM380 600q-20 0 -38 -1.5t-30 -3.5 l-48 -228h52q27 0 55.5 8t52 24.5t38 42t14.5 61.5q0 48 -22 72.5t-74 24.5z" />
<glyph unicode="&#x20c2;" d="M16 0zM68 364h76l70 329q44 8 86 12.5t93 4.5q45 0 83 -10.5t65.5 -32.5t43 -55.5t15.5 -78.5q0 -73 -26.5 -122.5t-68.5 -80t-93.5 -44t-100.5 -13.5l-68 -1l-12 -57h155l-19 -91h-155l-26 -124h-119l26 124h-77l20 91h77l12 58h-78zM380 600q-20 0 -38 -1.5t-30 -3.5 l-48 -228h52q27 0 55.5 8t52 24.5t38 42t14.5 61.5q0 48 -22 72.5t-74 24.5z" />
<glyph unicode="&#x20c3;" d="M16 0zM68 364h76l70 329q44 8 86 12.5t93 4.5q45 0 83 -10.5t65.5 -32.5t43 -55.5t15.5 -78.5q0 -73 -26.5 -122.5t-68.5 -80t-93.5 -44t-100.5 -13.5l-68 -1l-12 -57h155l-19 -91h-155l-26 -124h-119l26 124h-77l20 91h77l12 58h-78zM380 600q-20 0 -38 -1.5t-30 -3.5 l-48 -228h52q27 0 55.5 8t52 24.5t38 42t14.5 61.5q0 48 -22 72.5t-74 24.5z" />
<glyph unicode="&#x20c4;" d="M16 0zM68 364h76l70 329q44 8 86 12.5t93 4.5q45 0 83 -10.5t65.5 -32.5t43 -55.5t15.5 -78.5q0 -73 -26.5 -122.5t-68.5 -80t-93.5 -44t-100.5 -13.5l-68 -1l-12 -57h155l-19 -91h-155l-26 -124h-119l26 124h-77l20 91h77l12 58h-78zM380 600q-20 0 -38 -1.5t-30 -3.5 l-48 -228h52q27 0 55.5 8t52 24.5t38 42t14.5 61.5q0 48 -22 72.5t-74 24.5z" />
<glyph unicode="&#x20c5;" d="M16 0zM68 364h76l70 329q44 8 86 12.5t93 4.5q45 0 83 -10.5t65.5 -32.5t43 -55.5t15.5 -78.5q0 -73 -26.5 -122.5t-68.5 -80t-93.5 -44t-100.5 -13.5l-68 -1l-12 -57h155l-19 -91h-155l-26 -124h-119l26 124h-77l20 91h77l12 58h-78zM380 600q-20 0 -38 -1.5t-30 -3.5 l-48 -228h52q27 0 55.5 8t52 24.5t38 42t14.5 61.5q0 48 -22 72.5t-74 24.5z" />
<glyph unicode="&#x20c6;" d="M16 0zM68 364h76l70 329q44 8 86 12.5t93 4.5q45 0 83 -10.5t65.5 -32.5t43 -55.5t15.5 -78.5q0 -73 -26.5 -122.5t-68.5 -80t-93.5 -44t-100.5 -13.5l-68 -1l-12 -57h155l-19 -91h-155l-26 -124h-119l26 124h-77l20 91h77l12 58h-78zM380 600q-20 0 -38 -1.5t-30 -3.5 l-48 -228h52q27 0 55.5 8t52 24.5t38 42t14.5 61.5q0 48 -22 72.5t-74 24.5z" />
<glyph unicode="&#x20c7;" d="M16 0zM68 364h76l70 329q44 8 86 12.5t93 4.5q45 0 83 -10.5t65.5 -32.5t43 -55.5t15.5 -78.5q0 -73 -26.5 -122.5t-68.5 -80t-93.5 -44t-100.5 -13.5l-68 -1l-12 -57h155l-19 -91h-155l-26 -124h-119l26 124h-77l20 91h77l12 58h-78zM380 600q-20 0 -38 -1.5t-30 -3.5 l-48 -228h52q27 0 55.5 8t52 24.5t38 42t14.5 61.5q0 48 -22 72.5t-74 24.5z" />
<glyph unicode="&#x20c8;" d="M16 0zM68 364h76l70 329q44 8 86 12.5t93 4.5q45 0 83 -10.5t65.5 -32.5t43 -55.5t15.5 -78.5q0 -73 -26.5 -122.5t-68.5 -80t-93.5 -44t-100.5 -13.5l-68 -1l-12 -57h155l-19 -91h-155l-26 -124h-119l26 124h-77l20 91h77l12 58h-78zM380 600q-20 0 -38 -1.5t-30 -3.5 l-48 -228h52q27 0 55.5 8t52 24.5t38 42t14.5 61.5q0 48 -22 72.5t-74 24.5z" />
<glyph unicode="&#x20c9;" d="M16 0zM68 364h76l70 329q44 8 86 12.5t93 4.5q45 0 83 -10.5t65.5 -32.5t43 -55.5t15.5 -78.5q0 -73 -26.5 -122.5t-68.5 -80t-93.5 -44t-100.5 -13.5l-68 -1l-12 -57h155l-19 -91h-155l-26 -124h-119l26 124h-77l20 91h77l12 58h-78zM380 600q-20 0 -38 -1.5t-30 -3.5 l-48 -228h52q27 0 55.5 8t52 24.5t38 42t14.5 61.5q0 48 -22 72.5t-74 24.5z" />
<glyph unicode="&#x20ca;" d="M16 0zM68 364h76l70 329q44 8 86 12.5t93 4.5q45 0 83 -10.5t65.5 -32.5t43 -55.5t15.5 -78.5q0 -73 -26.5 -122.5t-68.5 -80t-93.5 -44t-100.5 -13.5l-68 -1l-12 -57h155l-19 -91h-155l-26 -124h-119l26 124h-77l20 91h77l12 58h-78zM380 600q-20 0 -38 -1.5t-30 -3.5 l-48 -228h52q27 0 55.5 8t52 24.5t38 42t14.5 61.5q0 48 -22 72.5t-74 24.5z" />
<glyph unicode="&#x20cb;" d="M16 0zM68 364h76l70 329q44 8 86 12.5t93 4.5q45 0 83 -10.5t65.5 -32.5t43 -55.5t15.5 -78.5q0 -73 -26.5 -122.5t-68.5 -80t-93.5 -44t-100.5 -13.5l-68 -1l-12 -57h155l-19 -91h-155l-26 -124h-119l26 124h-77l20 91h77l12 58h-78zM380 600q-20 0 -38 -1.5t-30 -3.5 l-48 -228h52q27 0 55.5 8t52 24.5t38 42t14.5 61.5q0 48 -22 72.5t-74 24.5z" />
<glyph unicode="&#x20cc;" d="M16 0zM68 364h76l70 329q44 8 86 12.5t93 4.5q45 0 83 -10.5t65.5 -32.5t43 -55.5t15.5 -78.5q0 -73 -26.5 -122.5t-68.5 -80t-93.5 -44t-100.5 -13.5l-68 -1l-12 -57h155l-19 -91h-155l-26 -124h-119l26 124h-77l20 91h77l12 58h-78zM380 600q-20 0 -38 -1.5t-30 -3.5 l-48 -228h52q27 0 55.5 8t52 24.5t38 42t14.5 61.5q0 48 -22 72.5t-74 24.5z" />
<glyph unicode="&#x20cd;" d="M16 0zM68 364h76l70 329q44 8 86 12.5t93 4.5q45 0 83 -10.5t65.5 -32.5t43 -55.5t15.5 -78.5q0 -73 -26.5 -122.5t-68.5 -80t-93.5 -44t-100.5 -13.5l-68 -1l-12 -57h155l-19 -91h-155l-26 -124h-119l26 124h-77l20 91h77l12 58h-78zM380 600q-20 0 -38 -1.5t-30 -3.5 l-48 -228h52q27 0 55.5 8t52 24.5t38 42t14.5 61.5q0 48 -22 72.5t-74 24.5z" />
<glyph unicode="&#x20ce;" d="M16 0zM68 364h76l70 329q44 8 86 12.5t93 4.5q45 0 83 -10.5t65.5 -32.5t43 -55.5t15.5 -78.5q0 -73 -26.5 -122.5t-68.5 -80t-93.5 -44t-100.5 -13.5l-68 -1l-12 -57h155l-19 -91h-155l-26 -124h-119l26 124h-77l20 91h77l12 58h-78zM380 600q-20 0 -38 -1.5t-30 -3.5 l-48 -228h52q27 0 55.5 8t52 24.5t38 42t14.5 61.5q0 48 -22 72.5t-74 24.5z" />
<glyph unicode="&#x20cf;" d="M16 0zM68 364h76l70 329q44 8 86 12.5t93 4.5q45 0 83 -10.5t65.5 -32.5t43 -55.5t15.5 -78.5q0 -73 -26.5 -122.5t-68.5 -80t-93.5 -44t-100.5 -13.5l-68 -1l-12 -57h155l-19 -91h-155l-26 -124h-119l26 124h-77l20 91h77l12 58h-78zM380 600q-20 0 -38 -1.5t-30 -3.5 l-48 -228h52q27 0 55.5 8t52 24.5t38 42t14.5 61.5q0 48 -22 72.5t-74 24.5z" />
<glyph unicode="&#x2113;" horiz-adv-x="500" d="M424 30q-22 -14 -57.5 -28t-70.5 -14q-63 0 -91.5 30.5t-28.5 95.5v104l-50 -44l-35 44l85 74v254q0 44 10 75.5t27.5 51.5t41 29.5t50.5 9.5q48 0 79 -29.5t31 -89.5q0 -74 -40 -157t-131 -171v-140q0 -44 17 -60.5t41 -16.5q25 0 55 10.5t50 21.5zM351 588q0 34 -14 49 t-32 15q-12 0 -23 -3.5t-19.5 -14t-13.5 -29t-5 -48.5v-212q56 65 81.5 125.5t25.5 117.5z" />
<glyph unicode="&#x2116;" horiz-adv-x="1015" d="M663 317h298l-24 -104h-298zM270 364l-28 111h-5l-8 -110l-77 -365h-123l149 705h95l159 -372l27 -108h6l7 107l78 368h123l-149 -705h-95zM686 499q0 54 18.5 94t48.5 66.5t66.5 39.5t72.5 13q66 0 100.5 -30.5t34.5 -89.5q0 -57 -17 -98.5t-46 -68.5t-66.5 -40 t-77.5 -13q-62 0 -98 34.5t-36 92.5zM795 505q0 -22 11 -35.5t32 -13.5q33 0 56 34.5t23 88.5q0 49 -43 49q-17 0 -31 -10t-25 -26.5t-17 -39t-6 -47.5z" />
<glyph unicode="&#x2122;" horiz-adv-x="953" d="M458 590h-118v-250h-130v250h-118v110h366v-110zM863 484l17 103h-6l-36 -85l-68 -117h-78l-68 114l-39 88h-5l23 -102v-145h-111v360h130l91 -150l24 -63h1l25 65l84 148h129v-360h-113v144z" />
<glyph unicode="&#x212e;" horiz-adv-x="600" d="M166 259v-181q62 -59 145 -59q124 0 193 120l35 -21q-43 -66 -99 -100.5t-129 -34.5q-59 0 -107 21.5t-81.5 58.5t-51.5 87.5t-18 108.5q0 59 18.5 109.5t52.5 87.5t81.5 58t105.5 21q62 0 109.5 -22t80.5 -59.5t50 -87.5t19 -107h-404zM457 295v145q-63 60 -147 60 q-86 0 -144 -60v-145h291z" />
<glyph unicode="&#x2202;" horiz-adv-x="541" d="M290 503q21 0 36 -2t26 -5.5t20 -8t17 -9.5h5q-5 39 -25 65t-48.5 42t-62.5 22.5t-68 6.5h-14.5t-13.5 -1l22 101q8 1 16.5 1h16.5q66 0 123 -15t98.5 -50t65.5 -94t24 -146q0 -112 -21.5 -192t-59.5 -131.5t-90.5 -76t-114.5 -24.5q-99 0 -154.5 54.5t-55.5 148.5 q0 57 15.5 113t47 101t80.5 72.5t115 27.5zM298 393q-57 0 -94.5 -53t-37.5 -146q0 -41 21.5 -69.5t65.5 -28.5q41 0 68 23t43.5 60t23 84t6.5 94q-18 17 -40 26.5t-56 9.5z" />
<glyph unicode="&#x220f;" horiz-adv-x="657" d="M493 578h-265v-778h-137v900h533v-900h-131v778z" />
<glyph unicode="&#x2211;" horiz-adv-x="505" d="M222 -38l-42 -40h360v-122h-481v122l186 292l42 34l-46 37l-182 293v122h481v-122h-348l46 -41l172 -281z" />
<glyph unicode="&#x2212;" horiz-adv-x="505" d="M58 394h442v-112h-442v112z" />
<glyph unicode="&#x2215;" horiz-adv-x="505" d="M31 0zM462 715l85 -50l-430 -679l-86 53z" />
<glyph unicode="&#x221a;" horiz-adv-x="476" d="M193 475l79 -186l22 -115h4l18 117l120 409h125l-230 -705h-67l-151 369h-112v111h192z" />
<glyph unicode="&#x221e;" horiz-adv-x="861" d="M449 265q-36 -58 -87 -86t-113 -28q-36 0 -69 13.5t-58 39t-40 62t-15 82.5q0 48 15 86t40.5 64.5t60.5 40t76 13.5q74 0 124 -29.5t87 -74.5q45 56 96 80t112 24q37 0 69 -13.5t56 -38.5t37.5 -61.5t13.5 -82.5q0 -49 -15 -87t-42 -64.5t-64 -40t-80 -13.5q-36 0 -66 9 t-54.5 24.5t-45 36t-38.5 44.5zM652 262q35 0 57.5 25.5t22.5 65.5q0 16 -5 32t-15 28.5t-25.5 20t-36.5 7.5q-31 0 -64 -18.5t-62 -56.5q11 -21 25 -39.5t30.5 -33t35 -23t37.5 -8.5zM269 441q-34 0 -57.5 -26.5t-23.5 -65.5q0 -38 25 -62.5t62 -24.5q32 0 65 22.5t57 55.5 q-23 45 -54.5 73t-73.5 28z" />
<glyph unicode="&#x222b;" horiz-adv-x="371" d="M249 -34q0 -96 -39 -135t-117 -39q-46 0 -87.5 7t-65.5 17l29 102q44 -17 84 -17q38 0 52 23.5t14 78.5v535q0 96 36.5 136t117.5 40q18 0 38.5 -2t40.5 -5.5t38 -8t31 -9.5l-22 -102q-23 8 -42.5 12.5t-46.5 4.5q-35 0 -48 -20.5t-13 -74.5v-543z" />
<glyph unicode="&#x2248;" horiz-adv-x="505" d="M29 171zM29 473q47 38 84.5 52.5t69.5 14.5q29 0 54 -8.5t48 -18t45.5 -18t45.5 -8.5q18 0 37 6t40 23l47 -103q-36 -27 -66 -38t-56 -11q-28 0 -52 9t-46.5 20t-45.5 20t-49 9q-24 0 -51.5 -10.5t-60.5 -38.5zM29 280q47 38 84.5 52.5t69.5 14.5q29 0 54 -8.5t48 -18 t45.5 -18t45.5 -8.5q18 0 37 6t40 23l47 -103q-36 -27 -66 -38t-56 -11q-28 0 -52 9t-46.5 20t-45.5 20t-49 9q-24 0 -51.5 -10.5t-60.5 -38.5z" />
<glyph unicode="&#x2260;" horiz-adv-x="505" d="M58 490h232l50 113h113l-50 -113h97v-112h-147l-36 -80h183v-112h-232l-57 -129h-112l57 129h-98v112h147l36 80h-183v112z" />
<glyph unicode="&#x2264;" horiz-adv-x="505" d="M501 80l-56 -96l-382 215l56 96zM52 413v70l386 231l57 -90l-224 -139l-91 -35l90 -31l230 -137l-57 -90z" />
<glyph unicode="&#x2265;" horiz-adv-x="505" d="M499 205l-381 -221l-56 95l380 222zM529 493v-70l-386 -231l-57 90l224 139l91 35l-90 31l-230 137l57 90z" />
<glyph unicode="&#x25ca;" horiz-adv-x="505" d="M314 -5h-75l-197 347l197 363h75l201 -358zM313 201l80 133l-91 157l-27 84h-5l-28 -86l-78 -134l90 -156l28 -84h4z" />
<glyph unicode="&#x2c67;" horiz-adv-x="666" d="M455 293h-243l-62 -293h-130l148 700h130l-60 -285h243l60 285h130l-122 -578h83l-53 -247h-91l12 125h-107z" />
<glyph unicode="&#x2c68;" horiz-adv-x="538" d="M453 103h79l-64 -217h-94l30 114h-95l60 284q10 44 10 73q0 26 -10 37.5t-31 11.5q-19 0 -40 -12t-40 -30t-34.5 -38.5t-23.5 -37.5l-59 -288h-123l148 700h123l-63 -288h4q13 16 31.5 34t41 33t49 25t57.5 10q48 0 74.5 -24t26.5 -85q0 -37 -12 -94z" />
<glyph unicode="&#xe000;" horiz-adv-x="500" d="M0 500h500v-500h-500v500z" />
<glyph unicode="&#xf401;" horiz-adv-x="2" d="M0 752zM-108 870h157l-6 -30l-172 -88h-104z" />
<glyph unicode="&#xf406;" horiz-adv-x="285" d="M300 875q18 -26 44 -40t65 -14q55 0 92 15t65 39l49 -32q-17 -30 -40 -51.5t-50 -35t-57.5 -20t-61.5 -6.5q-26 0 -50.5 7.5t-45 22t-36 34.5t-22.5 44z" />
<glyph unicode="&#xf407;" horiz-adv-x="363" d="M236 0zM388 -43q34 -2 52 -21t18 -48q0 -26 -11.5 -45t-31 -31.5t-46 -18.5t-56.5 -6q-38 0 -77 9l20 48q51 -5 70 6t19 25q0 32 -78 30l75 95h79z" />
<glyph unicode="&#xf408;" horiz-adv-x="431" d="M466 870h87l101 -93l-8 -39h-88l-45 41l-13 34l-27 -33l-67 -42h-94l9 40z" />
<glyph unicode="&#xf409;" horiz-adv-x="179" d="M118 -42zM132 -113q0 17 6.5 30t17 22t23.5 14t26 5q38 0 50.5 -20.5t12.5 -49.5q0 -36 -14.5 -63.5t-34.5 -47.5t-42 -32.5t-38 -17.5l-21 54q15 7 31 19.5t24 32.5q-18 3 -29.5 15.5t-11.5 38.5z" />
<glyph unicode="&#xf40a;" horiz-adv-x="216" d="M99 463zM121 637q0 18 7.5 31.5t18.5 22.5t24 13.5t25 4.5q35 0 50 -18t15 -49q0 -41 -15.5 -72t-38 -53t-47 -35t-42.5 -19l-19 55q21 9 38.5 24t24.5 38q-18 2 -30 16.5t-11 40.5z" />
<glyph unicode="&#xf40b;" horiz-adv-x="266" d="M302 798q0 32 24 47t59 15q33 0 58 -15t25 -47t-25 -46.5t-58 -14.5q-35 0 -59 14.5t-24 46.5z" />
<glyph unicode="&#xf40c;" horiz-adv-x="401" d="M382 772q0 18 6 34.5t20.5 29t39 19.5t62.5 7q70 0 99 -24t30 -66q-1 -18 -7.5 -34t-21.5 -27.5t-39.5 -18.5t-60.5 -8q-71 1 -99.5 25.5t-28.5 62.5zM466 772q0 -31 44 -31q25 0 35 8t10 23q0 33 -45 33q-44 0 -44 -33z" />
<glyph unicode="&#xf40d;" horiz-adv-x="349" d="M258 800q38 35 69 48t58 13q21 0 40.5 -5.5t38 -12t36 -12t35.5 -5.5q15 0 30 5t31 19l10 -67q-33 -27 -60 -37t-51 -10q-21 0 -39.5 5.5t-36.5 11.5t-35.5 11.5t-36.5 5.5q-18 0 -37.5 -7t-42.5 -26z" />
<glyph unicode="&#xf40e;" horiz-adv-x="382" d="M244 0zM464 10q-37 -12 -64.5 -33t-27.5 -53q0 -34 38 -34q14 0 38 8l5 -62q-18 -13 -49.5 -23t-64.5 -10q-48 0 -71.5 22t-23.5 56q0 27 11 47.5t29 36.5t40.5 27t45.5 18h94z" />
<glyph unicode="&#xf486;" horiz-adv-x="568" d="M20 0zM166 695q19 3 43 6t51 5t55.5 3t55.5 1q46 0 85.5 -9.5t68 -29.5t45 -51.5t16.5 -75.5q0 -33 -11 -63.5t-31.5 -54.5t-49 -40t-64.5 -21v-5q19 -4 38 -14.5t34 -27t24 -39t9 -50.5q0 -64 -25 -109.5t-67 -74t-98 -42t-118 -13.5h-41.5t-54.5 1.5t-58 4.5t-53 9z M167 109q4 -2 14.5 -3t23 -1.5t25.5 -1t22 -0.5q25 0 51.5 6t48 20t35.5 36t14 54q0 25 -11 41t-29 25.5t-41.5 13t-48.5 3.5h-64zM230 406h43q14 0 33 0.5t32 2.5q18 3 38.5 10t37 20t27.5 33t11 50q0 43 -28.5 59t-72.5 16q-26 0 -48 -1t-34 -3zM416 870h157l-6 -30 l-172 -88h-104z" />
<glyph unicode="&#xf487;" horiz-adv-x="512" d="M22 0zM164 700h123l-62 -288h4q13 18 30 35.5t37.5 32t44.5 23.5t53 9q54 0 81 -38t27 -101q0 -95 -26.5 -167t-69.5 -120.5t-97 -73t-109 -24.5q-61 0 -107.5 11.5t-70.5 28.5zM160 105q11 -8 27 -11t35 -3q25 0 52 16.5t49.5 48.5t37 78.5t14.5 105.5q0 69 -40 69 q-20 0 -39.5 -11t-37.5 -27.5t-32.5 -35.5t-23.5 -36zM413 720h125l-6 -30l-133 -124h-69z" />
<glyph unicode="&#xf488;" horiz-adv-x="489" d="M20 0zM168 700h130h264l-26 -122h-264l-37 -173h243l-25 -122h-243l-60 -283h-130zM416 870h157l-6 -30l-172 -88h-104z" />
<glyph unicode="&#xf489;" horiz-adv-x="294" d="M0 0zM246 397l-74 -431q-6 -37 -17 -68.5t-30.5 -55t-49.5 -37t-74 -13.5q-36 0 -70.5 5.5t-59.5 22.5l34 91q17 -7 34 -9t43 -2q32 0 49.5 25.5t26.5 82.5l63 389h-70l22 103h64l13 67q7 37 18 64.5t29.5 46t45 27.5t65.5 9q16 0 36.5 -1.5t40.5 -5t39 -8.5t34 -12 l-29 -91q-23 9 -47 12t-47 3q-32 0 -46.5 -19t-20.5 -59l-6 -33h100l-20 -103h-96zM385 870h157l-6 -30l-172 -88h-104z" />
<glyph unicode="&#xf49e;" horiz-adv-x="576" d="M94 607h73l20 93h130l-20 -93h211l-19 -93h-212l-20 -96q28 15 63.5 27.5t89.5 12.5q32 0 61 -8.5t51.5 -27t35.5 -47.5t13 -71q0 -31 -7 -63l-51 -241h-129l47 219q2 12 3.5 22.5t1.5 20.5q0 78 -81 78q-37 0 -67 -9.5t-54 -24.5l-65 -306h-130l108 514h-72z" />
<glyph unicode="&#xf49f;" horiz-adv-x="528" d="M18 0zM84 641h69l13 59h123l-13 -59h155l-17 -80h-156l-32 -149h4q13 16 31.5 34t41 33t49 25t57.5 10q48 0 74.5 -24t26.5 -85q0 -37 -12 -94l-66 -311h-123l60 284q10 44 10 73q0 26 -10 37.5t-31 11.5q-19 0 -40 -12t-40 -30t-34.5 -38.5t-23.5 -37.5l-59 -288h-123 l118 561h-69z" />
<glyph unicode="&#xf4c6;" horiz-adv-x="583" d="M284 700l-46 -217q-3 -13 -3.5 -24t-0.5 -22q0 -39 18.5 -58t60.5 -19q36 0 67.5 8t53.5 25l65 307h130l-148 -700q-11 -53 -27 -92t-38 -64.5t-52 -38t-69 -12.5q-28 0 -61 6l24 112q25 -2 40.5 2t25.5 15t15.5 28.5t11.5 43.5l60 282q-14 -7 -29 -14t-33 -13 t-40.5 -9.5t-50.5 -3.5q-35 0 -64.5 9t-51 28t-33.5 48t-12 68q0 31 7 63l51 242h129z" />
<glyph unicode="&#xf4c7;" horiz-adv-x="485" d="M302 196q-17 -11 -48.5 -24.5t-79.5 -13.5q-26 0 -48 5.5t-38.5 18.5t-25.5 34t-9 53q0 29 7 61l36 170h123l-24 -114q-5 -21 -7.5 -38t-2.5 -31q0 -28 11.5 -42t38.5 -14q29 0 50.5 9t35.5 20l46 210h123l-106 -500q-23 -106 -67.5 -157t-119.5 -51q-14 0 -28.5 1.5 t-30.5 5.5l23 111q24 -2 41 2.5t28 16t18.5 29.5t12.5 42z" />
<glyph unicode="&#xf4cc;" horiz-adv-x="546" d="M52 0zM315 391l1 -91h6l33 94l163 306h145l-280 -484q-33 -57 -59 -99t-51.5 -69.5t-54.5 -41t-68 -13.5q-61 0 -98 24l57 111q14 -8 26 -10.5t27 -2.5q21 0 41 21.5t39 55.5l-140 508h143zM428 870h157l-6 -30l-172 -88h-104z" />
</font>
</defs>
</svg>
