<svg xmlns="http://www.w3.org/2000/svg" xml:space="preserve" id="Layer_1" x="0" y="0" style="enable-background:new 0 0 403.65 86.32" version="1.1" viewBox="0 0 403.65 86.32">
  <style>
    .st1{fill:#00a1e1}.st3{fill:#0a2240}
  </style>
  <path d="M26.37 82.36c4.25-5.42 10.87-8.91 18.29-8.91s14.04 3.49 18.29 8.91h26.37C83.26 63.47 65.56 49.8 44.66 49.8 23.76 49.8 6.05 63.47 0 82.36h26.37z" style="fill:#50c0e8"/>
  <path d="M25.38 82.36 57.34 0H31.97L0 82.36z" class="st1"/>
  <path d="M89.32 82.36 57.35 0H31.97l31.97 82.36z" style="fill:#026cb6"/>
  <path d="M87.3 77.16C80.81 63 67.46 52.64 51.5 50.3l12.44 32.06h25.38l-2.02-5.2z" class="st1"/>
  <path d="m116.14 46.2-1.99 5.89h-5.94l10.26-29.43h7.08l10.26 29.43h-5.94l-1.99-5.89h-11.74zm5.85-17.3-4.11 12.09h8.23l-4.12-12.09zM151.17 35.26c-2.25-.25-4.11 0-5.39 1.36-1.19 1.23-1.4 3.01-1.4 4.75V52.1h-5.6V30.26h5.34v2.16c1.78-2.2 4.41-3.01 7.04-2.59v5.43zM164.02 52.61c-6.57 0-11.28-5.09-11.28-11.41s4.71-11.49 11.28-11.49c5.26 0 9.24 2.97 10.52 7.89h-5.98c-.76-1.48-2.5-2.76-4.54-2.76-3.1 0-5.6 2.88-5.6 6.4 0 3.43 2.5 6.28 5.6 6.28 2.08 0 3.86-1.27 4.58-2.8h5.98c-1.27 4.96-5.26 7.89-10.56 7.89zM197.77 52.1h-5.6V39.33c0-1.27-.42-4.16-4.07-4.16-2.5 0-4.24 1.7-4.24 4.16V52.1h-5.64V20.55h5.64v10.86c1.4-1.06 3.09-1.7 5-1.7 5.34 0 8.91 3.86 8.91 9.63V52.1zM208.42 27.89h-5.6v-5.22h5.6v5.22zm0 24.21h-5.6V30.26h5.6V52.1zM225.42 52.1h-6.02l-8.27-21.84h5.85l5.43 16.28 5.47-16.28h5.77l-8.23 21.84zM240.01 43.36c.72 2.67 2.84 4.33 5.47 4.33 1.87 0 3.69-.81 4.62-2.54h5.98c-1.27 4.45-5.13 7.46-10.56 7.46-6.15 0-11.19-5.09-11.19-11.41s5.05-11.49 11.19-11.49c6.45 0 11.79 5 10.98 13.65h-16.49zm10.95-4.58c-.68-2.54-2.8-4.16-5.47-4.16-2.54 0-4.58 1.61-5.39 4.16h10.86zM269.27 52.61c-5.55 0-9.67-2.93-10.35-7.63h5.68c.76 1.87 3.01 2.54 4.66 2.54 2.25 0 3.94-.68 3.94-1.95 0-1.23-.76-1.74-4.58-2.33-3.9-.59-9.12-1.65-9.12-6.53 0-3.44 3.01-7 9.33-7 5 0 8.74 2.71 9.46 6.83h-5.81c-.34-1.02-1.57-1.82-3.65-1.82-2.59 0-3.65.93-3.65 1.74 0 1.14 1.61 1.53 4.33 1.95 5.43.89 9.33 2.08 9.33 6.83.02 4.31-3.97 7.37-9.57 7.37zM292.81 52.61c-6.79 0-11.24-3.94-11.24-9.84h3.73c0 3.94 3.05 6.4 7.51 6.4 5.05 0 7.5-2.12 7.5-5.43 0-2.46-1.1-4.16-7.59-5.26-6.53-1.15-10.26-3.18-10.26-8.23 0-5.05 4.03-8.31 10.26-8.31 6.45 0 10.43 3.48 10.43 9.16h-3.65c0-3.43-2.33-5.72-6.74-5.72-4.54 0-6.66 1.99-6.66 4.75 0 2.54 1.36 3.82 7.38 4.92 6.45 1.23 10.43 3.05 10.43 8.69.01 5.77-4.53 8.87-11.1 8.87zM319.65 52.61c-3.14 0-5.85-1.7-7.42-3.82v13.02h-3.6V30.26h3.48v3.48c1.53-2.2 4.33-4.03 7.55-4.03 6.28 0 10.9 5.13 10.9 11.41-.01 6.36-4.63 11.49-10.91 11.49zm0-19.59c-4.03 0-7.42 3.65-7.42 8.1 0 4.5 3.39 8.18 7.42 8.18 4.07 0 7.29-3.69 7.29-8.18.01-4.46-3.22-8.1-7.29-8.1zM349.84 49.6c-1.57 1.91-4.11 3.01-7.51 3.01-4.5 0-8.52-2.03-8.52-6.74 0-4.49 3.27-6.53 8.91-6.83 5.34-.25 7.08-1.23 7.08-2.97 0-1.74-1.65-3.05-5.34-3.05-2.29 0-5.3.72-5.68 3.9h-3.73c.25-4.37 3.86-7.21 9.46-7.21 5.85 0 8.82 2.71 8.82 6.79v12.04c0 1.1.3 2.71.64 3.56h-3.56c-.32-.64-.53-1.49-.57-2.5zm-.04-9.25c-1.44 1.27-4.03 1.57-6.62 1.74-4.75.3-5.81 1.95-5.81 3.77 0 2.37 2.29 3.39 5.09 3.39 3.73 0 7.25-1.61 7.34-5.55v-3.35zM368.75 52.61c-6.02 0-10.94-5.09-10.94-11.41s4.92-11.49 10.94-11.49c4.88 0 8.69 2.88 10.18 7.29h-3.86c-1.23-2.38-3.48-3.99-6.32-3.99-4.03 0-7.34 3.69-7.34 8.18 0 4.5 3.31 8.1 7.34 8.1 2.88 0 5.13-1.61 6.32-3.99h3.86c-1.44 4.42-5.3 7.31-10.18 7.31zM403.14 45.31c-1.53 4.66-5.26 7.29-10.3 7.29-6.28 0-11.19-5-11.19-11.41 0-6.32 4.92-11.49 10.98-11.49 5.64 0 11.07 4.66 11.03 12.42H385.3c.47 4.54 3.94 7.21 7.55 7.21 3.1 0 5.3-1.48 6.49-4.03h3.8zm-3.47-6.4c-.89-3.56-3.86-5.94-7.04-5.94-3.01 0-6.19 2.21-7.12 5.94h14.16zM315.19 83.93c-.82 2.19-2.11 2.48-3.87 2.37v-1.96c1.08.07 1.59-.2 1.95-1.16l.25-.64-3.25-8.57h2.29l2.06 6.08 2.01-6.08h2.3l-3.74 9.96zM324.69 75.9c-.87-.1-1.59 0-2.08.52-.46.47-.54 1.16-.54 1.83v4.14h-2.16v-8.42h2.06v.83c.69-.85 1.7-1.16 2.71-1v2.1zM331.39 81.61c-.56.59-1.41.95-2.58.95-1.78 0-3.42-.9-3.42-2.73 0-1.9 1.59-2.39 3.45-2.55 1.41-.13 2.4-.29 2.4-.98 0-.44-.57-.8-1.54-.8-.77 0-1.65.34-1.85 1.06h-2.16c.21-1.6 1.75-2.8 3.96-2.8 3.42 0 3.68 2.21 3.68 2.88v4.38c0 .41.13 1.05.25 1.37h-1.98c-.09-.21-.16-.47-.21-.78zm-.06-3.27c-.46.29-1.16.44-2.04.54-1.06.11-1.72.34-1.72.96 0 .47.56.8 1.42.8 1.29 0 2.34-.44 2.34-1.52v-.78zM338.8 82.59c-2.14 0-3.73-1.13-3.99-2.94H337c.29.72 1.16.98 1.8.98.87 0 1.52-.26 1.52-.75 0-.47-.29-.67-1.77-.9-1.5-.23-3.51-.64-3.51-2.52 0-1.32 1.16-2.7 3.6-2.7 1.93 0 3.37 1.05 3.65 2.63h-2.24c-.13-.39-.6-.7-1.41-.7-1 0-1.41.36-1.41.67 0 .44.62.59 1.67.75 2.09.34 3.6.8 3.6 2.63-.01 1.67-1.55 2.85-3.7 2.85zM346.19 73.06h-2.16v-2.01h2.16v2.01zm0 9.33h-2.16v-8.42h2.16v8.42zM351.61 82.59c-2.14 0-3.73-1.13-3.99-2.94h2.19c.29.72 1.16.98 1.8.98.87 0 1.52-.26 1.52-.75 0-.47-.29-.67-1.77-.9-1.5-.23-3.51-.64-3.51-2.52 0-1.32 1.16-2.7 3.6-2.7 1.93 0 3.37 1.05 3.65 2.63h-2.24c-.13-.39-.6-.7-1.41-.7-1 0-1.41.36-1.41.67 0 .44.62.59 1.67.75 2.09.34 3.6.8 3.6 2.63 0 1.67-1.54 2.85-3.7 2.85zM309.83 80.38h-4.28v-9.33h-2.18v11.34h7.22zM297.38 78.29l4.1-1.57-4.1-1.58-1.57-4.09-1.58 4.09-4.1 1.58 4.1 1.57 1.58 4.1zM113.97 81.35c-.56.69-1.48 1.08-2.7 1.08-1.61 0-3.06-.73-3.06-2.42 0-1.62 1.17-2.35 3.2-2.45 1.92-.09 2.54-.44 2.54-1.07 0-.62-.59-1.1-1.92-1.1-.82 0-1.9.26-2.04 1.4h-1.34c.09-1.57 1.39-2.59 3.4-2.59 2.1 0 3.17.97 3.17 2.44v4.33c0 .4.11.97.23 1.28h-1.28c-.11-.23-.19-.54-.2-.9zm-.02-3.32c-.52.46-1.45.56-2.38.62-1.71.11-2.09.7-2.09 1.36 0 .85.82 1.22 1.83 1.22 1.34 0 2.6-.58 2.63-2v-1.2zM126.48 82.43c-2.16 0-3.93-1.83-3.93-4.1 0-2.27 1.77-4.13 3.93-4.13 1.75 0 3.12 1.04 3.66 2.62h-1.39c-.44-.85-1.25-1.43-2.27-1.43-1.45 0-2.64 1.33-2.64 2.94 0 1.61 1.19 2.91 2.64 2.91 1.04 0 1.84-.58 2.27-1.43h1.39c-.52 1.58-1.91 2.62-3.66 2.62zM139.62 78.35c0 2.25-1.71 4.08-3.95 4.08-2.22 0-3.95-1.83-3.95-4.08 0-2.29 1.72-4.14 3.95-4.14 2.24-.01 3.95 1.85 3.95 4.14zm-1.3 0c0-1.63-1.19-2.96-2.65-2.96-1.45 0-2.64 1.33-2.64 2.96 0 1.6 1.19 2.89 2.64 2.89 1.46 0 2.65-1.3 2.65-2.89zM153.01 82.24h-1.29v-4.89c0-1.22-.58-1.97-1.78-1.97-1.07 0-1.84.88-1.84 2.06v4.8h-1.28v-4.89c0-1.22-.61-1.97-1.77-1.97-1.07 0-1.86.88-1.86 2.06v4.8h-1.29V74.4h1.25v.85c.49-.66 1.22-1.05 2.09-1.05 1.11 0 1.93.5 2.42 1.34.49-.81 1.33-1.34 2.45-1.34 1.81 0 2.91 1.23 2.91 3.18v4.86zM166.92 82.24h-1.29v-4.89c0-1.22-.58-1.97-1.78-1.97-1.07 0-1.84.88-1.84 2.06v4.8h-1.28v-4.89c0-1.22-.61-1.97-1.77-1.97-1.07 0-1.86.88-1.86 2.06v4.8h-1.29V74.4h1.25v.85c.49-.66 1.22-1.05 2.09-1.05 1.11 0 1.93.5 2.42 1.34.49-.81 1.33-1.34 2.45-1.34 1.81 0 2.91 1.23 2.91 3.18v4.86zM176.12 82.24h-1.25v-.85c-.53.64-1.33 1.04-2.28 1.04-1.92 0-3.02-1.37-3.02-3.31V74.4h1.28v4.78c0 1.25.69 2.07 1.93 2.07 1.16 0 2.04-.87 2.04-2.04V74.4h1.29v7.84zM185.5 82.24h-1.28v-4.77c0-1.2-.67-2.09-1.92-2.09-1.19 0-2.06.88-2.06 2.06v4.8h-1.29V74.4h1.25v.85c.53-.66 1.34-1.05 2.28-1.05 1.92 0 3.02 1.37 3.02 3.32v4.72zM189.62 73.21h-1.29v-1.54h1.29v1.54zm0 9.03h-1.29V74.4h1.29v7.84zM195.78 82.24c-1.83.21-3.09-.87-3.09-2.86v-3.75h-1.07V74.4h1.07v-1.68h1.28v1.68h1.78v1.23h-1.78v3.75c0 1.39.85 1.74 1.81 1.68v1.18zM200.91 83.75c-.55 1.46-1.42 2.06-2.99 1.89v-1.19c1.02.08 1.45-.24 1.78-1.16l.41-1.1-3-7.8h1.4l2.28 6.24 2.24-6.24h1.39l-3.51 9.36zM214.28 82.44c-1.9 0-3.29-1.02-3.5-2.68h1.31c.17.91 1.07 1.48 2.19 1.48 1.22 0 1.97-.59 1.97-1.28 0-.55-.21-.96-2.13-1.22-1.9-.27-3.06-.73-3.06-2.21 0-1.13.97-2.33 3.08-2.33 1.81 0 3.03.91 3.2 2.45h-1.31c-.18-.84-.93-1.26-1.89-1.26-1.04 0-1.78.49-1.78 1.1 0 .56.44.76 1.98 1.01 1.74.27 3.17.61 3.17 2.39-.02 1.56-1.36 2.55-3.23 2.55zM226.91 79.81c-.55 1.68-1.89 2.62-3.7 2.62-2.25 0-4.02-1.8-4.02-4.1 0-2.27 1.77-4.13 3.95-4.13 2.03 0 3.98 1.68 3.96 4.46h-6.6c.17 1.63 1.42 2.59 2.71 2.59 1.11 0 1.9-.53 2.33-1.45h1.37zm-1.25-2.3c-.32-1.28-1.39-2.13-2.53-2.13-1.08 0-2.22.79-2.56 2.13h5.09zM233.1 75.5c-1.36-.08-2.51.64-2.51 2.21v4.54h-1.29V74.4h1.25v.88c.59-.84 1.66-1.17 2.56-1.07v1.29zM238.59 82.24h-1.39l-2.85-7.84h1.37l2.18 6.24 2.16-6.24h1.37l-2.84 7.84zM250.38 79.81c-.55 1.68-1.89 2.62-3.7 2.62-2.25 0-4.02-1.8-4.02-4.1 0-2.27 1.77-4.13 3.95-4.13 2.03 0 3.98 1.68 3.96 4.46h-6.6c.17 1.63 1.42 2.59 2.71 2.59 1.11 0 1.9-.53 2.33-1.45h1.37zm-1.25-2.3c-.32-1.28-1.39-2.13-2.53-2.13-1.08 0-2.22.79-2.56 2.13h5.09zM260.07 82.24h-1.25v-1.26c-.55.81-1.55 1.46-2.71 1.46-2.25 0-3.93-1.84-3.93-4.11 0-2.27 1.68-4.13 3.93-4.13 1.13 0 2.1.62 2.67 1.39v-4.68h1.3v11.33zm-3.96-6.83c-1.48 0-2.64 1.31-2.64 2.94 0 1.6 1.16 2.91 2.64 2.91 1.45 0 2.67-1.31 2.67-2.91 0-1.63-1.22-2.94-2.67-2.94zM271.98 82.44c-1.16 0-2.16-.66-2.71-1.46v1.26h-1.25V70.91h1.29v4.68c.56-.76 1.54-1.39 2.67-1.39 2.25 0 3.91 1.86 3.91 4.13 0 2.27-1.66 4.11-3.91 4.11zm0-7.03c-1.45 0-2.67 1.31-2.67 2.94 0 1.6 1.22 2.91 2.67 2.91 1.46 0 2.62-1.31 2.62-2.91 0-1.63-1.16-2.94-2.62-2.94zM280.85 83.75c-.55 1.46-1.42 2.06-2.99 1.89v-1.19c1.02.08 1.45-.24 1.78-1.16l.41-1.1-3-7.8h1.4l2.28 6.24 2.24-6.24h1.39l-3.51 9.36z" class="st3"/>
</svg>
